<svg width="160" height="159" viewBox="0 0 160 159" fill="none" xmlns="http://www.w3.org/2000/svg">
<path opacity="0.4" d="M79.9329 152.393C120.191 152.393 152.826 119.758 152.826 79.5C152.826 39.2424 120.191 6.60718 79.9329 6.60718C39.6753 6.60718 7.04004 39.2424 7.04004 79.5C7.04004 119.758 39.6753 152.393 79.9329 152.393Z" fill="url(#paint0_linear)"/>
<path opacity="0.4" d="M79.9329 158C123.287 158 158.433 122.854 158.433 79.5C158.433 36.1456 123.287 1 79.9329 1C36.5785 1 1.43286 36.1456 1.43286 79.5C1.43286 122.854 36.5785 158 79.9329 158Z" stroke="url(#paint1_linear)" stroke-width="2"/>
<path d="M79.9326 147C117.212 147 147.433 116.779 147.433 79.5C147.433 42.2208 117.212 12 79.9326 12C42.6534 12 12.4326 42.2208 12.4326 79.5C12.4326 116.779 42.6534 147 79.9326 147Z" fill="url(#paint2_linear)"/>
<path d="M128.358 87.4543L129.84 91.4598L133.845 92.9419L129.84 94.4241L128.358 98.4295L126.876 94.4241L122.87 92.9419L126.876 91.4598L128.358 87.4543Z" fill="white"/>
<path d="M23.4077 94.3137L23.9635 95.8158L25.4655 96.3716L23.9635 96.9274L23.4077 98.4294L22.8519 96.9274L21.3499 96.3716L22.8519 95.8158L23.4077 94.3137Z" fill="white"/>
<path d="M44.672 30.5208L45.4131 32.5235L47.4158 33.2645L45.4131 34.0056L44.672 36.0083L43.9309 34.0056L41.9282 33.2645L43.9309 32.5235L44.672 30.5208Z" fill="white"/>
<path d="M128.358 60.7024L129.099 62.7051L131.102 63.4462L129.099 64.1873L128.358 66.19L127.617 64.1873L125.614 63.4462L127.617 62.7051L128.358 60.7024Z" fill="white"/>
<path d="M113.267 127.239L113.637 128.241L114.639 128.611L113.637 128.982L113.267 129.983L112.896 128.982L111.895 128.611L112.896 128.241L113.267 127.239Z" fill="white"/>
<path d="M31.6393 55.9006L32.9362 59.4054L36.4409 60.7023L32.9362 61.9991L31.6393 65.5039L30.3424 61.9991L26.8376 60.7023L30.3424 59.4054L31.6393 55.9006Z" fill="white"/>
<path d="M126.986 114.206L127.357 115.207L128.358 115.578L127.357 115.948L126.986 116.95L126.616 115.948L125.614 115.578L126.616 115.207L126.986 114.206Z" fill="white"/>
<path d="M107.135 129.729L98.3025 133.816L101.598 143.572C105.29 142.385 108.849 140.803 112.145 138.958L107.135 129.729Z" fill="#E7A387"/>
<path d="M113.068 49.3096C113.068 49.3096 103.444 16.7461 78.2637 21.8877C53.0831 27.1611 38.0538 58.8017 34.7579 95.1884C32.5167 119.446 64.6846 122.61 64.6846 122.61C64.6846 122.61 104.895 131.18 114.123 111.272C124.143 89.2558 122.824 48.5185 113.068 49.3096Z" fill="#EFC577"/>
<path d="M86.5691 109.427C86.5691 109.427 92.7654 107.976 97.6433 111.141C102.521 114.305 110.168 130.389 110.168 130.389C110.168 130.389 96.5886 136.321 96.5886 135.926C96.5886 135.662 86.5691 109.427 86.5691 109.427Z" fill="url(#paint3_linear)"/>
<path d="M95.0066 131.575C95.9294 134.212 96.5886 135.926 96.5886 136.058C96.5886 136.321 110.168 130.521 110.168 130.521C110.168 130.521 109.113 128.411 107.663 125.511C103.444 127.488 99.2253 129.466 95.0066 131.575Z" fill="url(#paint4_linear)"/>
<path d="M100.939 142.122C100.675 141.067 100.543 140.408 100.543 140.408C100.543 140.408 100.807 140.276 101.071 139.881C99.4887 136.189 97.7749 132.366 96.1928 128.675C94.6108 124.983 93.0288 121.292 91.5786 117.6C90.9194 116.282 90.2602 114.964 89.4692 113.645C88.5464 112.063 87.4917 110.613 86.7007 108.899C81.8227 108.767 73.9126 108.899 65.4751 109.822C64.0249 114.173 62.8384 118.655 60.8608 122.874C60.729 123.138 60.5972 123.533 60.4653 123.797C62.311 129.334 64.2886 135.926 66.0024 141.99H100.939V142.122Z" fill="#E5A185"/>
<path d="M95.5341 123.006C91.8427 120.764 91.0517 109.427 85.1191 108.767C84.9873 110.877 88.5468 118.128 87.2285 119.578C85.6465 121.292 83.4052 122.478 81.0322 122.61C78.5273 122.61 76.5498 121.687 74.4404 120.237C70.8808 117.732 69.0351 113.645 67.3213 109.69C66.6621 109.69 66.1348 109.822 65.4756 109.822C64.0254 114.173 62.8389 118.655 60.8613 122.874C60.7295 123.137 59.6748 124.192 59.543 124.456C61.6523 130.916 64.4209 138.826 66.5303 145.681C71.0127 146.604 75.4951 147.132 80.2412 147.132C88.2832 147.132 96.0615 145.681 103.181 143.176C103.444 141.858 103.708 140.408 104.235 138.826C105.158 135.134 104.631 128.675 95.5341 123.006Z" fill="url(#paint5_linear)"/>
<path opacity="0.08" d="M79.8454 136.717C73.5173 135.794 65.2117 133.289 60.7292 128.147C62.5749 133.816 64.6843 140.144 66.53 145.681C71.0124 146.604 75.4949 147.132 80.2409 147.132C88.2829 147.132 96.0612 145.681 103.18 143.176C103.444 141.858 103.708 140.408 104.235 138.826C104.499 138.035 104.631 136.98 104.499 135.926C96.4568 137.639 88.2829 137.903 79.8454 136.717Z" fill="black"/>
<path d="M49.9185 139.881C52.5552 141.199 55.3237 142.386 58.2241 143.309C60.2016 137.903 61.9155 131.971 62.4429 126.038L54.9282 124.72C54.9282 124.852 53.0825 131.971 49.9185 139.881Z" fill="#E7A387"/>
<path d="M56.5102 116.546C54.1372 121.292 49.9185 134.344 49.9185 134.344L62.1792 137.244L65.3432 109.954C65.4751 109.822 59.5425 110.482 56.5102 116.546Z" fill="url(#paint6_linear)"/>
<path d="M63.6299 134.476L50.5781 130.389L49.1279 135.003L62.1797 138.958C62.3115 138.958 63.7617 134.607 63.6299 134.476Z" fill="url(#paint7_linear)"/>
<path d="M84.1958 108.504C84.1958 108.504 91.8423 120.633 81.5591 121.16C72.9897 121.556 67.98 109.295 67.98 109.295L65.0796 109.822C65.0796 109.822 68.2436 127.752 83.6684 124.456C98.9614 121.16 88.019 108.768 88.019 108.768L84.1958 108.504Z" fill="url(#paint8_linear)"/>
<path d="M51.5007 64.7342C48.6004 65.3933 47.0183 69.3484 47.9412 73.5671C48.864 77.7859 51.8962 80.5545 54.6648 79.8953C57.5652 79.2361 59.1472 75.281 58.2244 71.0623C57.4333 66.9754 54.4011 64.075 51.5007 64.7342Z" fill="#D78C74"/>
<path d="M77.9995 91.365C74.7036 91.1014 71.8032 93.8699 71.5396 97.5613L70.353 112.722C74.0444 112.591 77.604 112.591 81.1636 112.459C81.5591 112.459 81.9546 112.459 82.3501 112.459L83.4048 98.4842C83.8003 94.9246 81.2954 91.6287 77.9995 91.365Z" fill="#E5A185"/>
<path d="M78 91.365C74.7041 91.1014 71.8037 93.8699 71.54 97.5613L70.8809 105.867C73.2539 106.922 75.6269 107.713 78.5273 107.713C80.1094 107.713 81.4277 107.581 82.7461 107.317L83.4053 98.4842C83.8008 94.9246 81.2959 91.6287 78 91.365Z" fill="#D78C74"/>
<path d="M85.5148 33.621C82.4825 33.3573 79.4503 33.4891 76.5499 34.1483C69.9581 35.7303 64.5529 39.6854 60.2023 45.0907C59.0158 46.5409 57.8292 48.2547 56.9064 49.9686C56.9064 50.1004 56.7745 50.1004 56.7745 50.2323C48.4689 65.3934 49.9191 99.9344 74.3087 102.571C88.8106 104.153 104.235 88.7283 106.608 72.6444C109.113 56.1649 103.313 35.4667 85.5148 33.621Z" fill="#E5A185"/>
<path opacity="0.1" d="M85.5144 33.621C82.4821 33.3573 79.4499 33.4891 76.5495 34.1483C69.9577 35.7303 64.5525 39.6854 60.2019 45.0907C59.0154 46.5409 57.8289 48.2547 56.906 49.9686C56.906 50.1004 56.7742 50.1005 56.7742 50.2323C54.9285 53.5282 53.6101 57.6151 52.8191 62.2293C65.2117 52.2098 83.405 58.2743 97.2478 51.5506C93.4245 56.5604 98.3024 66.3163 101.335 68.8211C103.576 70.4032 104.367 70.6668 106.608 71.5897C108.849 55.242 102.917 35.4667 85.5144 33.621Z" fill="black"/>
<g opacity="0.58">
<path opacity="0.58" d="M64.0252 64.6024C58.2244 64.075 53.0828 68.2938 52.4237 74.0945C51.8963 79.8953 56.1151 85.0369 61.9158 85.6961C67.7166 86.2234 72.8582 82.0047 73.5174 76.2039C74.0447 70.4031 69.826 65.2615 64.0252 64.6024Z" fill="#E5A185"/>
<path opacity="0.58" d="M64.026 64.7342C58.2252 64.2069 53.0836 68.4256 52.5562 74.0946C52.0289 79.8953 56.2476 85.0369 61.9166 85.5643C67.7174 86.0916 72.859 81.8729 73.3863 76.2039C73.9136 70.4032 69.6949 65.2616 64.026 64.7342Z" fill="#E5A084"/>
<path opacity="0.58" d="M63.8939 64.7342C58.2249 64.2069 53.0834 68.2938 52.4242 74.0946C51.8968 79.7635 55.9837 84.9051 61.7845 85.5643C67.4535 86.0916 72.5951 82.0047 73.2542 76.2039C73.9134 70.535 69.6947 65.3934 63.8939 64.7342Z" fill="#E59F83"/>
<path opacity="0.58" d="M63.8939 64.8656C58.225 64.3383 53.0834 68.4252 52.556 74.0941C52.0287 79.7631 56.1156 84.9046 61.7845 85.432C67.4535 85.9593 72.5951 81.8724 73.1224 76.2035C73.7816 70.5345 69.6947 65.393 63.8939 64.8656Z" fill="#E49E83"/>
<path opacity="0.58" d="M63.8942 64.8656C58.2252 64.3383 53.2155 68.4252 52.6881 74.0941C52.1608 79.7631 56.2477 84.7728 61.9166 85.3002C67.5856 85.8275 72.5953 81.7406 73.1227 76.0716C73.7818 70.5345 69.5631 65.5248 63.8942 64.8656Z" fill="#E49D82"/>
<path opacity="0.58" d="M63.8942 64.9977C58.2252 64.4703 53.2155 68.5573 52.6881 74.2262C52.1608 79.8951 56.2477 84.9049 61.9166 85.4322C67.5856 85.9596 72.5953 81.8727 73.1227 76.2037C73.65 70.5348 69.5631 65.525 63.8942 64.9977Z" fill="#E49C81"/>
<path opacity="0.58" d="M63.8937 64.9977C58.3566 64.4704 53.3468 68.5573 52.8195 74.0944C52.2921 79.6315 56.3791 84.6413 61.9162 85.1686C67.4533 85.6959 72.463 81.609 72.9904 76.0719C73.6495 70.5348 69.5626 65.6569 63.8937 64.9977Z" fill="#E49B80"/>
<path opacity="0.58" d="M63.8937 65.1295C58.3566 64.6022 53.3468 68.6891 52.8195 74.2262C52.2921 79.7633 56.3791 84.7731 61.9162 85.3004C67.4533 85.8278 72.463 81.7409 72.9904 76.2038C73.5177 70.6667 69.4308 65.6569 63.8937 65.1295Z" fill="#E49A80"/>
<path opacity="0.58" d="M63.8938 65.1294C58.3567 64.6021 53.4788 68.5571 52.9514 74.0942C52.4241 79.6314 56.3792 84.5093 61.9163 85.0366C67.4534 85.564 72.3313 81.6089 72.8586 76.0718C73.5178 70.6665 69.4309 65.7886 63.8938 65.1294Z" fill="#E3997F"/>
<path opacity="0.58" d="M63.8938 65.2615C58.3567 64.7342 53.4788 68.6892 52.9514 74.2263C52.4241 79.7634 56.3792 84.6414 61.9163 85.1687C67.4534 85.696 72.3313 81.741 72.8586 76.2039C73.386 70.6668 69.4309 65.7888 63.8938 65.2615Z" fill="#E3987E"/>
<path opacity="0.58" d="M63.8941 65.2615C58.4888 64.7342 53.6109 68.6893 53.0835 74.0945C52.5562 79.4998 56.5113 84.3777 61.9165 84.9051C67.3218 85.4324 72.1997 81.4773 72.7271 76.0721C73.2544 70.6668 69.2993 65.9207 63.8941 65.2615Z" fill="#E3977D"/>
<path opacity="0.58" d="M63.8941 65.3931C58.4888 64.8658 53.6109 68.8208 53.0835 74.2261C52.5562 79.6314 56.5113 84.5093 61.9165 85.0366C67.3218 85.564 72.1997 81.6089 72.7271 76.2036C73.2544 70.7984 69.2993 65.9205 63.8941 65.3931Z" fill="#E3967C"/>
<path opacity="0.58" d="M63.8941 65.3931C58.4888 64.8658 53.7428 68.8209 53.2154 74.0943C52.6881 79.4996 56.6431 84.2457 61.9166 84.773C67.3218 85.3003 72.0679 81.3453 72.5953 76.0718C73.1226 70.7984 69.2994 65.9205 63.8941 65.3931Z" fill="#E2957C"/>
<path opacity="0.58" d="M63.8941 65.5252C58.6207 64.9979 53.7428 68.953 53.2154 74.2264C52.6881 79.4998 56.6431 84.3777 61.9166 84.9051C67.19 85.4324 72.0679 81.4774 72.5953 76.2039C73.1226 70.7987 69.1675 66.0526 63.8941 65.5252Z" fill="#E2947B"/>
<path opacity="0.58" d="M63.8938 65.5251C58.6203 64.9978 53.8743 68.821 53.3469 74.2263C52.8196 79.4997 56.6428 84.2458 62.0481 84.7732C67.3215 85.3005 72.0676 81.4773 72.5949 76.072C72.9905 70.7986 69.1672 66.0525 63.8938 65.5251Z" fill="#E2937A"/>
<path opacity="0.58" d="M63.8938 65.657C58.6204 65.1297 54.0061 68.9529 53.4788 74.2263C52.9514 79.4998 56.7747 84.114 62.0481 84.6414C67.3215 85.1687 71.9358 81.3455 72.4631 76.072C72.9905 70.7986 69.1672 66.1843 63.8938 65.657Z" fill="#E29279"/>
<path opacity="0.58" d="M63.8938 65.657C58.6204 65.1297 54.0061 68.9529 53.4788 74.2263C52.9514 79.4998 56.7747 84.114 62.0481 84.6414C67.3215 85.1687 71.9358 81.3455 72.4631 76.072C72.8586 70.9304 69.0354 66.1843 63.8938 65.657Z" fill="#E29179"/>
<path opacity="0.58" d="M63.8941 65.7889C58.7525 65.2615 54.1382 69.0848 53.6109 74.2264C53.0836 79.368 56.9068 83.9822 62.0484 84.5096C67.19 85.0369 71.8042 81.2137 72.3316 76.0721C72.8589 70.9305 69.0357 66.3162 63.8941 65.7889Z" fill="#E19078"/>
<path opacity="0.58" d="M63.8941 65.7889C58.7525 65.2615 54.1382 69.0848 53.6109 74.2264C53.0836 79.368 56.9068 83.9822 62.0484 84.5096C67.19 85.0369 71.8042 81.2137 72.3316 76.0721C72.7271 70.9305 69.0357 66.3162 63.8941 65.7889Z" fill="#E18F77"/>
<path opacity="0.58" d="M63.8936 65.9203C58.752 65.3929 54.2696 69.0843 53.7423 74.2259C53.2149 79.3675 56.9063 83.8499 62.0479 84.3773C67.1895 84.9046 71.6719 81.2132 72.1993 76.0716C72.7266 70.93 68.9034 66.4476 63.8936 65.9203Z" fill="#E18E76"/>
<path opacity="0.58" d="M63.8936 65.9203C58.752 65.3929 54.2696 69.0843 53.7423 74.2259C53.2149 79.3675 56.9063 83.8499 62.0479 84.3773C67.1895 84.9046 71.6719 81.2132 72.1993 76.0716C72.5948 71.0619 68.9034 66.4476 63.8936 65.9203Z" fill="#E18D75"/>
<path opacity="0.58" d="M63.8939 66.0524C58.8841 65.525 54.4017 69.2164 53.8744 74.2262C53.347 79.2359 57.0384 83.7184 62.0482 84.2457C67.058 84.7731 71.5404 81.0816 72.0677 76.0719C72.5951 71.0621 68.9037 66.5797 63.8939 66.0524Z" fill="#E18C75"/>
<path opacity="0.58" d="M63.7618 66.0524C58.7521 65.525 54.2697 69.2164 53.7423 74.2262C53.215 79.2359 56.9064 83.7184 61.9161 84.2457C66.9259 84.7731 71.4083 81.0816 71.9356 76.0719C72.463 71.0621 68.7716 66.5797 63.7618 66.0524Z" fill="#E08B74"/>
<path opacity="0.58" d="M63.7621 66.1842C58.7523 65.6569 54.4018 69.3483 53.8744 74.2262C53.3471 79.236 57.0385 83.5866 61.9164 84.1139C66.9262 84.6412 71.2767 80.9498 71.8041 76.0719C72.4633 71.0622 68.7719 66.7116 63.7621 66.1842Z" fill="#E08A73"/>
<path opacity="0.58" d="M63.7621 66.1842C58.8842 65.6569 54.4018 69.3483 54.0063 74.2262C53.4789 79.1041 57.1703 83.5866 62.0482 83.9821C66.9262 84.5094 71.4086 80.818 71.8041 75.9401C72.3314 71.0622 68.7719 66.7116 63.7621 66.1842Z" fill="#E08972"/>
<path opacity="0.58" d="M63.7617 66.3162C58.8838 65.7888 54.5332 69.3484 54.0059 74.3582C53.4785 79.2361 57.0381 83.5867 62.0479 84.114C66.9258 84.6413 71.2764 81.0818 71.8037 76.072C72.331 71.1941 68.6396 66.8435 63.7617 66.3162Z" fill="#E08872"/>
<path opacity="0.58" d="M63.762 66.3162C58.8841 65.7889 54.5335 69.3484 54.138 74.2264C53.6106 79.1043 57.1702 83.4549 62.0481 83.8504C66.9261 84.3777 71.2766 80.8181 71.6721 75.9402C72.1995 71.1941 68.6399 66.8435 63.762 66.3162Z" fill="#DF8771"/>
<path opacity="0.58" d="M63.762 66.448C58.8841 65.9207 54.6653 69.4803 54.138 74.3582C53.6106 79.2361 57.1702 83.4549 62.0481 83.9822C66.9261 84.5095 71.1448 80.95 71.6721 76.0721C72.1995 71.1941 68.6399 66.9754 63.762 66.448Z" fill="#DF8670"/>
<path opacity="0.58" d="M63.7623 66.4481C59.0162 65.9207 54.6656 69.4803 54.2701 74.2264C53.7428 78.9725 57.3023 83.3231 62.0484 83.7186C66.7945 84.2459 71.1451 80.6863 71.5406 75.9403C72.0679 71.1942 68.6402 66.9754 63.7623 66.4481Z" fill="#DF856F"/>
<path opacity="0.58" d="M63.7623 66.5797C59.0162 66.0523 54.7974 69.6119 54.2701 74.358C53.7428 79.1041 57.3023 83.3228 62.0484 83.8502C66.7945 84.3775 71.0133 80.8179 71.5406 76.0719C72.0679 71.3258 68.5084 66.9752 63.7623 66.5797Z" fill="#DF846F"/>
<path opacity="0.58" d="M63.7618 66.5797C59.0157 66.0524 54.797 69.6119 54.4015 74.2262C53.8741 78.9723 57.4337 83.191 62.048 83.5865C66.7941 84.1139 71.0128 80.5543 71.4083 75.9401C71.9356 71.3258 68.5079 67.1071 63.7618 66.5797Z" fill="#DF836E"/>
<path opacity="0.58" d="M63.762 66.7117C59.0159 66.1844 54.929 69.6121 54.4017 74.3582C53.8743 78.9725 57.3021 83.1912 62.0482 83.7186C66.7943 84.2459 70.8812 80.8182 71.4085 76.0721C71.804 71.326 68.5081 67.1073 63.762 66.7117Z" fill="#DE826D"/>
<path opacity="0.58" d="M63.7621 66.7116C59.1479 66.3161 54.9291 69.612 54.5336 74.2262C54.1381 78.8405 57.434 83.0592 62.0483 83.4547C66.6625 83.8502 70.8813 80.5544 71.2768 75.9401C71.8041 71.3259 68.3764 67.2389 63.7621 66.7116Z" fill="#DE816C"/>
<path opacity="0.58" d="M63.7621 66.8434C59.1479 66.4479 55.061 69.7438 54.5336 74.3581C54.1381 78.9723 57.434 83.0592 62.0483 83.5866C66.6625 83.9821 70.7494 80.6862 71.2768 76.0719C71.6723 71.4577 68.3764 67.2389 63.7621 66.8434Z" fill="#DE806B"/>
<path opacity="0.58" d="M63.7621 66.8434C59.1479 66.4479 55.061 69.7438 54.6655 74.3581C54.2699 78.9723 57.5658 83.0592 62.1801 83.4547C66.7944 83.8503 70.8813 80.5544 71.2768 75.9401C71.6723 71.4577 68.3764 67.3708 63.7621 66.8434Z" fill="#DE7F6B"/>
<path opacity="0.58" d="M63.7617 66.9753C59.2792 66.5798 55.1923 69.8757 54.7968 74.3581C54.4013 78.8405 57.6972 82.9274 62.1796 83.3229C66.662 83.7184 70.749 80.4225 71.1445 75.9401C71.54 71.4577 68.2441 67.3708 63.7617 66.9753Z" fill="#DE7E6A"/>
<path opacity="0.58" d="M63.7617 66.9753C59.2792 66.5798 55.1923 69.8757 54.7968 74.3581C54.4013 78.8405 57.6972 82.9274 62.1796 83.3229C66.662 83.7184 70.749 80.4225 71.1445 75.9401C71.54 71.4577 68.2441 67.5026 63.7617 66.9753Z" fill="#DD7D69"/>
<path opacity="0.58" d="M63.7616 67.1071C59.2792 66.7116 55.3241 69.8756 54.9286 74.3581C54.5331 78.8405 57.6972 82.7955 62.1796 83.1911C66.662 83.5866 70.6171 80.4225 71.0126 75.9401C71.4081 71.4577 68.244 67.5026 63.7616 67.1071Z" fill="#DD7C68"/>
<path opacity="0.58" d="M63.7616 67.1071C59.2792 66.7116 55.456 69.8756 54.9286 74.3581C54.5331 78.8405 57.6972 82.6637 62.1796 83.1911C66.662 83.5866 70.4852 80.4225 71.0126 75.9401C71.4081 71.5895 68.1122 67.6344 63.7616 67.1071Z" fill="#DD7B68"/>
<path opacity="0.58" d="M63.762 67.2392C59.4114 66.8437 55.4563 70.0077 55.0608 74.3583C54.5335 78.7089 57.6975 82.664 62.1799 83.0595C66.5305 83.455 70.4856 80.2909 70.8811 75.9404C71.2766 71.5898 68.1126 67.6347 63.762 67.2392Z" fill="#DD7A67"/>
<path opacity="0.58" d="M63.7619 67.2392C59.4113 66.8437 55.5881 70.0077 55.0607 74.3583C54.6652 78.7089 57.8293 82.5321 62.1799 83.0595C66.5304 83.455 70.3537 80.2909 70.881 75.9404C71.2765 71.5898 68.1125 67.7665 63.7619 67.2392Z" fill="#DD7A66"/>
<path opacity="0.58" d="M63.7622 67.3708C59.4116 66.9753 55.5883 70.1394 55.1928 74.3581C54.7973 78.7087 57.9614 82.5319 62.1801 82.9274C66.5307 83.3229 70.3539 80.1589 70.7494 75.9401C71.145 71.5896 67.9809 67.7663 63.7622 67.3708Z" fill="#DC7965"/>
<path opacity="0.58" d="M63.6301 67.3708C59.4113 66.9753 55.5881 70.0075 55.0608 74.3581C54.6653 78.5769 57.6975 82.4001 62.0481 82.9274C66.2668 83.323 70.09 80.2907 70.6174 75.9402C71.1447 71.7214 67.9807 67.8982 63.6301 67.3708Z" fill="#DC7864"/>
<path opacity="0.58" d="M63.6301 67.5027C59.4113 67.1072 55.5881 70.1394 55.1926 74.49C54.7971 78.7087 57.8293 82.5319 62.1799 82.9275C66.3986 83.323 70.2219 80.2907 70.6174 75.9402C71.0129 71.7214 67.9807 67.8982 63.6301 67.5027Z" fill="#DC7764"/>
<path opacity="0.58" d="M63.6301 67.5027C59.4114 67.1072 55.72 70.1394 55.1926 74.3582C54.7971 78.5769 57.8293 82.2683 62.0481 82.7956C66.2668 83.1911 69.9582 80.1589 70.4856 75.9402C71.0129 71.7214 67.8489 68.03 63.6301 67.5027Z" fill="#DC7663"/>
<path opacity="0.58" d="M63.6304 67.6343C59.4116 67.2388 55.7202 70.271 55.3247 74.4897C54.9292 78.7085 57.9614 82.3999 62.1802 82.7954C66.3989 83.1909 70.0903 80.1587 70.4858 75.9399C70.8813 71.7212 67.8491 68.0298 63.6304 67.6343Z" fill="#DB7562"/>
<path opacity="0.58" d="M63.6304 67.6343C59.5435 67.2388 55.8521 70.271 55.4566 74.3579C55.0611 78.4448 58.0933 82.1362 62.1802 82.5318C66.2671 82.9273 69.9585 79.895 70.354 75.8081C70.8814 71.7212 67.8491 68.0298 63.6304 67.6343Z" fill="#DB7461"/>
<path opacity="0.58" d="M63.6304 67.7661C59.5435 67.3706 55.8521 70.4029 55.4566 74.4898C55.0611 78.5767 58.0933 82.2681 62.1802 82.6636C66.2671 83.0591 69.9585 80.0269 70.354 75.94C70.7495 71.8531 67.7173 68.1616 63.6304 67.7661Z" fill="#DB7361"/>
<path opacity="0.58" d="M63.6301 67.7665C59.5431 67.371 55.9836 70.2714 55.5881 74.3583C55.1926 78.4452 58.0929 82.0048 62.1799 82.4003C66.2668 82.7958 69.8263 79.8954 70.2218 75.8085C70.7492 71.8534 67.717 68.162 63.6301 67.7665Z" fill="#DB7260"/>
<path opacity="0.58" d="M63.6301 67.8979C59.5431 67.5024 55.9836 70.4028 55.5881 74.4897C55.1926 78.5766 58.0929 82.1362 62.1799 82.5317C66.2668 82.9272 69.8263 80.0268 70.2218 75.9399C70.6174 71.853 67.717 68.2934 63.6301 67.8979Z" fill="#DB715F"/>
<path opacity="0.58" d="M63.6301 67.8979C59.675 67.5024 56.1154 70.4028 55.7199 74.3579C55.3244 78.3129 58.2248 81.8725 62.1799 82.268C66.135 82.6635 69.6945 79.7631 70.09 75.8081C70.4855 71.853 67.5852 68.2934 63.6301 67.8979Z" fill="#DA705E"/>
<path opacity="0.58" d="M63.6301 68.03C59.675 67.6345 56.1154 70.5349 55.7199 74.4899C55.3244 78.445 58.2248 82.0046 62.1799 82.4001C66.135 82.7956 69.6945 79.8952 70.09 75.9401C70.4855 71.9851 67.5852 68.4255 63.6301 68.03Z" fill="#DA6F5D"/>
<path opacity="0.58" d="M63.6304 68.03C59.6753 67.6345 56.2476 70.5349 55.852 74.3581C55.4565 78.3132 58.3569 81.7409 62.1802 82.1364C66.1352 82.532 69.563 79.6316 69.9585 75.8083C70.354 71.9851 67.5854 68.4255 63.6304 68.03Z" fill="#DA6E5D"/>
<path opacity="0.58" d="M63.6304 68.1616C59.8071 67.7661 56.2476 70.6665 55.852 74.4897C55.4565 78.313 58.3569 81.8725 62.1802 82.268C66.0034 82.6636 69.563 79.7632 69.9585 75.9399C70.354 71.9849 67.4536 68.5571 63.6304 68.1616Z" fill="#DA6D5C"/>
<path opacity="0.58" d="M63.6301 68.1618C59.8069 67.7663 56.3791 70.5349 55.9836 74.49C55.5881 78.3132 58.3567 81.7409 62.3117 82.1364C66.135 82.5319 69.5627 79.7634 69.9582 75.8083C70.2219 71.9851 67.4533 68.5574 63.6301 68.1618Z" fill="#DA6C5B"/>
<path opacity="0.58" d="M63.6301 68.2937C59.8069 67.8982 56.3792 70.6668 55.9837 74.49C55.5881 78.3132 58.3567 81.741 62.1799 82.1365C66.0032 82.532 69.4309 79.7634 69.8264 75.9402C70.2219 71.9851 67.4534 68.6892 63.6301 68.2937Z" fill="#D96B5A"/>
<path opacity="0.58" d="M63.6301 68.2937C59.8069 67.8982 56.511 70.6668 56.1155 74.49C55.72 78.3132 58.4885 81.6091 62.3118 82.0046C66.135 82.4001 69.4309 79.6316 69.8264 75.8084C70.0901 72.117 67.3215 68.6892 63.6301 68.2937Z" fill="#D96A5A"/>
<path opacity="0.58" d="M63.6304 68.4256C59.939 68.0301 56.5113 70.7986 56.2476 74.49C55.8521 78.1814 58.6207 81.6092 62.3121 81.8728C66.0035 82.2683 69.4312 79.4998 69.6949 75.8084C70.0904 72.117 67.3218 68.8211 63.6304 68.4256Z" fill="#D96959"/>
<path opacity="0.58" d="M63.6304 68.4256C59.939 68.0301 56.6431 70.7986 56.2476 74.49C55.8521 78.1814 58.6207 81.4773 62.3121 81.8728C66.0035 82.2683 69.2994 79.4998 69.6949 75.8084C69.9585 72.117 67.3218 68.8211 63.6304 68.4256Z" fill="#D96858"/>
<path opacity="0.58" d="M63.6304 68.5572C59.939 68.1617 56.6431 70.9303 56.3795 74.4898C55.984 78.1812 58.7525 81.4771 62.3121 81.7408C66.0035 82.1363 69.2994 79.3677 69.5631 75.8082C69.9586 72.1168 67.19 68.9527 63.6304 68.5572Z" fill="#D86757"/>
<path opacity="0.58" d="M63.6301 68.5571C59.9387 68.1616 56.7746 70.7983 56.3791 74.4897C55.9836 78.1811 58.6203 81.3452 62.3117 81.7407C66.0031 82.1362 69.1672 79.4995 69.5627 75.808C69.8264 72.2485 67.1896 68.9526 63.6301 68.5571Z" fill="#D86657"/>
<path opacity="0.58" d="M63.6304 68.6892C60.0708 68.2937 56.7749 70.9304 56.5112 74.49C56.1157 78.0495 58.7524 81.3454 62.312 81.6091C65.8716 82.0046 69.1675 79.3679 69.4311 75.8083C69.8266 72.2488 67.1899 69.0847 63.6304 68.6892Z" fill="#D86556"/>
<path opacity="0.58" d="M63.6304 68.6892C60.0708 68.2937 56.9067 70.9304 56.5112 74.49C56.1157 78.0495 58.7524 81.2136 62.312 81.6091C65.8716 82.0046 69.0356 79.3679 69.4311 75.8083C69.6948 72.2488 67.0581 69.0847 63.6304 68.6892Z" fill="#D86455"/>
<path opacity="0.58" d="M63.4985 68.8208C59.939 68.4253 56.9067 71.062 56.5112 74.6216C56.1157 78.1811 58.7524 81.2134 62.312 81.6089C65.8716 82.0044 68.9038 79.3677 69.2993 75.8081C69.6948 72.2485 67.0581 69.0845 63.4985 68.8208Z" fill="#D86354"/>
<path opacity="0.58" d="M63.4986 68.8208C60.0708 68.4253 56.9068 71.062 56.5113 74.4898C56.1158 77.9175 58.7525 81.0816 62.1802 81.4771C65.6079 81.8726 68.772 79.2359 69.1675 75.8081C69.563 72.3804 67.0581 69.2163 63.4986 68.8208Z" fill="#D76253"/>
<path opacity="0.58" d="M63.4983 68.9529C60.0706 68.5574 57.0384 71.0623 56.6429 74.6219C56.2474 78.0496 58.7522 81.0818 62.3118 81.4773C65.7395 81.8728 68.7718 79.3679 69.1673 75.8084C69.5628 72.3807 67.0579 69.2166 63.4983 68.9529Z" fill="#D76153"/>
<path opacity="0.58" d="M63.4986 68.9527C60.0709 68.5572 57.0387 71.0621 56.775 74.4898C56.3795 77.9176 58.8844 80.9498 62.3121 81.2135C65.7398 81.609 68.772 79.1041 69.0357 75.6763C69.4312 72.3805 66.9263 69.3482 63.4986 68.9527Z" fill="#D76052"/>
<path opacity="0.58" d="M63.4986 69.0846C60.0709 68.689 57.1705 71.1939 56.775 74.6217C56.3795 78.0494 58.8844 80.9498 62.3121 81.3453C65.7398 81.7408 68.6402 79.2359 69.0357 75.8082C69.4312 72.3804 66.9263 69.3482 63.4986 69.0846Z" fill="#D75F51"/>
<path opacity="0.58" d="M63.4982 69.0846C60.2023 68.6891 57.1701 71.194 56.9064 74.4899C56.5109 77.7858 59.0158 80.818 62.3117 81.0817C65.6075 81.4772 68.6398 78.9723 68.9034 75.6764C69.2989 72.3805 66.9259 69.4801 63.4982 69.0846Z" fill="#D75E50"/>
<path opacity="0.58" d="M63.4983 69.2165C60.2024 68.9529 57.302 71.3259 56.9065 74.6218C56.6428 77.9177 59.0158 80.8181 62.3117 81.2136C65.6076 81.4773 68.508 79.1042 68.9035 75.8083C69.1672 72.5124 66.7942 69.4802 63.4983 69.2165Z" fill="#D65D50"/>
<path opacity="0.58" d="M63.4983 69.2165C60.2024 68.9529 57.302 71.3259 57.0383 74.49C56.7747 77.7859 59.1477 80.6863 62.3118 80.9499C65.6076 81.2136 68.508 78.8406 68.7717 75.6765C69.1672 72.5124 66.7942 69.6121 63.4983 69.2165Z" fill="#D65C4F"/>
<path opacity="0.58" d="M63.4981 69.3487C60.334 69.085 57.4336 71.3262 57.0381 74.6221C56.7745 77.7862 59.0157 80.6865 62.3116 81.0821C65.4756 81.3457 68.376 79.1045 68.7715 75.8086C69.0352 72.5127 66.794 69.6123 63.4981 69.3487Z" fill="#D65B4E"/>
<path opacity="0.58" d="M63.4983 69.3482C60.3343 69.0845 57.4339 71.3257 57.1702 74.4898C56.9066 77.6539 59.1478 80.5542 62.3118 80.8179C65.4759 81.0816 68.3763 78.8404 68.6399 75.6763C69.0354 72.5123 66.6624 69.7437 63.4983 69.3482Z" fill="#D65A4D"/>
<path opacity="0.58" d="M63.4983 69.48C60.3343 69.2164 57.5657 71.4576 57.1702 74.6216C56.9066 77.7857 59.1478 80.5542 62.3118 80.9498C65.4759 81.2134 68.2444 78.9722 68.6399 75.8082C68.9036 72.6441 66.6624 69.7437 63.4983 69.48Z" fill="#D5594C"/>
<path opacity="0.58" d="M63.4983 69.48C60.3343 69.2164 57.5657 71.4576 57.3021 74.6216C57.0384 77.7857 59.2796 80.5542 62.4437 80.8179C65.6077 81.0816 68.3763 78.8404 68.6399 75.6763C68.9036 72.6441 66.6624 69.8755 63.4983 69.48Z" fill="#D5584C"/>
<path opacity="0.58" d="M63.4984 69.6121C60.4661 69.3485 57.6976 71.5897 57.3021 74.6219C57.0384 77.6541 59.2796 80.4227 62.3118 80.8182C65.3441 81.0819 68.1126 78.8406 68.5081 75.8084C68.7718 72.6444 66.5306 69.8758 63.4984 69.6121Z" fill="#D5574B"/>
<path opacity="0.58" d="M63.4986 69.6121C60.4664 69.3485 57.6978 71.5897 57.4342 74.6219C57.1705 77.6541 59.4117 80.4227 62.4439 80.6863C65.4761 80.95 68.2447 78.7088 68.5084 75.6766C68.772 72.6444 66.5308 70.0076 63.4986 69.6121Z" fill="#D5564A"/>
<path opacity="0.58" d="M63.4985 69.7439C60.4663 69.4802 57.8296 71.5896 57.5659 74.6218C57.3023 77.6541 59.4116 80.2908 62.4439 80.5544C65.4761 80.8181 68.1128 78.7087 68.3765 75.6765C68.6401 72.6443 66.5308 70.0076 63.4985 69.7439Z" fill="#D55549"/>
<path opacity="0.58" d="M63.4985 69.7439C60.4663 69.4802 57.8296 71.5896 57.5659 74.6218C57.3023 77.6541 59.4116 80.2908 62.4439 80.5544C65.4761 80.8181 68.1128 78.7087 68.3765 75.6765C68.6401 72.7761 66.3989 70.1394 63.4985 69.7439Z" fill="#D45449"/>
<path opacity="0.58" d="M63.4986 69.8755C60.5982 69.6119 57.9615 71.7212 57.6978 74.6216C57.4341 77.522 59.5435 80.1587 62.4439 80.4224C65.3443 80.6861 67.981 78.5767 68.2447 75.6763C68.5083 72.7759 66.3989 70.1392 63.4986 69.8755Z" fill="#D45348"/>
<path opacity="0.58" d="M63.4986 69.8755C60.5982 69.6119 57.9615 71.7212 57.6978 74.6216C57.4341 77.522 59.5435 80.1587 62.4439 80.4224C65.3443 80.6861 67.981 78.5767 68.2447 75.6763C68.5083 72.7759 66.3989 70.271 63.4986 69.8755Z" fill="#D45247"/>
</g>
<g opacity="0.65">
<path opacity="0.65" d="M90.92 67.3714C85.1192 66.8441 79.9776 71.0628 79.3184 76.8636C78.7911 82.6644 83.0098 87.806 88.8106 88.4651C94.6114 88.9925 99.753 84.7737 100.412 78.973C100.94 73.0403 96.7208 67.8988 90.92 67.3714Z" fill="#E5A185"/>
<path opacity="0.65" d="M90.92 67.3712C85.1192 66.8438 79.9776 71.0626 79.4503 76.7315C78.9229 82.5323 83.1417 87.6739 88.8106 88.2012C94.6114 88.7286 99.753 84.5098 100.28 78.8409C100.94 73.172 96.7208 68.0304 90.92 67.3712Z" fill="#E5A084"/>
<path opacity="0.65" d="M90.92 67.503C85.2511 66.9757 80.1095 71.0626 79.4503 76.8634C78.923 82.5323 83.0099 87.6739 88.8106 88.3331C94.4796 88.8604 99.6212 84.7735 100.28 78.9727C100.808 73.172 96.7208 68.0304 90.92 67.503Z" fill="#E59F83"/>
<path opacity="0.65" d="M90.92 67.5031C85.2511 66.9757 80.1095 71.0626 79.5822 76.7316C79.0548 82.4005 83.1417 87.5421 88.8107 88.0694C94.4796 88.5968 99.6212 84.5099 100.149 78.8409C100.808 73.172 96.589 68.1622 90.92 67.5031Z" fill="#E49E83"/>
<path opacity="0.65" d="M90.9195 67.6347C85.2506 67.1073 80.2409 71.1942 79.7135 76.8632C79.1862 82.5321 83.2731 87.5419 88.942 88.0692C94.611 88.5965 99.6207 84.5096 100.148 78.8407C100.675 73.1718 96.5885 68.162 90.9195 67.6347Z" fill="#E49D82"/>
<path opacity="0.65" d="M90.9195 67.6347C85.2506 67.1073 80.2409 71.1942 79.7135 76.8632C79.1862 82.5321 83.2731 87.5419 88.942 88.0692C94.611 88.5965 99.6207 84.5096 100.148 78.8407C100.675 73.3036 96.5885 68.162 90.9195 67.6347Z" fill="#E49C81"/>
<path opacity="0.65" d="M90.9198 67.7668C85.3827 67.2394 80.373 71.3263 79.8456 76.8634C79.3183 82.4005 83.4052 87.4103 88.9423 87.9376C94.4794 88.465 99.4891 84.3781 100.016 78.841C100.544 73.3039 96.4569 68.2941 90.9198 67.7668Z" fill="#E49B80"/>
<path opacity="0.65" d="M90.9198 67.7668C85.3827 67.2394 80.373 71.3263 79.8456 76.8634C79.3183 82.4005 83.4052 87.4103 88.9423 87.9376C94.4794 88.465 99.4891 84.3781 100.016 78.841C100.544 73.3039 96.4569 68.2941 90.9198 67.7668Z" fill="#E49A80"/>
<path opacity="0.65" d="M90.9199 67.8985C85.3828 67.3711 80.5049 71.3262 79.9776 76.8633C79.4502 82.4004 83.4053 87.2783 88.9424 87.8057C94.4795 88.333 99.3574 84.3779 99.8848 78.8408C100.412 73.3037 96.457 68.4258 90.9199 67.8985Z" fill="#E3997F"/>
<path opacity="0.65" d="M90.9199 67.8985C85.3828 67.3711 80.5049 71.3262 79.9776 76.8633C79.4502 82.4004 83.4053 87.2783 88.9424 87.8057C94.4795 88.333 99.3574 84.3779 99.8848 78.8408C100.412 73.3037 96.3252 68.4258 90.9199 67.8985Z" fill="#E3987E"/>
<path opacity="0.65" d="M90.9202 68.0303C85.5149 67.503 80.637 71.458 80.1097 76.8633C79.5823 82.2686 83.5374 87.1465 88.9427 87.6739C94.3479 88.2012 99.2259 84.2461 99.7532 78.8409C100.281 73.4356 96.3255 68.5577 90.9202 68.0303Z" fill="#E3977D"/>
<path opacity="0.65" d="M90.9202 68.0303C85.5149 67.503 80.637 71.458 80.1097 76.8633C79.5823 82.2686 83.5374 87.1465 88.9427 87.6739C94.3479 88.2012 99.2259 84.2461 99.7532 78.8409C100.281 73.4356 96.3255 68.5577 90.9202 68.0303Z" fill="#E3967C"/>
<path opacity="0.65" d="M90.9195 68.1619C85.5142 67.6346 80.7681 71.5897 80.2408 76.8631C79.7135 82.2684 83.6685 87.0145 88.942 87.5418C94.3472 88.0691 99.0933 84.1141 99.6207 78.8406C100.148 73.4354 96.1929 68.6893 90.9195 68.1619Z" fill="#E2957C"/>
<path opacity="0.65" d="M90.9195 68.1619C85.6461 67.6346 80.7681 71.5897 80.2408 76.8631C79.7135 82.1365 83.6685 87.0145 88.942 87.5418C94.2154 88.0691 99.0933 84.1141 99.6207 78.8406C100.148 73.4354 96.1929 68.6893 90.9195 68.1619Z" fill="#E2947B"/>
<path opacity="0.65" d="M90.7878 68.2942C85.5144 67.7668 80.7683 71.5901 80.241 76.9953C79.7136 82.2688 83.5369 87.0149 88.9421 87.5422C94.2156 88.0695 98.9616 84.2463 99.489 78.841C100.016 73.5676 96.1931 68.8215 90.7878 68.2942Z" fill="#E2937A"/>
<path opacity="0.65" d="M90.7881 68.2942C85.5147 67.7669 80.9004 71.5901 80.3731 76.8635C79.8457 82.137 83.669 86.7512 88.9424 87.2786C94.2158 87.8059 98.8301 83.9827 99.3574 78.7092C99.8848 73.5676 96.0615 68.8216 90.7881 68.2942Z" fill="#E29279"/>
<path opacity="0.65" d="M90.7881 68.4258C85.5147 67.8985 80.9004 71.7217 80.3731 76.9951C79.8457 82.2686 83.669 86.8828 88.9424 87.4102C94.2158 87.9375 98.8301 84.1143 99.3574 78.8408C99.8848 73.5674 96.0615 68.9531 90.7881 68.4258Z" fill="#E29179"/>
<path opacity="0.65" d="M90.7881 68.4258C85.6465 67.8985 81.0323 71.7217 80.5049 76.8633C79.9776 82.0049 83.8008 86.6192 88.9424 87.1465C94.084 87.6739 98.6983 83.8506 99.2256 78.709C99.753 73.5674 96.0616 68.9532 90.7881 68.4258Z" fill="#E19078"/>
<path opacity="0.65" d="M90.7881 68.5577C85.6465 68.0303 81.0323 71.8536 80.5049 76.9952C79.9776 82.1368 83.8008 86.751 88.9424 87.2784C94.084 87.8057 98.6983 83.9825 99.2256 78.8409C99.753 73.5674 95.9297 69.085 90.7881 68.5577Z" fill="#E18F77"/>
<path opacity="0.65" d="M90.7879 68.5577C85.6463 68.0304 81.1639 71.7218 80.6366 76.8634C80.1092 82.005 83.8006 86.4874 88.9422 87.0147C94.0838 87.5421 98.5662 83.8507 99.0936 78.7091C99.6209 73.6993 95.9295 69.085 90.7879 68.5577Z" fill="#E18E76"/>
<path opacity="0.65" d="M90.7879 68.6895C85.6463 68.1622 81.1639 71.8536 80.6366 76.9952C80.1092 82.1368 83.8006 86.6192 88.9422 87.1466C94.0838 87.6739 98.5662 83.9825 99.0936 78.8409C99.6209 73.6993 95.9295 69.2169 90.7879 68.6895Z" fill="#E18D75"/>
<path opacity="0.65" d="M90.788 68.6893C85.7782 68.162 81.2958 71.8534 80.7684 76.8631C80.2411 81.8729 83.9325 86.3553 88.9422 86.8827C93.952 87.41 98.4344 83.7186 98.9618 78.7088C99.4891 73.6991 95.7977 69.2167 90.788 68.6893Z" fill="#E18C75"/>
<path opacity="0.65" d="M90.788 68.8214C85.7782 68.2941 81.2958 71.9855 80.7684 76.9952C80.2411 82.005 83.9325 86.4874 88.9422 87.0148C93.952 87.5421 98.4344 83.8507 98.9618 78.8409C99.4891 73.6993 95.7977 69.3488 90.788 68.8214Z" fill="#E08B74"/>
<path opacity="0.65" d="M90.7882 68.8214C85.7785 68.2941 81.4279 71.9855 80.9005 76.8634C80.3732 81.8732 84.0646 86.2238 88.9425 86.7511C93.9523 87.2785 98.3029 83.5871 98.8302 78.7091C99.3576 73.8312 95.798 69.3488 90.7882 68.8214Z" fill="#E08A73"/>
<path opacity="0.65" d="M90.7882 68.9533C85.9103 68.4259 81.4279 72.1173 81.0324 76.9953C80.505 81.8732 84.1964 86.3556 89.0744 86.7511C93.9523 87.2785 98.4347 83.5871 98.8302 78.7091C99.3576 73.8312 95.6662 69.3488 90.7882 68.9533Z" fill="#E08972"/>
<path opacity="0.65" d="M90.7881 68.9534C85.9102 68.426 81.5596 71.9856 81.0322 76.9954C80.5049 81.8733 84.0645 86.2239 89.0742 86.7512C93.9521 87.2786 98.3027 83.719 98.8301 78.7092C99.2256 73.8313 95.666 69.4807 90.7881 68.9534Z" fill="#E08872"/>
<path opacity="0.65" d="M90.7881 69.085C85.9102 68.5577 81.5596 72.1172 81.1641 76.9952C80.6368 81.8731 84.1963 86.2237 89.0742 86.6192C93.9522 87.1465 98.3028 83.5869 98.6983 78.709C99.2256 73.8311 95.666 69.4805 90.7881 69.085Z" fill="#DF8771"/>
<path opacity="0.65" d="M90.7881 69.085C85.9102 68.5577 81.6915 72.1172 81.1641 76.9952C80.6368 81.8731 84.1963 86.0918 89.0742 86.6192C93.9522 87.1465 98.1709 83.5869 98.6983 78.709C99.0938 73.8311 95.5342 69.6123 90.7881 69.085Z" fill="#DF8670"/>
<path opacity="0.65" d="M90.7884 69.2169C86.0423 68.6895 81.6917 72.2491 81.2962 76.9952C80.7689 81.7413 84.3284 86.0919 89.0745 86.4874C93.8206 87.0147 98.1712 83.4551 98.5667 78.7091C99.0941 73.963 95.5345 69.6124 90.7884 69.2169Z" fill="#DF856F"/>
<path opacity="0.65" d="M90.7884 69.2169C86.0423 68.6895 81.8236 72.2491 81.2962 76.9952C80.7689 81.7413 84.3284 85.96 89.0745 86.4874C93.8206 87.0147 98.0394 83.4551 98.5667 78.7091C98.9622 73.963 95.5345 69.7442 90.7884 69.2169Z" fill="#DF846F"/>
<path opacity="0.65" d="M90.788 69.3488C86.0419 68.8214 81.8231 72.381 81.4276 76.9952C80.9003 81.7413 84.4598 85.9601 89.0741 86.3556C93.8202 86.8829 98.0389 83.3233 98.4344 78.7091C98.9618 73.963 95.4022 69.7443 90.788 69.3488Z" fill="#DF836E"/>
<path opacity="0.65" d="M90.7882 69.3487C86.0421 68.8214 81.9552 72.2491 81.4278 76.9952C80.9005 81.6094 84.3282 85.8282 89.0743 86.3555C93.8204 86.8829 97.9073 83.4551 98.4346 78.709C98.8301 73.963 95.4024 69.8761 90.7882 69.3487Z" fill="#DE826D"/>
<path opacity="0.65" d="M90.7883 69.4806C86.174 69.0851 81.9553 72.381 81.5597 76.9953C81.1642 81.6095 84.4601 85.8283 89.0744 86.2238C93.6886 86.6193 97.9074 83.3234 98.3029 78.7091C98.8302 74.0949 95.4025 69.8762 90.7883 69.4806Z" fill="#DE816C"/>
<path opacity="0.65" d="M90.7883 69.4806C86.174 69.0851 82.0871 72.381 81.5597 76.9953C81.1642 81.6095 84.4601 85.6964 89.0744 86.2238C93.6886 86.6193 97.7755 83.3234 98.3029 78.7091C98.6984 74.0949 95.2707 70.008 90.7883 69.4806Z" fill="#DE806B"/>
<path opacity="0.65" d="M90.6564 69.6125C86.0422 69.217 81.9553 72.5129 81.5597 77.1271C81.1642 81.7414 84.4601 85.8283 89.0744 86.2238C93.6886 86.6193 97.7755 83.3234 98.1711 78.7092C98.5666 74.0949 95.2707 70.008 90.6564 69.6125Z" fill="#DE7F6B"/>
<path opacity="0.65" d="M90.6564 69.6125C86.174 69.217 82.0871 72.5129 81.6916 76.9953C81.2961 81.4777 84.592 85.5646 89.0744 85.9601C93.5568 86.3556 97.6437 83.0598 98.0392 78.5773C98.5666 74.0949 95.2707 70.1398 90.6564 69.6125Z" fill="#DE7E6A"/>
<path opacity="0.65" d="M90.6564 69.7441C86.174 69.3486 82.0871 72.6445 81.6916 77.1269C81.2961 81.6093 84.592 85.6962 89.0744 86.0917C93.5568 86.4872 97.6437 83.1913 98.0392 78.7089C98.4348 74.2265 95.1389 70.1396 90.6564 69.7441Z" fill="#DD7D69"/>
<path opacity="0.65" d="M90.6564 69.7443C86.174 69.3488 82.2189 72.5128 81.8234 76.9953C81.4279 81.4777 84.5919 85.4328 89.0744 85.8283C93.5568 86.2238 97.5119 83.0597 97.9074 78.5773C98.4347 74.2267 95.1388 70.2716 90.6564 69.7443Z" fill="#DD7C68"/>
<path opacity="0.65" d="M90.6564 69.8761C86.174 69.4806 82.3507 72.6447 81.8234 77.1271C81.4279 81.6095 84.5919 85.4328 89.0744 85.9601C93.5568 86.3556 97.38 83.1915 97.9074 78.7091C98.3029 74.2267 95.1388 70.2716 90.6564 69.8761Z" fill="#DD7B68"/>
<path opacity="0.65" d="M90.6559 69.8762C86.3053 69.4806 82.3503 72.6447 81.9548 76.9953C81.5593 81.3459 84.7233 85.3009 89.0739 85.6964C93.4245 86.092 97.3796 82.9279 97.7751 78.5773C98.3024 74.2267 95.1383 70.4035 90.6559 69.8762Z" fill="#DD7A67"/>
<path opacity="0.65" d="M90.6559 70.008C86.3053 69.6125 82.4821 72.7765 81.9548 77.1271C81.5593 81.4777 84.7233 85.3009 89.0739 85.8283C93.4245 86.2238 97.2477 83.0597 97.7751 78.7091C98.1706 74.2267 95.0065 70.4035 90.6559 70.008Z" fill="#DD7A66"/>
<path opacity="0.65" d="M90.6562 70.008C86.3056 69.6125 82.4824 72.7766 82.0869 76.9953C81.6914 81.3459 84.8554 85.301 89.0742 85.6965C93.4247 86.092 97.248 82.9279 97.6435 78.7092C98.1708 74.3586 95.0068 70.4035 90.6562 70.008Z" fill="#DC7965"/>
<path opacity="0.65" d="M90.6562 70.1394C86.4375 69.7439 82.6142 72.7761 82.0869 77.1267C81.6914 81.3454 84.7236 85.1687 89.0742 85.696C93.2929 86.0915 97.1162 83.0593 97.6435 78.7087C98.039 74.3581 95.0068 70.5349 90.6562 70.1394Z" fill="#DC7864"/>
<path opacity="0.65" d="M90.6562 70.1394C86.4375 69.7439 82.6142 72.7761 82.2187 77.1267C81.8232 81.3454 84.8554 85.1687 89.206 85.5642C93.4248 85.9597 97.248 82.9275 97.6435 78.5769C98.039 74.3581 94.875 70.5349 90.6562 70.1394Z" fill="#DC7764"/>
<path opacity="0.65" d="M90.6562 70.2715C86.4375 69.876 82.7461 72.9082 82.2188 77.1269C81.8232 81.3457 84.8555 85.0371 89.0742 85.5644C93.293 85.96 96.9844 82.9277 97.5117 78.709C97.9072 74.3584 94.875 70.667 90.6562 70.2715Z" fill="#DC7663"/>
<path opacity="0.65" d="M90.6565 70.2715C86.4377 69.876 82.7463 72.9082 82.3508 77.1269C81.9553 81.3457 84.9876 85.0371 89.2063 85.4326C93.425 85.8281 97.1164 82.7959 97.5119 78.5771C97.9075 74.4902 94.8752 70.667 90.6565 70.2715Z" fill="#DB7562"/>
<path opacity="0.65" d="M90.656 70.4033C86.5691 70.0078 82.8777 73.0401 82.4822 77.127C82.0867 81.2139 85.1189 84.9053 89.2058 85.3008C93.2927 85.6963 96.9841 82.6641 97.3797 78.5772C97.7752 74.4903 94.7429 70.7989 90.656 70.4033Z" fill="#DB7461"/>
<path opacity="0.65" d="M90.656 70.4033C86.5691 70.0078 82.8777 73.0401 82.4822 77.127C82.0867 81.2139 85.1189 84.9053 89.2058 85.3008C93.2927 85.6963 96.9841 82.6641 97.3797 78.5772C97.7752 74.4903 94.7429 70.7989 90.656 70.4033Z" fill="#DB7361"/>
<path opacity="0.65" d="M90.6562 70.5353C86.5693 70.1398 83.0097 73.0402 82.6142 77.1271C82.2187 81.214 85.1191 84.7736 89.206 85.1691C93.2929 85.5646 96.8525 82.6642 97.248 78.5773C97.6435 74.4904 94.7431 70.9308 90.6562 70.5353Z" fill="#DB7260"/>
<path opacity="0.65" d="M90.6562 70.5353C86.5693 70.1398 83.0097 73.0402 82.6142 77.1271C82.2187 81.214 85.1191 84.7736 89.206 85.1691C93.2929 85.5646 96.8525 82.6642 97.248 78.5773C97.6435 74.4904 94.6113 70.9308 90.6562 70.5353Z" fill="#DB715F"/>
<path opacity="0.65" d="M90.6562 70.667C86.7011 70.2714 83.1416 73.1718 82.7461 77.1269C82.3505 81.082 85.2509 84.6415 89.206 85.0371C93.1611 85.4326 96.7207 82.5322 97.1162 78.5771C97.5117 74.622 94.6113 71.0625 90.6562 70.667Z" fill="#DA705E"/>
<path opacity="0.65" d="M90.6562 70.667C86.7011 70.2714 83.1416 73.1718 82.7461 77.1269C82.3505 81.082 85.2509 84.6415 89.206 85.0371C93.1611 85.4326 96.7207 82.5322 97.1162 78.5771C97.5117 74.622 94.6113 71.0625 90.6562 70.667Z" fill="#DA6F5D"/>
<path opacity="0.65" d="M90.6565 70.7991C86.7014 70.4036 83.2737 73.3039 82.8782 77.1272C82.4827 81.0823 85.3831 84.51 89.2063 84.9055C93.1614 85.301 96.5891 82.4006 96.9846 78.5774C97.3801 74.6223 94.4797 71.1946 90.6565 70.7991Z" fill="#DA6E5D"/>
<path opacity="0.65" d="M90.6565 70.7991C86.8332 70.4036 83.2737 73.3039 82.8782 77.1272C82.4827 80.9504 85.3831 84.51 89.2063 84.9055C93.0295 85.301 96.5891 82.4006 96.9846 78.5774C97.2483 74.6223 94.4797 71.1946 90.6565 70.7991Z" fill="#DA6D5C"/>
<path opacity="0.65" d="M90.5241 70.9309C86.7009 70.5354 83.2732 73.3039 82.8777 77.259C82.4822 81.0822 85.2507 84.51 89.2058 84.9055C93.029 85.301 96.4567 82.5324 96.8523 78.5774C97.2478 74.7541 94.4792 71.3264 90.5241 70.9309Z" fill="#DA6C5B"/>
<path opacity="0.65" d="M90.5242 70.9309C86.7009 70.5354 83.2732 73.304 82.8777 77.1272C82.4822 80.9504 85.2507 84.3782 89.074 84.7737C92.8972 85.1692 96.3249 82.4006 96.7205 78.5774C97.116 74.7542 94.3474 71.3264 90.5242 70.9309Z" fill="#D96B5A"/>
<path opacity="0.65" d="M90.5244 71.0623C86.7012 70.6668 83.4053 73.4353 83.0098 77.2586C82.6143 81.0818 85.3828 84.3777 89.2061 84.7732C93.0293 85.1687 96.3252 82.4001 96.7207 78.5769C97.1162 74.7537 94.3477 71.4578 90.5244 71.0623Z" fill="#D96A5A"/>
<path opacity="0.65" d="M90.5245 71.0623C86.8331 70.6668 83.4053 73.4353 83.1416 77.1267C82.7461 80.8181 85.5147 84.2459 89.2061 84.5096C92.8975 84.9051 96.3252 82.1365 96.5889 78.4451C96.9844 74.7537 94.3477 71.4578 90.5245 71.0623Z" fill="#D96959"/>
<path opacity="0.65" d="M90.5245 71.1943C86.8331 70.7988 83.5372 73.4355 83.1416 77.1269C82.7461 80.8183 85.5147 84.1142 89.2061 84.5097C92.8975 84.9052 96.1934 82.1367 96.5889 78.4453C96.9844 74.7539 94.2159 71.458 90.5245 71.1943Z" fill="#D96858"/>
<path opacity="0.65" d="M90.5247 71.1944C86.8333 70.7989 83.5374 73.5675 83.2738 77.127C82.8783 80.8184 85.6468 84.1143 89.2064 84.378C92.8978 84.7735 96.1937 82.005 96.4573 78.4454C96.8529 74.8858 94.2161 71.5899 90.5247 71.1944Z" fill="#D86757"/>
<path opacity="0.65" d="M90.5244 71.3261C86.833 70.9306 83.6689 73.5673 83.2734 77.2587C82.8779 80.9501 85.5146 84.1142 89.206 84.5097C92.8974 84.9052 96.0615 82.2685 96.457 78.5771C96.8525 74.8857 94.2158 71.5898 90.5244 71.3261Z" fill="#D86657"/>
<path opacity="0.65" d="M90.5244 71.3262C86.9648 70.9307 83.6689 73.5674 83.4053 77.1269C83.0098 80.6865 85.6465 83.9824 89.206 84.2461C92.7656 84.6416 96.0615 82.0049 96.3252 78.4453C96.7207 74.8857 94.084 71.7217 90.5244 71.3262Z" fill="#D86556"/>
<path opacity="0.65" d="M90.5244 71.4582C86.9648 71.0627 83.8008 73.6995 83.4053 77.259C83.0098 80.8186 85.6465 83.9826 89.206 84.3781C92.7656 84.7737 95.9297 82.1369 96.3252 78.5774C96.7207 74.886 94.084 71.7219 90.5244 71.4582Z" fill="#D86455"/>
<path opacity="0.65" d="M90.5246 71.4582C86.9651 71.0627 83.9329 73.6995 83.5373 77.259C83.1418 80.8186 85.7786 83.8508 89.3381 84.2463C92.8977 84.6418 95.9299 82.0051 96.3254 78.4455C96.5891 75.0178 94.0842 71.8537 90.5246 71.4582Z" fill="#D86354"/>
<path opacity="0.65" d="M90.5247 71.5896C87.097 71.1941 83.9329 73.8308 83.5374 77.2586C83.1419 80.6863 85.7786 83.8504 89.2063 84.2459C92.6341 84.6414 95.7981 82.0047 96.1936 78.5769C96.5891 75.0174 93.9524 71.8533 90.5247 71.5896Z" fill="#D76253"/>
<path opacity="0.65" d="M90.5245 71.5899C87.0967 71.1944 84.0645 73.6993 83.669 77.2588C83.2735 80.6866 85.7784 83.7188 89.3379 84.1143C92.7657 84.5098 95.7979 82.0049 96.1934 78.4453C96.4571 75.0176 93.9522 71.9854 90.5245 71.5899Z" fill="#D76153"/>
<path opacity="0.65" d="M90.524 71.7215C87.0963 71.326 84.064 73.8309 83.8004 77.2586C83.4049 80.6864 85.9098 83.7186 89.3375 83.9822C92.7652 84.3778 95.7974 81.8729 96.0611 78.4451C96.4566 75.0174 93.9517 71.9852 90.524 71.7215Z" fill="#D76052"/>
<path opacity="0.65" d="M90.524 71.7215C87.0963 71.326 84.1959 73.8309 83.8004 77.2586C83.4049 80.6864 85.9098 83.5867 89.3375 83.9822C92.7652 84.3778 95.6656 81.8729 96.0611 78.4451C96.3248 75.1492 93.8199 72.117 90.524 71.7215Z" fill="#D75F51"/>
<path opacity="0.65" d="M90.5243 71.8536C87.2284 71.4581 84.1962 73.963 83.9325 77.2589C83.537 80.5548 86.0419 83.587 89.3378 83.8507C92.6337 84.2462 95.6659 81.7413 95.9296 78.4454C96.3251 75.1495 93.8202 72.1173 90.5243 71.8536Z" fill="#D75E50"/>
<path opacity="0.65" d="M90.5244 71.8537C87.2285 71.5901 84.3281 73.9631 83.9326 77.259C83.6689 80.5549 86.042 83.4553 89.3379 83.8508C92.6338 84.1145 95.5341 81.7414 95.9297 78.4455C96.1933 75.1496 93.8203 72.2492 90.5244 71.8537Z" fill="#D65D50"/>
<path opacity="0.65" d="M90.5244 71.9853C87.2285 71.7217 84.3281 74.0947 84.0644 77.2588C83.8008 80.5547 86.1738 83.4551 89.3379 83.7187C92.6338 83.9824 95.5342 81.6094 95.7978 78.4453C96.1933 75.1494 93.6885 72.249 90.5244 71.9853Z" fill="#D65C4F"/>
<path opacity="0.65" d="M90.5242 71.9854C87.3601 71.7217 84.4598 73.9629 84.0642 77.2588C83.8006 80.4229 86.0418 83.3233 89.3377 83.7188C92.5017 83.9824 95.4021 81.7412 95.7976 78.4453C96.0613 75.1494 93.6883 72.3809 90.5242 71.9854Z" fill="#D65B4E"/>
<path opacity="0.65" d="M90.5245 72.1172C87.3604 71.8536 84.46 74.0948 84.1963 77.2588C83.9327 80.4229 86.1739 83.3233 89.3379 83.587C92.502 83.8506 95.4024 81.6094 95.6661 78.4454C95.9297 75.2813 93.6885 72.3809 90.5245 72.1172Z" fill="#D65A4D"/>
<path opacity="0.65" d="M90.5245 72.1172C87.3604 71.8536 84.5919 74.0948 84.1963 77.2588C83.9327 80.4229 86.1739 83.1915 89.3379 83.587C92.502 83.8506 95.2705 81.6094 95.6661 78.4454C95.9297 75.2813 93.5567 72.5128 90.5245 72.1172Z" fill="#D5594C"/>
<path opacity="0.65" d="M90.3926 72.2491C87.2286 71.9854 84.46 74.2266 84.1963 77.3907C83.9327 80.5547 86.1739 83.3233 89.3379 83.587C92.502 83.8506 95.2706 81.6094 95.5342 78.4454C95.7979 75.2813 93.5567 72.5128 90.3926 72.2491Z" fill="#D5584C"/>
<path opacity="0.65" d="M90.3926 72.2491C87.3604 71.9854 84.5919 74.2266 84.1964 77.2589C83.9327 80.2911 86.1739 83.0596 89.2061 83.4551C92.2384 83.7188 95.0069 81.4776 95.4024 78.4454C95.7979 75.2813 93.5567 72.5128 90.3926 72.2491Z" fill="#D5574B"/>
<path opacity="0.65" d="M90.3926 72.3812C87.3604 72.1175 84.5919 74.3587 84.3282 77.3909C84.0645 80.4232 86.3057 83.1917 89.338 83.4554C92.3702 83.7191 95.1387 81.4778 95.4024 78.4456C95.6661 75.4134 93.5567 72.6449 90.3926 72.3812Z" fill="#D5564A"/>
<path opacity="0.65" d="M90.3926 72.3809C87.3604 72.1172 84.7236 74.2266 84.46 77.2588C84.1963 80.291 86.3057 82.9277 89.3379 83.1914C92.3701 83.4551 95.0068 81.3457 95.2705 78.3135C95.666 75.4131 93.4248 72.6445 90.3926 72.3809Z" fill="#D55549"/>
<path opacity="0.65" d="M90.3926 72.5127C87.4922 72.1171 84.8555 74.3584 84.46 77.2587C84.1963 80.291 86.3057 82.9277 89.3379 83.1914C92.3701 83.455 95.0068 81.3457 95.2705 78.3134C95.5342 75.413 93.4248 72.7763 90.3926 72.5127Z" fill="#D45449"/>
<path opacity="0.65" d="M90.3928 72.513C87.4925 72.2493 84.8557 74.3587 84.5921 77.2591C84.3284 80.1595 86.4378 82.7962 89.3382 83.0598C92.2386 83.3235 94.8753 81.2141 95.1389 78.3138C95.5345 75.4134 93.4251 72.7766 90.3928 72.513Z" fill="#D45348"/>
<path opacity="0.65" d="M90.3928 72.6446C87.4925 72.3809 84.8557 74.4903 84.5921 77.3907C84.3284 80.291 86.4378 82.9278 89.3382 83.1914C92.2386 83.4551 94.8753 81.3457 95.1389 78.4453C95.4026 75.4131 93.2932 72.9082 90.3928 72.6446Z" fill="#D45247"/>
</g>
<path d="M59.5425 63.8112C59.5425 63.8112 55.8511 67.2389 59.4106 70.1393C62.5747 72.776 68.771 72.1169 68.771 72.1169C68.771 72.1169 64.2885 58.5378 59.5425 63.8112Z" fill="white"/>
<path d="M83.2734 72.5127C83.2734 72.5127 85.3828 73.6993 88.8105 74.6221C93.0293 75.6768 96.5889 72.5127 96.5889 67.2393C96.5889 67.1075 88.6787 63.2842 83.2734 72.5127Z" fill="white"/>
<path d="M59.938 56.4285L60.4653 57.3514C60.4653 57.3514 66.2661 53.7918 71.144 61.9656L71.935 58.8016C71.935 58.8016 67.3208 51.2869 59.938 56.4285Z" fill="#381911"/>
<path d="M84.1958 59.988L84.3276 63.2839C90.7876 56.1648 95.7974 60.7791 95.7974 60.7791L96.5884 59.988C90.1284 53.5281 84.1958 59.988 84.1958 59.988Z" fill="#381911"/>
<path d="M64.9478 79.7634C64.9478 79.7634 64.5523 90.574 74.8355 91.365C84.3277 92.156 87.7554 81.741 87.7554 81.741C73.2535 91.365 64.9478 79.7634 64.9478 79.7634Z" fill="#6C332E"/>
<path d="M84.1963 83.7187C75.7588 87.6738 69.8262 84.2461 66.9258 81.873C66.5303 82.6641 66.1348 83.4551 65.6074 84.2461C66.6621 87.2783 69.0351 90.8379 74.7041 91.3652C79.4502 91.7607 82.7461 89.2558 84.7236 86.751C84.4599 85.8281 84.1963 84.7734 84.1963 83.7187Z" fill="white"/>
<path opacity="0.3" d="M84.1963 83.7187C75.7588 87.6738 69.8262 84.2461 66.9258 81.873C66.5303 82.6641 66.1348 83.4551 65.6074 84.2461C65.8711 85.0371 66.2666 85.8281 66.6621 86.6191C67.8486 85.8281 69.167 85.8281 70.6172 85.8281C71.4082 85.8281 73.3857 85.96 74.8359 86.2236C77.4726 86.751 79.7139 87.8057 81.164 89.7832C82.6142 88.9922 83.8008 87.8057 84.5918 86.751C84.4599 85.8281 84.1963 84.7734 84.1963 83.7187Z" fill="#D8CDBA"/>
<path d="M78.9225 67.2393L76.0221 67.5029C76.0221 67.5029 76.9449 70.0078 75.0992 71.9853C75.0992 71.9853 68.9029 71.458 69.4303 77.1269C70.7486 82.4004 80.7682 82.664 80.109 73.1719C80.109 70.9307 79.1861 68.6895 78.9225 67.2393Z" fill="#E5A185"/>
<path opacity="0.1" d="M76.0225 67.5029C76.0225 67.5029 76.9453 70.0078 75.0996 71.9853C75.0996 71.9853 70.2217 71.5898 69.5625 75.4131C71.4082 76.0723 73.2539 76.3359 75.2314 76.3359C77.3408 73.6992 78.791 70.4033 77.8682 67.2393L76.0225 67.5029Z" fill="white"/>
<path d="M69.4307 77.1267C69.4307 77.2585 69.4307 77.2585 69.4307 77.2585C70.4854 81.4773 77.209 82.532 79.4502 77.7859C76.1543 78.7087 72.7266 78.5769 69.4307 77.1267Z" fill="#D78C74"/>
<path d="M66.0024 65.1296C65.8706 64.8659 65.6069 64.6022 65.3433 64.4704C63.8931 63.5476 62.5747 65.5251 62.1792 66.5798C61.3882 68.5573 61.6519 70.5349 62.8384 70.9304C64.9478 71.8532 67.189 68.2936 66.7935 66.4479C66.6616 66.0524 66.5298 65.7888 66.398 65.5251C66.1343 65.5251 66.1343 65.2614 66.0024 65.1296Z" fill="url(#paint9_linear)"/>
<path d="M92.5017 66.8436C91.3152 66.3163 89.6013 67.5028 88.8103 69.3485C88.0193 71.326 88.283 73.3036 89.4695 73.6991C90.656 74.2264 92.3699 73.0399 93.1609 71.1942C93.9519 69.3485 93.6882 67.371 92.5017 66.8436Z" fill="url(#paint10_linear)"/>
<path d="M63.8935 60.7793C60.5977 59.3291 58.2246 63.4161 58.2246 63.4161L57.6973 62.2295L56.2471 63.8116L58.2246 65.6573C58.2246 65.6573 60.334 61.9659 62.8389 62.7569C65.3437 63.6797 68.9033 72.1172 68.9033 72.1172C68.9033 72.1172 67.1894 62.3614 63.8935 60.7793Z" fill="#381911"/>
<path d="M97.9072 66.8435C97.9072 66.8435 95.2705 63.6794 90.5244 64.4705C85.7783 65.2615 83.2734 72.6443 83.2734 72.6443C83.2734 72.6443 87.0967 68.1619 91.0517 66.9753C94.4795 66.0525 96.457 69.4802 96.457 69.4802L100.28 67.7664L99.4892 65.1296L97.9072 66.8435Z" fill="#381911"/>
<path d="M113.068 49.3093C113.068 49.3093 103.444 16.7459 78.2636 21.8875C61.2568 25.447 48.9961 41.0037 41.7451 61.8337C55.0605 48.1228 83.0097 51.946 100.939 46.0134C95.1386 60.6472 105.949 72.6443 115.705 83.4548C117.683 85.5642 119.001 87.8054 119.924 90.1784C122.824 70.0075 120.056 48.6501 113.068 49.3093Z" fill="#FCCE83"/>
<path opacity="0.36" d="M99.2256 54.8467C99.3574 58.2744 100.148 61.4385 101.599 64.6025C107.795 65.1299 114.123 64.4707 120.319 62.7568C120.056 61.1748 119.792 59.5928 119.528 58.2744C112.673 59.3291 105.686 58.1426 99.2256 54.8467Z" fill="white"/>
<path opacity="0.36" d="M77.8677 22.0195C71.144 23.4697 65.2114 26.7656 59.938 31.6435C61.7837 38.8945 66.1343 45.4863 71.5395 50.7597C77.8677 49.9687 84.1958 49.4414 90.2602 48.5185C83.2729 41.9267 76.5493 31.5117 77.8677 22.0195Z" fill="white"/>
<path d="M110.036 70.5349C107.399 69.3484 103.84 71.4578 102.126 75.4129C100.412 79.3679 101.203 83.5867 103.84 84.7732C106.476 85.9597 110.036 83.8503 111.75 79.8953C113.464 75.9402 112.805 71.7215 110.036 70.5349Z" fill="#E5A185"/>
<path d="M102.521 79.7634C97.9067 90.4421 86.8325 99.5388 75.3628 100.198C69.562 100.462 64.4204 98.4841 59.938 95.3201C63.3657 99.2751 68.1118 101.912 74.3081 102.703C85.2505 103.758 96.7202 95.1882 102.785 83.8503C103.18 84.2458 103.576 84.5095 103.971 84.7732C106.476 85.9597 109.772 83.9822 111.618 80.4226C111.618 80.4226 109.376 82.0046 108.322 82.2683C105.685 82.7957 104.235 81.6091 102.521 79.7634Z" fill="#D78C74"/>
<path d="M104.63 77.3906L107.399 78.0498C107.663 74.0947 110.827 73.04 110.827 73.04C106.081 70.9306 104.63 77.3906 104.63 77.3906Z" fill="#D78C74"/>
<path d="M63.498 68.0302C63.498 68.5575 62.9707 69.0849 62.1797 69.2167C61.3887 69.3485 60.8613 69.0849 60.8613 68.5575C60.8613 68.0302 61.3887 67.5028 62.1797 67.371C62.8389 67.2392 63.498 67.5028 63.498 68.0302Z" fill="white"/>
<path d="M90.2603 70.5351C90.2603 71.0624 89.7329 71.5897 88.9419 71.7216C88.1509 71.8534 87.6235 71.5897 87.6235 71.0624C87.6235 70.5351 88.1509 70.0077 88.9419 69.8759C89.6011 69.744 90.2603 70.0077 90.2603 70.5351Z" fill="white"/>
<path d="M64.9482 79.7634C64.9482 79.7634 67.9805 82.6638 74.4404 83.323C80.9004 83.9822 87.624 81.741 87.624 81.741C87.624 81.741 82.4824 86.6189 74.7041 85.5642C67.0576 84.5095 64.9482 79.7634 64.9482 79.7634Z" fill="#DD6464"/>
<path d="M64.948 79.7634C64.948 79.7634 65.8709 88.8601 73.781 89.9148C80.7683 90.7058 87.7556 81.741 87.7556 81.741C87.7556 81.741 84.7234 93.4744 73.9129 92.6833C62.4432 91.7605 64.948 79.7634 64.948 79.7634Z" fill="#EA7171"/>
<path opacity="0.37" d="M72.9898 93.7383C73.5172 93.8701 74.1763 93.8701 74.8355 93.8701C75.6265 93.8701 76.2857 94.6611 76.022 95.4521C75.7584 96.1113 75.231 96.7705 73.7808 96.7705C72.4625 96.7705 71.8033 95.9795 71.5396 95.3203C71.4078 94.5293 72.1988 93.7383 72.9898 93.7383Z" fill="#D78C74"/>
<path d="M50.0942 139.727L51.4825 135.562M51.4825 135.562L49.1686 135.1L50.5569 130.472L51.0197 130.621M51.4825 135.562L60.0283 138.163M60.0283 138.163L62.1264 138.802L63.2063 135.562M60.0283 138.163L58.4242 143.43M62.1264 134.191L63.5148 134.637L63.2063 135.562M62.1264 134.191L64.4403 120.291M62.1264 134.191L51.0197 130.621M51.0197 130.621L55.0062 120.291M64.9031 110.109C59.3498 110.85 56.1103 116.897 55.1847 119.828L55.0062 120.291M64.9031 110.109C66.1372 115.2 70.9193 125.289 80.1749 124.918C91.7444 124.456 91.7444 118.439 91.7444 116.588M64.9031 110.109L68.1426 109.184C69.6852 113.503 74.7141 121.957 82.4888 121.216C90.2635 120.476 86.9623 112.578 84.3399 108.721H88.0421C88.1482 108.863 88.2597 109.017 88.3751 109.184M91.7444 116.588C91.7444 114.879 89.7705 111.195 88.3751 109.184M91.7444 116.588C93.5955 122.142 95.9094 122.604 98.2233 124.456C100.074 125.937 101.463 127.541 101.926 128.158M88.3751 109.184C90.2695 109.03 94.6136 109.091 96.8349 110.572C99.3619 112.257 102.656 117.008 104.623 120.291M107.479 125.381C107.325 125.073 106.646 123.808 105.165 121.216C104.999 120.925 104.817 120.615 104.623 120.291M107.479 125.381L101.926 128.158M107.479 125.381L110.256 130.472L108.139 131.397M101.926 128.158C102.662 129.171 103.774 131.054 104.391 133.037M103.314 142.967C103.468 142.196 103.962 139.912 104.702 136.951C105 135.758 104.808 134.374 104.391 133.037M104.391 133.037L108.139 131.397M108.139 131.397L112.107 138.802M63.2063 135.562L66.7542 145.743M55.0062 120.291C50.5921 119.519 40.746 115.663 36.6736 106.407C32.6011 97.1516 36.8278 77.5606 39.4502 68.922C41.9185 59.975 49.4465 40.0446 59.8127 31.8997C72.7706 21.7185 85.2656 18.479 97.2979 25.8835C106.924 31.8071 111.798 44.0862 113.032 49.4852C115.192 49.6395 119.696 52.9098 120.437 64.757C121.362 79.5659 121.203 112.423 104.623 120.291" stroke="white" stroke-width="1.77"/>
<defs>
<linearGradient id="paint0_linear" x1="82.4208" y1="3.19763" x2="75.8569" y2="152.566" gradientUnits="userSpaceOnUse">
<stop stop-color="#7521FF"/>
<stop offset="1" stop-color="#F471FF"/>
</linearGradient>
<linearGradient id="paint1_linear" x1="82.6121" y1="-2.67182" x2="75.5433" y2="158.187" gradientUnits="userSpaceOnUse">
<stop stop-color="#7521FF"/>
<stop offset="1" stop-color="#F471FF"/>
</linearGradient>
<linearGradient id="paint2_linear" x1="82.2364" y1="8.8427" x2="76.1582" y2="147.16" gradientUnits="userSpaceOnUse">
<stop stop-color="#E021FF"/>
<stop offset="1" stop-color="#FF7171"/>
</linearGradient>
<linearGradient id="paint3_linear" x1="98.7711" y1="108.467" x2="97.3965" y2="135.961" gradientUnits="userSpaceOnUse">
<stop stop-color="#EC0EFF"/>
<stop offset="1" stop-color="#5C23B9"/>
</linearGradient>
<linearGradient id="paint4_linear" x1="102.846" y1="125.264" x2="102.355" y2="162.226" gradientUnits="userSpaceOnUse">
<stop stop-color="#21D1FF"/>
<stop offset="1" stop-color="#993CFE"/>
</linearGradient>
<linearGradient id="paint5_linear" x1="82.8191" y1="107.87" x2="81.3463" y2="147.198" gradientUnits="userSpaceOnUse">
<stop stop-color="#EC0EFF"/>
<stop offset="1" stop-color="#5C23B9"/>
</linearGradient>
<linearGradient id="paint6_linear" x1="57.8952" y1="109.301" x2="55.7282" y2="137.162" gradientUnits="userSpaceOnUse">
<stop stop-color="#EC0EFF"/>
<stop offset="1" stop-color="#5C23B9"/>
</linearGradient>
<linearGradient id="paint7_linear" x1="56.6308" y1="130.188" x2="56.2928" y2="160.196" gradientUnits="userSpaceOnUse">
<stop stop-color="#21D1FF"/>
<stop offset="1" stop-color="#993CFE"/>
</linearGradient>
<linearGradient id="paint8_linear" x1="78.9013" y1="108.121" x2="78.2329" y2="165.398" gradientUnits="userSpaceOnUse">
<stop stop-color="#21D1FF"/>
<stop offset="1" stop-color="#993CFE"/>
</linearGradient>
<linearGradient id="paint9_linear" x1="62.7613" y1="71.6129" x2="66.1142" y2="62.6716" gradientUnits="userSpaceOnUse">
<stop stop-color="#68AAAA"/>
<stop offset="1"/>
</linearGradient>
<linearGradient id="paint10_linear" x1="89.4061" y1="75.0873" x2="92.2909" y2="66.3426" gradientUnits="userSpaceOnUse">
<stop stop-color="#68AAAA"/>
<stop offset="1"/>
</linearGradient>
</defs>
</svg>
