<svg width="135" height="136" viewBox="0 0 135 136" fill="none" xmlns="http://www.w3.org/2000/svg">
<path d="M67.5 135C104.779 135 135 104.779 135 67.5C135 30.2208 104.779 0 67.5 0C30.2208 0 0 30.2208 0 67.5C0 104.779 30.2208 135 67.5 135Z" fill="url(#paint0_linear)"/>
<path d="M115.925 75.4543L117.407 79.4598L121.413 80.9419L117.407 82.4241L115.925 86.4295L114.443 82.4241L110.438 80.9419L114.443 79.4598L115.925 75.4543Z" fill="white"/>
<path d="M10.9751 82.3137L11.5309 83.8158L13.0329 84.3716L11.5309 84.9274L10.9751 86.4294L10.4193 84.9274L8.91724 84.3716L10.4193 83.8158L10.9751 82.3137Z" fill="white"/>
<path d="M32.2394 18.5208L32.9805 20.5235L34.9832 21.2645L32.9805 22.0056L32.2394 24.0083L31.4983 22.0056L29.4956 21.2645L31.4983 20.5235L32.2394 18.5208Z" fill="white"/>
<path d="M115.925 48.7024L116.667 50.7051L118.669 51.4462L116.667 52.1873L115.925 54.19L115.184 52.1873L113.182 51.4462L115.184 50.7051L115.925 48.7024Z" fill="white"/>
<path d="M100.834 115.239L101.205 116.241L102.206 116.611L101.205 116.982L100.834 117.983L100.464 116.982L99.4624 116.611L100.464 116.241L100.834 115.239Z" fill="white"/>
<path d="M19.2067 43.9006L20.5035 47.4054L24.0083 48.7023L20.5035 49.9991L19.2067 53.5039L17.9098 49.9991L14.405 48.7023L17.9098 47.4054L19.2067 43.9006Z" fill="white"/>
<path d="M114.554 102.206L114.924 103.207L115.925 103.578L114.924 103.948L114.554 104.95L114.183 103.948L113.182 103.578L114.183 103.207L114.554 102.206Z" fill="white"/>
<path d="M94.7029 117.729L85.8699 121.816L89.1658 131.572C92.8572 130.385 96.4167 128.803 99.7126 126.958L94.7029 117.729Z" fill="#E7A387"/>
<path d="M100.636 37.3096C100.636 37.3096 91.0117 4.74612 65.8311 9.88772C40.6505 15.1611 25.6212 46.8017 22.3253 83.1884C20.0841 107.446 52.252 110.61 52.252 110.61C52.252 110.61 92.4619 119.18 101.69 99.2724C111.71 77.2558 110.392 36.5185 100.636 37.3096Z" fill="#EFC577"/>
<path d="M74.1365 97.4267C74.1365 97.4267 80.3328 95.9765 85.2107 99.1405C90.0886 102.305 97.7351 118.389 97.7351 118.389C97.7351 118.389 84.156 124.321 84.156 123.926C84.156 123.662 74.1365 97.4267 74.1365 97.4267Z" fill="url(#paint1_linear)"/>
<path d="M82.574 119.575C83.4968 122.212 84.156 123.926 84.156 124.058C84.156 124.321 97.7351 118.521 97.7351 118.521C97.7351 118.521 96.6804 116.411 95.2302 113.511C91.0115 115.488 86.7927 117.466 82.574 119.575Z" fill="url(#paint2_linear)"/>
<path d="M88.5063 130.122C88.2426 129.067 88.1108 128.408 88.1108 128.408C88.1108 128.408 88.3745 128.276 88.6381 127.881C87.0561 124.189 85.3422 120.366 83.7602 116.675C82.1782 112.983 80.5962 109.292 79.146 105.6C78.4868 104.282 77.8276 102.964 77.0366 101.645C76.1137 100.063 75.0591 98.6131 74.268 96.8993C69.3901 96.7674 61.48 96.8993 53.0425 97.8221C51.5923 102.173 50.4058 106.655 48.4282 110.874C48.2964 111.138 48.1646 111.533 48.0327 111.797C49.8784 117.334 51.856 123.926 53.5698 129.99H88.5063V130.122Z" fill="#E5A185"/>
<path d="M83.1015 111.006C79.4101 108.764 78.6191 97.4265 72.6865 96.7673C72.5547 98.8767 76.1142 106.128 74.7959 107.578C73.2138 109.292 70.9726 110.478 68.5996 110.61C66.0947 110.61 64.1172 109.687 62.0078 108.237C58.4482 105.732 56.6025 101.645 54.8887 97.6902C54.2295 97.6902 53.7021 97.822 53.043 97.822C51.5928 102.173 50.4062 106.655 48.4287 110.874C48.2969 111.137 47.2422 112.192 47.1104 112.456C49.2197 118.916 51.9883 126.826 54.0976 133.681C58.5801 134.604 63.0625 135.132 67.8086 135.132C75.8506 135.132 83.6289 133.681 90.748 131.176C91.0117 129.858 91.2753 128.408 91.8027 126.826C92.7255 123.134 92.1982 116.675 83.1015 111.006Z" fill="url(#paint3_linear)"/>
<path opacity="0.08" d="M67.4128 124.717C61.0847 123.794 52.779 121.289 48.2966 116.147C50.1423 121.816 52.2517 128.144 54.0974 133.681C58.5798 134.604 63.0622 135.132 67.8083 135.132C75.8503 135.132 83.6286 133.681 90.7478 131.176C91.0114 129.858 91.2751 128.408 91.8024 126.826C92.0661 126.035 92.198 124.98 92.0661 123.926C84.0241 125.639 75.8503 125.903 67.4128 124.717Z" fill="black"/>
<path d="M37.4858 127.881C40.1226 129.199 42.8911 130.386 45.7915 131.309C47.769 125.903 49.4829 119.971 50.0102 114.038L42.4956 112.72C42.4956 112.852 40.6499 119.971 37.4858 127.881Z" fill="#E7A387"/>
<path d="M44.0776 104.546C41.7046 109.292 37.4858 122.344 37.4858 122.344L49.7466 125.244L52.9106 97.9542C53.0425 97.8223 47.1099 98.4815 44.0776 104.546Z" fill="url(#paint4_linear)"/>
<path d="M51.1973 122.476L38.1455 118.389L36.6953 123.003L49.7471 126.958C49.8789 126.958 51.3291 122.607 51.1973 122.476Z" fill="url(#paint5_linear)"/>
<path d="M71.7632 96.5039C71.7632 96.5039 79.4096 108.633 69.1264 109.16C60.5571 109.556 55.5474 97.2949 55.5474 97.2949L52.647 97.8223C52.647 97.8223 55.811 115.752 71.2358 112.456C86.5288 109.16 75.5864 96.7676 75.5864 96.7676L71.7632 96.5039Z" fill="url(#paint6_linear)"/>
<path d="M39.0681 52.7342C36.1677 53.3933 34.5857 57.3484 35.5086 61.5671C36.4314 65.7859 39.4636 68.5545 42.2322 67.8953C45.1326 67.2361 46.7146 63.281 45.7917 59.0623C45.0007 54.9754 41.9685 52.075 39.0681 52.7342Z" fill="#D78C74"/>
<path d="M65.5669 79.365C62.271 79.1014 59.3706 81.8699 59.1069 85.5613L57.9204 100.722C61.6118 100.591 65.1714 100.591 68.7309 100.459C69.1265 100.459 69.522 100.459 69.9175 100.459L70.9722 86.4842C71.3677 82.9246 68.8628 79.6287 65.5669 79.365Z" fill="#E5A185"/>
<path d="M65.5674 79.365C62.2715 79.1014 59.3711 81.8699 59.1074 85.5613L58.4482 93.867C60.8213 94.9217 63.1943 95.7127 66.0947 95.7127C67.6767 95.7127 68.9951 95.5808 70.3135 95.3172L70.9726 86.4842C71.3682 82.9246 68.8633 79.6287 65.5674 79.365Z" fill="#D78C74"/>
<path d="M73.0821 21.621C70.0499 21.3573 67.0177 21.4891 64.1173 22.1483C57.5255 23.7303 52.1202 27.6854 47.7697 33.0907C46.5831 34.5409 45.3966 36.2547 44.4738 37.9686C44.4738 38.1004 44.3419 38.1004 44.3419 38.2323C36.0363 53.3934 37.4865 87.9344 61.8761 90.5711C76.378 92.1531 91.8028 76.7283 94.1759 60.6444C96.6807 44.1649 90.88 23.4667 73.0821 21.621Z" fill="#E5A185"/>
<path opacity="0.1" d="M73.0818 21.621C70.0495 21.3573 67.0173 21.4891 64.1169 22.1483C57.5251 23.7303 52.1199 27.6854 47.7693 33.0907C46.5828 34.5409 45.3962 36.2547 44.4734 37.9686C44.4734 38.1004 44.3415 38.1005 44.3415 38.2323C42.4958 41.5282 41.1775 45.6151 40.3865 50.2293C52.779 40.2098 70.9724 46.2743 84.8151 39.5506C80.9919 44.5604 85.8698 54.3163 88.9021 56.8211C91.1433 58.4032 91.9343 58.6668 94.1755 59.5897C96.4167 43.242 90.4841 23.4667 73.0818 21.621Z" fill="black"/>
<g opacity="0.58">
<path opacity="0.58" d="M51.5926 52.6024C45.7918 52.075 40.6502 56.2938 39.991 62.0945C39.4637 67.8953 43.6824 73.0369 49.4832 73.6961C55.284 74.2234 60.4256 70.0047 61.0848 64.2039C61.6121 58.4031 57.3934 53.2615 51.5926 52.6024Z" fill="#E5A185"/>
<path opacity="0.58" d="M51.5933 52.7342C45.7926 52.2069 40.651 56.4256 40.1236 62.0946C39.5963 67.8953 43.815 73.0369 49.484 73.5643C55.2847 74.0916 60.4263 69.8729 60.9537 64.2039C61.481 58.4032 57.2623 53.2616 51.5933 52.7342Z" fill="#E5A084"/>
<path opacity="0.58" d="M51.4613 52.7342C45.7923 52.2069 40.6507 56.2938 39.9916 62.0946C39.4642 67.7635 43.5511 72.9051 49.3519 73.5643C55.0208 74.0916 60.1624 70.0047 60.8216 64.2039C61.4808 58.535 57.262 53.3934 51.4613 52.7342Z" fill="#E59F83"/>
<path opacity="0.58" d="M51.4613 52.8656C45.7924 52.3383 40.6508 56.4252 40.1234 62.0941C39.5961 67.7631 43.683 72.9046 49.3519 73.432C55.0209 73.9593 60.1625 69.8724 60.6898 64.2035C61.349 58.5345 57.2621 53.393 51.4613 52.8656Z" fill="#E49E83"/>
<path opacity="0.58" d="M51.4615 52.8656C45.7926 52.3383 40.7828 56.4252 40.2555 62.0941C39.7282 67.7631 43.8151 72.7728 49.484 73.3002C55.1529 73.8275 60.1627 69.7406 60.6901 64.0716C61.3492 58.5345 57.1305 53.5248 51.4615 52.8656Z" fill="#E49D82"/>
<path opacity="0.58" d="M51.4615 52.9977C45.7926 52.4703 40.7828 56.5573 40.2555 62.2262C39.7282 67.8951 43.8151 72.9049 49.484 73.4322C55.1529 73.9596 60.1627 69.8727 60.69 64.2037C61.2174 58.5348 57.1305 53.525 51.4615 52.9977Z" fill="#E49C81"/>
<path opacity="0.58" d="M51.4611 52.9977C45.924 52.4704 40.9142 56.5573 40.3869 62.0944C39.8595 67.6315 43.9464 72.6413 49.4835 73.1686C55.0206 73.6959 60.0304 69.609 60.5578 64.0719C61.2169 58.5348 57.13 53.6569 51.4611 52.9977Z" fill="#E49B80"/>
<path opacity="0.58" d="M51.4611 53.1295C45.924 52.6022 40.9142 56.6891 40.3869 62.2262C39.8595 67.7633 43.9464 72.7731 49.4835 73.3004C55.0206 73.8278 60.0304 69.7409 60.5578 64.2038C61.0851 58.6667 56.9982 53.6569 51.4611 53.1295Z" fill="#E49A80"/>
<path opacity="0.58" d="M51.4612 53.1294C45.9241 52.6021 41.0462 56.5571 40.5188 62.0942C39.9915 67.6314 43.9465 72.5093 49.4837 73.0366C55.0208 73.564 59.8987 69.6089 60.426 64.0718C61.0852 58.6665 56.9983 53.7886 51.4612 53.1294Z" fill="#E3997F"/>
<path opacity="0.58" d="M51.4612 53.2615C45.9241 52.7342 41.0462 56.6892 40.5188 62.2263C39.9915 67.7634 43.9465 72.6414 49.4837 73.1687C55.0208 73.696 59.8987 69.741 60.426 64.2039C60.9534 58.6668 56.9983 53.7888 51.4612 53.2615Z" fill="#E3987E"/>
<path opacity="0.58" d="M51.4615 53.2615C46.0562 52.7342 41.1783 56.6893 40.6509 62.0945C40.1236 67.4998 44.0787 72.3777 49.4839 72.9051C54.8892 73.4324 59.7671 69.4773 60.2945 64.0721C60.8218 58.6668 56.8667 53.9207 51.4615 53.2615Z" fill="#E3977D"/>
<path opacity="0.58" d="M51.4615 53.3931C46.0562 52.8658 41.1783 56.8208 40.6509 62.2261C40.1236 67.6314 44.0787 72.5093 49.4839 73.0366C54.8892 73.564 59.7671 69.6089 60.2945 64.2036C60.8218 58.7984 56.8667 53.9205 51.4615 53.3931Z" fill="#E3967C"/>
<path opacity="0.58" d="M51.4615 53.3931C46.0562 52.8658 41.3101 56.8209 40.7828 62.0943C40.2554 67.4996 44.2105 72.2457 49.484 72.773C54.8892 73.3003 59.6353 69.3453 60.1627 64.0718C60.69 58.7984 56.8668 53.9205 51.4615 53.3931Z" fill="#E2957C"/>
<path opacity="0.58" d="M51.4615 53.5252C46.1881 52.9979 41.3101 56.953 40.7828 62.2264C40.2554 67.4998 44.2105 72.3777 49.484 72.9051C54.7574 73.4324 59.6353 69.4774 60.1627 64.2039C60.69 58.7987 56.7349 54.0526 51.4615 53.5252Z" fill="#E2947B"/>
<path opacity="0.58" d="M51.4612 53.5251C46.1877 52.9978 41.4416 56.821 40.9143 62.2263C40.387 67.4997 44.2102 72.2458 49.6155 72.7732C54.8889 73.3005 59.635 69.4773 60.1623 64.072C60.5578 58.7986 56.7346 54.0525 51.4612 53.5251Z" fill="#E2937A"/>
<path opacity="0.58" d="M51.4612 53.657C46.1878 53.1297 41.5735 56.9529 41.0462 62.2263C40.5188 67.4998 44.3421 72.114 49.6155 72.6414C54.8889 73.1687 59.5032 69.3455 60.0305 64.072C60.5579 58.7986 56.7346 54.1843 51.4612 53.657Z" fill="#E29279"/>
<path opacity="0.58" d="M51.4612 53.657C46.1878 53.1297 41.5735 56.9529 41.0462 62.2263C40.5188 67.4998 44.3421 72.114 49.6155 72.6414C54.8889 73.1687 59.5032 69.3455 60.0305 64.072C60.426 58.9304 56.6028 54.1843 51.4612 53.657Z" fill="#E29179"/>
<path opacity="0.58" d="M51.4615 53.7889C46.3199 53.2615 41.7056 57.0848 41.1783 62.2264C40.6509 67.368 44.4742 71.9822 49.6158 72.5096C54.7574 73.0369 59.3716 69.2137 59.899 64.0721C60.4263 58.9305 56.6031 54.3162 51.4615 53.7889Z" fill="#E19078"/>
<path opacity="0.58" d="M51.4615 53.7889C46.3199 53.2615 41.7056 57.0848 41.1783 62.2264C40.6509 67.368 44.4742 71.9822 49.6158 72.5096C54.7574 73.0369 59.3716 69.2137 59.899 64.0721C60.2945 58.9305 56.6031 54.3162 51.4615 53.7889Z" fill="#E18F77"/>
<path opacity="0.58" d="M51.461 53.9203C46.3194 53.3929 41.837 57.0843 41.3097 62.2259C40.7823 67.3675 44.4737 71.8499 49.6153 72.3773C54.7569 72.9046 59.2393 69.2132 59.7667 64.0716C60.294 58.93 56.4708 54.4476 51.461 53.9203Z" fill="#E18E76"/>
<path opacity="0.58" d="M51.461 53.9203C46.3194 53.3929 41.837 57.0843 41.3097 62.2259C40.7823 67.3675 44.4737 71.8499 49.6153 72.3773C54.7569 72.9046 59.2393 69.2132 59.7667 64.0716C60.1622 59.0619 56.4708 54.4476 51.461 53.9203Z" fill="#E18D75"/>
<path opacity="0.58" d="M51.4613 54.0524C46.4515 53.525 41.9691 57.2164 41.4418 62.2262C40.9144 67.2359 44.6058 71.7184 49.6156 72.2457C54.6254 72.7731 59.1078 69.0816 59.6351 64.0719C60.1625 59.0621 56.4711 54.5797 51.4613 54.0524Z" fill="#E18C75"/>
<path opacity="0.58" d="M51.3292 54.0524C46.3195 53.525 41.837 57.2164 41.3097 62.2262C40.7823 67.2359 44.4737 71.7184 49.4835 72.2457C54.4933 72.7731 58.9757 69.0816 59.503 64.0719C60.0304 59.0621 56.339 54.5797 51.3292 54.0524Z" fill="#E08B74"/>
<path opacity="0.58" d="M51.3295 54.1842C46.3197 53.6569 41.9691 57.3483 41.4418 62.2262C40.9145 67.236 44.6059 71.5866 49.4838 72.1139C54.4935 72.6412 58.8441 68.9498 59.3715 64.0719C60.0307 59.0622 56.3393 54.7116 51.3295 54.1842Z" fill="#E08A73"/>
<path opacity="0.58" d="M51.3295 54.1842C46.4516 53.6569 41.9691 57.3483 41.5736 62.2262C41.0463 67.1041 44.7377 71.5866 49.6156 71.9821C54.4936 72.5094 58.976 68.818 59.3715 63.9401C59.8988 59.0622 56.3393 54.7116 51.3295 54.1842Z" fill="#E08972"/>
<path opacity="0.58" d="M51.3291 54.3162C46.4512 53.7888 42.1006 57.3484 41.5732 62.3582C41.0459 67.2361 44.6055 71.5867 49.6152 72.114C54.4932 72.6413 58.8437 69.0818 59.3711 64.072C59.8984 59.1941 56.207 54.8435 51.3291 54.3162Z" fill="#E08872"/>
<path opacity="0.58" d="M51.3294 54.3162C46.4515 53.7889 42.1009 57.3484 41.7054 62.2264C41.178 67.1043 44.7376 71.4549 49.6155 71.8504C54.4934 72.3777 58.844 68.8181 59.2395 63.9402C59.7669 59.1941 56.2073 54.8435 51.3294 54.3162Z" fill="#DF8771"/>
<path opacity="0.58" d="M51.3294 54.448C46.4515 53.9207 42.2327 57.4803 41.7054 62.3582C41.178 67.2361 44.7376 71.4549 49.6155 71.9822C54.4934 72.5095 58.7122 68.95 59.2395 64.0721C59.7669 59.1941 56.2073 54.9754 51.3294 54.448Z" fill="#DF8670"/>
<path opacity="0.58" d="M51.3297 54.4481C46.5836 53.9207 42.233 57.4803 41.8375 62.2264C41.3101 66.9725 44.8697 71.3231 49.6158 71.7186C54.3619 72.2459 58.7125 68.6863 59.108 63.9403C59.6353 59.1942 56.2076 54.9754 51.3297 54.4481Z" fill="#DF856F"/>
<path opacity="0.58" d="M51.3297 54.5797C46.5836 54.0523 42.3648 57.6119 41.8375 62.358C41.3101 67.1041 44.8697 71.3228 49.6158 71.8502C54.3619 72.3775 58.5806 68.8179 59.108 64.0719C59.6353 59.3258 56.0758 54.9752 51.3297 54.5797Z" fill="#DF846F"/>
<path opacity="0.58" d="M51.3292 54.5797C46.5831 54.0524 42.3644 57.6119 41.9689 62.2262C41.4415 66.9723 45.0011 71.191 49.6153 71.5865C54.3614 72.1139 58.5802 68.5543 58.9757 63.9401C59.503 59.3258 56.0753 55.1071 51.3292 54.5797Z" fill="#DF836E"/>
<path opacity="0.58" d="M51.3294 54.7117C46.5833 54.1844 42.4964 57.6121 41.9691 62.3582C41.4417 66.9725 44.8695 71.1912 49.6155 71.7186C54.3616 72.2459 58.4485 68.8182 58.9759 64.0721C59.3714 59.326 56.0755 55.1073 51.3294 54.7117Z" fill="#DE826D"/>
<path opacity="0.58" d="M51.3295 54.7116C46.7153 54.3161 42.4965 57.612 42.101 62.2262C41.7055 66.8405 45.0014 71.0592 49.6156 71.4547C54.2299 71.8502 58.4486 68.5544 58.8442 63.9401C59.3715 59.3259 55.9438 55.2389 51.3295 54.7116Z" fill="#DE816C"/>
<path opacity="0.58" d="M51.3295 54.8434C46.7153 54.4479 42.6283 57.7438 42.101 62.3581C41.7055 66.9723 45.0014 71.0592 49.6156 71.5866C54.2299 71.9821 58.3168 68.6862 58.8442 64.0719C59.2397 59.4577 55.9438 55.2389 51.3295 54.8434Z" fill="#DE806B"/>
<path opacity="0.58" d="M51.3295 54.8434C46.7153 54.4479 42.6283 57.7438 42.2328 62.3581C41.8373 66.9723 45.1332 71.0592 49.7475 71.4547C54.3617 71.8503 58.4486 68.5544 58.8442 63.9401C59.2397 59.4577 55.9438 55.3708 51.3295 54.8434Z" fill="#DE7F6B"/>
<path opacity="0.58" d="M51.329 54.9753C46.8466 54.5798 42.7597 57.8757 42.3642 62.3581C41.9687 66.8405 45.2646 70.9274 49.747 71.3229C54.2294 71.7184 58.3163 68.4225 58.7118 63.9401C59.1074 59.4577 55.8115 55.3708 51.329 54.9753Z" fill="#DE7E6A"/>
<path opacity="0.58" d="M51.329 54.9753C46.8466 54.5798 42.7597 57.8757 42.3642 62.3581C41.9687 66.8405 45.2646 70.9274 49.747 71.3229C54.2294 71.7184 58.3163 68.4225 58.7118 63.9401C59.1074 59.4577 55.8115 55.5026 51.329 54.9753Z" fill="#DD7D69"/>
<path opacity="0.58" d="M51.329 55.1071C46.8466 54.7116 42.8915 57.8756 42.496 62.3581C42.1005 66.8405 45.2646 70.7955 49.747 71.1911C54.2294 71.5866 58.1845 68.4225 58.58 63.9401C58.9755 59.4577 55.8114 55.5026 51.329 55.1071Z" fill="#DD7C68"/>
<path opacity="0.58" d="M51.329 55.1071C46.8466 54.7116 43.0233 57.8756 42.496 62.3581C42.1005 66.8405 45.2646 70.6637 49.747 71.1911C54.2294 71.5866 58.0526 68.4225 58.58 63.9401C58.9755 59.5895 55.6796 55.6344 51.329 55.1071Z" fill="#DD7B68"/>
<path opacity="0.58" d="M51.3294 55.2392C46.9788 54.8437 43.0237 58.0077 42.6282 62.3583C42.1009 66.7089 45.2649 70.664 49.7473 71.0595C54.0979 71.455 58.053 68.2909 58.4485 63.9404C58.844 59.5898 55.6799 55.6347 51.3294 55.2392Z" fill="#DD7A67"/>
<path opacity="0.58" d="M51.3293 55.2392C46.9787 54.8437 43.1554 58.0077 42.6281 62.3583C42.2326 66.7089 45.3967 70.5321 49.7472 71.0595C54.0978 71.455 57.9211 68.2909 58.4484 63.9404C58.8439 59.5898 55.6798 55.7665 51.3293 55.2392Z" fill="#DD7A66"/>
<path opacity="0.58" d="M51.3295 55.3708C46.979 54.9753 43.1557 58.1394 42.7602 62.3581C42.3647 66.7087 45.5288 70.5319 49.7475 70.9274C54.0981 71.3229 57.9213 68.1589 58.3168 63.9401C58.7123 59.5896 55.5483 55.7663 51.3295 55.3708Z" fill="#DC7965"/>
<path opacity="0.58" d="M51.1975 55.3708C46.9787 54.9753 43.1555 58.0075 42.6281 62.3581C42.2326 66.5769 45.2649 70.4001 49.6154 70.9274C53.8342 71.323 57.6574 68.2907 58.1848 63.9402C58.7121 59.7214 55.5481 55.8982 51.1975 55.3708Z" fill="#DC7864"/>
<path opacity="0.58" d="M51.1975 55.5027C46.9787 55.1072 43.1555 58.1394 42.76 62.49C42.3645 66.7087 45.3967 70.5319 49.7473 70.9275C53.966 71.323 57.7893 68.2907 58.1848 63.9402C58.5803 59.7214 55.5481 55.8982 51.1975 55.5027Z" fill="#DC7764"/>
<path opacity="0.58" d="M51.1975 55.5027C46.9788 55.1072 43.2874 58.1394 42.76 62.3582C42.3645 66.5769 45.3967 70.2683 49.6155 70.7956C53.8342 71.1911 57.5256 68.1589 58.053 63.9402C58.5803 59.7214 55.4162 56.03 51.1975 55.5027Z" fill="#DC7663"/>
<path opacity="0.58" d="M51.1978 55.6343C46.979 55.2388 43.2876 58.271 42.8921 62.4897C42.4966 66.7085 45.5288 70.3999 49.7476 70.7954C53.9663 71.1909 57.6577 68.1587 58.0532 63.9399C58.4487 59.7212 55.4165 56.0298 51.1978 55.6343Z" fill="#DB7562"/>
<path opacity="0.58" d="M51.1978 55.6343C47.1109 55.2388 43.4195 58.271 43.024 62.3579C42.6284 66.4448 45.6607 70.1362 49.7476 70.5318C53.8345 70.9273 57.5259 67.895 57.9214 63.8081C58.4487 59.7212 55.4165 56.0298 51.1978 55.6343Z" fill="#DB7461"/>
<path opacity="0.58" d="M51.1978 55.7661C47.1109 55.3706 43.4195 58.4029 43.024 62.4898C42.6284 66.5767 45.6607 70.2681 49.7476 70.6636C53.8345 71.0591 57.5259 68.0269 57.9214 63.94C58.3169 59.8531 55.2847 56.1616 51.1978 55.7661Z" fill="#DB7361"/>
<path opacity="0.58" d="M51.1974 55.7665C47.1105 55.371 43.551 58.2714 43.1554 62.3583C42.7599 66.4452 45.6603 70.0048 49.7472 70.4003C53.8341 70.7958 57.3937 67.8954 57.7892 63.8085C58.3166 59.8534 55.2843 56.162 51.1974 55.7665Z" fill="#DB7260"/>
<path opacity="0.58" d="M51.1974 55.8979C47.1105 55.5024 43.551 58.4028 43.1554 62.4897C42.7599 66.5766 45.6603 70.1362 49.7472 70.5317C53.8341 70.9272 57.3937 68.0268 57.7892 63.9399C58.1847 59.853 55.2843 56.2934 51.1974 55.8979Z" fill="#DB715F"/>
<path opacity="0.58" d="M51.1975 55.8979C47.2424 55.5024 43.6828 58.4028 43.2873 62.3579C42.8918 66.3129 45.7922 69.8725 49.7473 70.268C53.7023 70.6635 57.2619 67.7631 57.6574 63.8081C58.0529 59.853 55.1525 56.2934 51.1975 55.8979Z" fill="#DA705E"/>
<path opacity="0.58" d="M51.1975 56.03C47.2424 55.6345 43.6828 58.5349 43.2873 62.4899C42.8918 66.445 45.7922 70.0046 49.7473 70.4001C53.7023 70.7956 57.2619 67.8952 57.6574 63.9401C58.0529 59.9851 55.1525 56.4255 51.1975 56.03Z" fill="#DA6F5D"/>
<path opacity="0.58" d="M51.1977 56.03C47.2427 55.6345 43.8149 58.5349 43.4194 62.3581C43.0239 66.3132 45.9243 69.7409 49.7475 70.1364C53.7026 70.532 57.1304 67.6316 57.5259 63.8083C57.9214 59.9851 55.1528 56.4255 51.1977 56.03Z" fill="#DA6E5D"/>
<path opacity="0.58" d="M51.1977 56.1616C47.3745 55.7661 43.8149 58.6665 43.4194 62.4897C43.0239 66.313 45.9243 69.8725 49.7475 70.268C53.5708 70.6636 57.1304 67.7632 57.5259 63.9399C57.9214 59.9849 55.021 56.5571 51.1977 56.1616Z" fill="#DA6D5C"/>
<path opacity="0.58" d="M51.1975 56.1618C47.3742 55.7663 43.9465 58.5349 43.551 62.49C43.1555 66.3132 45.9241 69.7409 49.8791 70.1364C53.7024 70.5319 57.1301 67.7634 57.5256 63.8083C57.7893 59.9851 55.0207 56.5574 51.1975 56.1618Z" fill="#DA6C5B"/>
<path opacity="0.58" d="M51.1975 56.2937C47.3743 55.8982 43.9465 58.6668 43.551 62.49C43.1555 66.3132 45.9241 69.741 49.7473 70.1365C53.5706 70.532 56.9983 67.7634 57.3938 63.9402C57.7893 59.9851 55.0208 56.6892 51.1975 56.2937Z" fill="#D96B5A"/>
<path opacity="0.58" d="M51.1975 56.2937C47.3743 55.8982 44.0784 58.6668 43.6829 62.49C43.2874 66.3132 46.0559 69.6091 49.8792 70.0046C53.7024 70.4001 56.9983 67.6316 57.3938 63.8084C57.6575 60.117 54.8889 56.6892 51.1975 56.2937Z" fill="#D96A5A"/>
<path opacity="0.58" d="M51.1978 56.4256C47.5064 56.0301 44.0787 58.7986 43.815 62.49C43.4195 66.1814 46.188 69.6092 49.8794 69.8728C53.5708 70.2683 56.9986 67.4998 57.2622 63.8084C57.6577 60.117 54.8892 56.8211 51.1978 56.4256Z" fill="#D96959"/>
<path opacity="0.58" d="M51.1978 56.4256C47.5064 56.0301 44.2105 58.7986 43.815 62.49C43.4195 66.1814 46.188 69.4773 49.8794 69.8728C53.5708 70.2683 56.8667 67.4998 57.2622 63.8084C57.5259 60.117 54.8892 56.8211 51.1978 56.4256Z" fill="#D96858"/>
<path opacity="0.58" d="M51.1978 56.5572C47.5064 56.1617 44.2105 58.9303 43.9469 62.4898C43.5514 66.1812 46.3199 69.4771 49.8795 69.7408C53.5709 70.1363 56.8668 67.3677 57.1304 63.8082C57.5259 60.1168 54.7574 56.9527 51.1978 56.5572Z" fill="#D86757"/>
<path opacity="0.58" d="M51.1975 56.5571C47.5061 56.1616 44.342 58.7983 43.9465 62.4897C43.551 66.1811 46.1877 69.3452 49.8791 69.7407C53.5705 70.1362 56.7346 67.4995 57.1301 63.808C57.3937 60.2485 54.757 56.9526 51.1975 56.5571Z" fill="#D86657"/>
<path opacity="0.58" d="M51.1977 56.6892C47.6382 56.2937 44.3423 58.9304 44.0786 62.49C43.6831 66.0495 46.3198 69.3454 49.8794 69.6091C53.4389 70.0046 56.7348 67.3679 56.9985 63.8083C57.394 60.2488 54.7573 57.0847 51.1977 56.6892Z" fill="#D86556"/>
<path opacity="0.58" d="M51.1977 56.6892C47.6382 56.2937 44.4741 58.9304 44.0786 62.49C43.6831 66.0495 46.3198 69.2136 49.8794 69.6091C53.4389 70.0046 56.603 67.3679 56.9985 63.8083C57.2622 60.2488 54.6255 57.0847 51.1977 56.6892Z" fill="#D86455"/>
<path opacity="0.58" d="M51.0659 56.8208C47.5063 56.4253 44.4741 59.062 44.0786 62.6216C43.6831 66.1811 46.3198 69.2134 49.8794 69.6089C53.4389 70.0044 56.4712 67.3677 56.8667 63.8081C57.2622 60.2485 54.6255 57.0845 51.0659 56.8208Z" fill="#D86354"/>
<path opacity="0.58" d="M51.0659 56.8208C47.6382 56.4253 44.4742 59.062 44.0786 62.4898C43.6831 65.9175 46.3199 69.0816 49.7476 69.4771C53.1753 69.8726 56.3394 67.2359 56.7349 63.8081C57.1304 60.3804 54.6255 57.2163 51.0659 56.8208Z" fill="#D76253"/>
<path opacity="0.58" d="M51.0657 56.9529C47.638 56.5574 44.6058 59.0623 44.2102 62.6219C43.8147 66.0496 46.3196 69.0818 49.8792 69.4773C53.3069 69.8728 56.3391 67.3679 56.7346 63.8084C57.1302 60.3807 54.6253 57.2166 51.0657 56.9529Z" fill="#D76153"/>
<path opacity="0.58" d="M51.066 56.9527C47.6383 56.5572 44.606 59.0621 44.3424 62.4898C43.9469 65.9176 46.4517 68.9498 49.8795 69.2135C53.3072 69.609 56.3394 67.1041 56.6031 63.6763C56.9986 60.3805 54.4937 57.3482 51.066 56.9527Z" fill="#D76052"/>
<path opacity="0.58" d="M51.066 57.0846C47.6383 56.689 44.7379 59.1939 44.3424 62.6217C43.9469 66.0494 46.4517 68.9498 49.8795 69.3453C53.3072 69.7408 56.2076 67.2359 56.6031 63.8082C56.9986 60.3804 54.4937 57.3482 51.066 57.0846Z" fill="#D75F51"/>
<path opacity="0.58" d="M51.0656 57.0846C47.7697 56.6891 44.7374 59.194 44.4738 62.4899C44.0783 65.7858 46.5831 68.818 49.879 69.0817C53.1749 69.4772 56.2072 66.9723 56.4708 63.6764C56.8663 60.3805 54.4933 57.4801 51.0656 57.0846Z" fill="#D75E50"/>
<path opacity="0.58" d="M51.0656 57.2165C47.7697 56.9529 44.8694 59.3259 44.4739 62.6218C44.2102 65.9177 46.5832 68.8181 49.8791 69.2136C53.175 69.4773 56.0754 67.1042 56.4709 63.8083C56.7346 60.5124 54.3615 57.4802 51.0656 57.2165Z" fill="#D65D50"/>
<path opacity="0.58" d="M51.0657 57.2165C47.7698 56.9529 44.8694 59.3259 44.6057 62.49C44.342 65.7859 46.7151 68.6863 49.8791 68.9499C53.175 69.2136 56.0754 66.8406 56.3391 63.6765C56.7346 60.5124 54.3616 57.6121 51.0657 57.2165Z" fill="#D65C4F"/>
<path opacity="0.58" d="M51.0655 57.3487C47.9014 57.085 45.001 59.3262 44.6055 62.6221C44.3418 65.7862 46.583 68.6865 49.8789 69.0821C53.043 69.3457 55.9434 67.1045 56.3389 63.8086C56.6026 60.5127 54.3614 57.6123 51.0655 57.3487Z" fill="#D65B4E"/>
<path opacity="0.58" d="M51.0657 57.3482C47.9017 57.0845 45.0013 59.3257 44.7376 62.4898C44.4739 65.6539 46.7151 68.5542 49.8792 68.8179C53.0433 69.0816 55.9437 66.8404 56.2073 63.6763C56.6028 60.5123 54.2298 57.7437 51.0657 57.3482Z" fill="#D65A4D"/>
<path opacity="0.58" d="M51.0657 57.48C47.9017 57.2164 45.1331 59.4576 44.7376 62.6216C44.4739 65.7857 46.7151 68.5542 49.8792 68.9498C53.0433 69.2134 55.8118 66.9722 56.2073 63.8082C56.471 60.6441 54.2298 57.7437 51.0657 57.48Z" fill="#D5594C"/>
<path opacity="0.58" d="M51.0657 57.48C47.9017 57.2164 45.1331 59.4576 44.8694 62.6216C44.6058 65.7857 46.847 68.5542 50.011 68.8179C53.1751 69.0816 55.9437 66.8404 56.2073 63.6763C56.471 60.6441 54.2298 57.8755 51.0657 57.48Z" fill="#D5584C"/>
<path opacity="0.58" d="M51.0657 57.6121C48.0335 57.3485 45.265 59.5897 44.8695 62.6219C44.6058 65.6541 46.847 68.4227 49.8792 68.8182C52.9114 69.0819 55.68 66.8406 56.0755 63.8084C56.3392 60.6444 54.098 57.8758 51.0657 57.6121Z" fill="#D5574B"/>
<path opacity="0.58" d="M51.066 57.6121C48.0338 57.3485 45.2652 59.5897 45.0015 62.6219C44.7379 65.6541 46.9791 68.4227 50.0113 68.6863C53.0435 68.95 55.8121 66.7088 56.0757 63.6766C56.3394 60.6444 54.0982 58.0076 51.066 57.6121Z" fill="#D5564A"/>
<path opacity="0.58" d="M51.0659 57.7439C48.0337 57.4802 45.397 59.5896 45.1333 62.6218C44.8696 65.6541 46.979 68.2908 50.0112 68.5544C53.0435 68.8181 55.6802 66.7087 55.9438 63.6765C56.2075 60.6443 54.0981 58.0076 51.0659 57.7439Z" fill="#D55549"/>
<path opacity="0.58" d="M51.0659 57.7439C48.0337 57.4802 45.397 59.5896 45.1333 62.6218C44.8696 65.6541 46.979 68.2908 50.0112 68.5544C53.0435 68.8181 55.6802 66.7087 55.9438 63.6765C56.2075 60.7761 53.9663 58.1394 51.0659 57.7439Z" fill="#D45449"/>
<path opacity="0.58" d="M51.0659 57.8755C48.1656 57.6119 45.5288 59.7212 45.2652 62.6216C45.0015 65.522 47.1109 68.1587 50.0113 68.4224C52.9116 68.6861 55.5484 66.5767 55.812 63.6763C56.0757 60.7759 53.9663 58.1392 51.0659 57.8755Z" fill="#D45348"/>
<path opacity="0.58" d="M51.0659 57.8755C48.1656 57.6119 45.5288 59.7212 45.2652 62.6216C45.0015 65.522 47.1109 68.1587 50.0113 68.4224C52.9116 68.6861 55.5484 66.5767 55.812 63.6763C56.0757 60.7759 53.9663 58.271 51.0659 57.8755Z" fill="#D45247"/>
</g>
<g opacity="0.65">
<path opacity="0.65" d="M78.4874 55.3714C72.6866 54.8441 67.545 59.0628 66.8858 64.8636C66.3585 70.6644 70.5772 75.806 76.378 76.4651C82.1788 76.9925 87.3204 72.7737 87.9795 66.973C88.5069 61.0403 84.2881 55.8988 78.4874 55.3714Z" fill="#E5A185"/>
<path opacity="0.65" d="M78.4874 55.3712C72.6866 54.8438 67.545 59.0626 67.0177 64.7315C66.4903 70.5323 70.7091 75.6739 76.378 76.2012C82.1788 76.7286 87.3204 72.5098 87.8477 66.8409C88.5069 61.172 84.2882 56.0304 78.4874 55.3712Z" fill="#E5A084"/>
<path opacity="0.65" d="M78.4874 55.503C72.8185 54.9757 67.6769 59.0626 67.0177 64.8634C66.4903 70.5323 70.5772 75.6739 76.378 76.3331C82.047 76.8604 87.1886 72.7735 87.8477 66.9727C88.3751 61.172 84.2882 56.0304 78.4874 55.503Z" fill="#E59F83"/>
<path opacity="0.65" d="M78.4874 55.5031C72.8185 54.9757 67.6769 59.0626 67.1495 64.7316C66.6222 70.4005 70.7091 75.5421 76.378 76.0694C82.047 76.5968 87.1886 72.5099 87.7159 66.8409C88.3751 61.172 84.1564 56.1622 78.4874 55.5031Z" fill="#E49E83"/>
<path opacity="0.65" d="M78.4869 55.6347C72.818 55.1073 67.8082 59.1942 67.2809 64.8632C66.7535 70.5321 70.8405 75.5419 76.5094 76.0692C82.1783 76.5965 87.1881 72.5096 87.7154 66.8407C88.2428 61.1718 84.1559 56.162 78.4869 55.6347Z" fill="#E49D82"/>
<path opacity="0.65" d="M78.4869 55.6347C72.818 55.1073 67.8082 59.1942 67.2809 64.8632C66.7535 70.5321 70.8405 75.5419 76.5094 76.0692C82.1783 76.5965 87.1881 72.5096 87.7154 66.8407C88.2428 61.3036 84.1559 56.162 78.4869 55.6347Z" fill="#E49C81"/>
<path opacity="0.65" d="M78.4872 55.7668C72.9501 55.2394 67.9403 59.3263 67.413 64.8634C66.8857 70.4005 70.9726 75.4103 76.5097 75.9376C82.0468 76.465 87.0565 72.3781 87.5839 66.841C88.1112 61.3039 84.0243 56.2941 78.4872 55.7668Z" fill="#E49B80"/>
<path opacity="0.65" d="M78.4872 55.7668C72.9501 55.2394 67.9403 59.3263 67.413 64.8634C66.8857 70.4005 70.9726 75.4103 76.5097 75.9376C82.0468 76.465 87.0565 72.3781 87.5839 66.841C88.1112 61.3039 84.0243 56.2941 78.4872 55.7668Z" fill="#E49A80"/>
<path opacity="0.65" d="M78.4873 55.8985C72.9502 55.3711 68.0723 59.3262 67.5449 64.8633C67.0176 70.4004 70.9727 75.2783 76.5098 75.8057C82.0469 76.333 86.9248 72.3779 87.4522 66.8408C87.9795 61.3037 84.0244 56.4258 78.4873 55.8985Z" fill="#E3997F"/>
<path opacity="0.65" d="M78.4873 55.8985C72.9502 55.3711 68.0723 59.3262 67.5449 64.8633C67.0176 70.4004 70.9727 75.2783 76.5098 75.8057C82.0469 76.333 86.9248 72.3779 87.4522 66.8408C87.9795 61.3037 83.8926 56.4258 78.4873 55.8985Z" fill="#E3987E"/>
<path opacity="0.65" d="M78.4876 56.0303C73.0823 55.503 68.2044 59.458 67.677 64.8633C67.1497 70.2686 71.1048 75.1465 76.51 75.6739C81.9153 76.2012 86.7932 72.2461 87.3206 66.8409C87.8479 61.4356 83.8928 56.5577 78.4876 56.0303Z" fill="#E3977D"/>
<path opacity="0.65" d="M78.4876 56.0303C73.0823 55.503 68.2044 59.458 67.677 64.8633C67.1497 70.2686 71.1048 75.1465 76.51 75.6739C81.9153 76.2012 86.7932 72.2461 87.3206 66.8409C87.8479 61.4356 83.8928 56.5577 78.4876 56.0303Z" fill="#E3967C"/>
<path opacity="0.65" d="M78.4869 56.1619C73.0816 55.6346 68.3355 59.5897 67.8082 64.8631C67.2808 70.2684 71.2359 75.0145 76.5093 75.5418C81.9146 76.0691 86.6607 72.1141 87.188 66.8406C87.7154 61.4354 83.7603 56.6893 78.4869 56.1619Z" fill="#E2957C"/>
<path opacity="0.65" d="M78.4869 56.1619C73.2134 55.6346 68.3355 59.5897 67.8082 64.8631C67.2808 70.1365 71.2359 75.0145 76.5093 75.5418C81.7828 76.0691 86.6607 72.1141 87.188 66.8406C87.7154 61.4354 83.7603 56.6893 78.4869 56.1619Z" fill="#E2947B"/>
<path opacity="0.65" d="M78.3552 56.2942C73.0818 55.7668 68.3357 59.5901 67.8083 64.9953C67.281 70.2688 71.1042 75.0149 76.5095 75.5422C81.7829 76.0695 86.529 72.2463 87.0564 66.841C87.5837 61.5676 83.7605 56.8215 78.3552 56.2942Z" fill="#E2937A"/>
<path opacity="0.65" d="M78.3555 56.2942C73.0821 55.7669 68.4678 59.5901 67.9405 64.8635C67.4131 70.137 71.2363 74.7512 76.5098 75.2786C81.7832 75.8059 86.3975 71.9827 86.9248 66.7092C87.4522 61.5676 83.6289 56.8216 78.3555 56.2942Z" fill="#E29279"/>
<path opacity="0.65" d="M78.3555 56.4258C73.0821 55.8985 68.4678 59.7217 67.9405 64.9951C67.4131 70.2686 71.2363 74.8828 76.5098 75.4102C81.7832 75.9375 86.3975 72.1143 86.9248 66.8408C87.4522 61.5674 83.6289 56.9531 78.3555 56.4258Z" fill="#E29179"/>
<path opacity="0.65" d="M78.3555 56.4258C73.2139 55.8985 68.5997 59.7217 68.0723 64.8633C67.545 70.0049 71.3682 74.6192 76.5098 75.1465C81.6514 75.6739 86.2657 71.8506 86.793 66.709C87.3203 61.5674 83.6289 56.9532 78.3555 56.4258Z" fill="#E19078"/>
<path opacity="0.65" d="M78.3555 56.5577C73.2139 56.0303 68.5997 59.8536 68.0723 64.9952C67.545 70.1368 71.3682 74.751 76.5098 75.2784C81.6514 75.8057 86.2657 71.9825 86.793 66.8409C87.3203 61.5674 83.4971 57.085 78.3555 56.5577Z" fill="#E18F77"/>
<path opacity="0.65" d="M78.3553 56.5577C73.2137 56.0304 68.7313 59.7218 68.2039 64.8634C67.6766 70.005 71.368 74.4874 76.5096 75.0147C81.6512 75.5421 86.1336 71.8507 86.661 66.7091C87.1883 61.6993 83.4969 57.085 78.3553 56.5577Z" fill="#E18E76"/>
<path opacity="0.65" d="M78.3553 56.6895C73.2137 56.1622 68.7313 59.8536 68.2039 64.9952C67.6766 70.1368 71.368 74.6192 76.5096 75.1466C81.6512 75.6739 86.1336 71.9825 86.661 66.8409C87.1883 61.6993 83.4969 57.2169 78.3553 56.6895Z" fill="#E18D75"/>
<path opacity="0.65" d="M78.3553 56.6893C73.3456 56.162 68.8632 59.8534 68.3358 64.8631C67.8085 69.8729 71.4999 74.3553 76.5096 74.8827C81.5194 75.41 86.0018 71.7186 86.5291 66.7088C87.0565 61.6991 83.3651 57.2167 78.3553 56.6893Z" fill="#E18C75"/>
<path opacity="0.65" d="M78.3553 56.8214C73.3456 56.2941 68.8632 59.9855 68.3358 64.9952C67.8085 70.005 71.4999 74.4874 76.5096 75.0148C81.5194 75.5421 86.0018 71.8507 86.5291 66.8409C87.0565 61.6993 83.3651 57.3488 78.3553 56.8214Z" fill="#E08B74"/>
<path opacity="0.65" d="M78.3556 56.8214C73.3459 56.2941 68.9953 59.9855 68.4679 64.8634C67.9406 69.8732 71.632 74.2238 76.5099 74.7511C81.5197 75.2785 85.8703 71.5871 86.3976 66.7091C86.9249 61.8312 83.3654 57.3488 78.3556 56.8214Z" fill="#E08A73"/>
<path opacity="0.65" d="M78.3556 56.9533C73.4777 56.4259 68.9953 60.1173 68.5998 64.9953C68.0724 69.8732 71.7638 74.3556 76.6417 74.7511C81.5197 75.2785 86.0021 71.5871 86.3976 66.7091C86.9249 61.8312 83.2335 57.3488 78.3556 56.9533Z" fill="#E08972"/>
<path opacity="0.65" d="M78.3555 56.9534C73.4775 56.426 69.127 59.9856 68.5996 64.9954C68.0723 69.8733 71.6318 74.2239 76.6416 74.7512C81.5195 75.2786 85.8701 71.719 86.3974 66.7092C86.793 61.8313 83.2334 57.4807 78.3555 56.9534Z" fill="#E08872"/>
<path opacity="0.65" d="M78.3555 57.085C73.4776 56.5577 69.127 60.1172 68.7315 64.9952C68.2041 69.8731 71.7637 74.2237 76.6416 74.6192C81.5196 75.1465 85.8701 71.5869 86.2656 66.709C86.793 61.8311 83.2334 57.4805 78.3555 57.085Z" fill="#DF8771"/>
<path opacity="0.65" d="M78.3555 57.085C73.4776 56.5577 69.2588 60.1172 68.7315 64.9952C68.2041 69.8731 71.7637 74.0918 76.6416 74.6192C81.5196 75.1465 85.7383 71.5869 86.2656 66.709C86.6612 61.8311 83.1016 57.6123 78.3555 57.085Z" fill="#DF8670"/>
<path opacity="0.65" d="M78.3558 57.2169C73.6097 56.6895 69.2591 60.2491 68.8636 64.9952C68.3363 69.7413 71.8958 74.0919 76.6419 74.4874C81.388 75.0147 85.7386 71.4551 86.1341 66.7091C86.6614 61.963 83.1019 57.6124 78.3558 57.2169Z" fill="#DF856F"/>
<path opacity="0.65" d="M78.3558 57.2169C73.6097 56.6895 69.391 60.2491 68.8636 64.9952C68.3363 69.7413 71.8958 73.96 76.6419 74.4874C81.388 75.0147 85.6068 71.4551 86.1341 66.7091C86.5296 61.963 83.1019 57.7442 78.3558 57.2169Z" fill="#DF846F"/>
<path opacity="0.65" d="M78.3553 57.3488C73.6092 56.8214 69.3905 60.381 68.995 64.9952C68.4677 69.7413 72.0272 73.9601 76.6415 74.3556C81.3876 74.8829 85.6063 71.3233 86.0018 66.7091C86.5292 61.963 82.9696 57.7443 78.3553 57.3488Z" fill="#DF836E"/>
<path opacity="0.65" d="M78.3555 57.3487C73.6094 56.8214 69.5225 60.2491 68.9952 64.9952C68.4679 69.6094 71.8956 73.8282 76.6417 74.3555C81.3878 74.8829 85.4747 71.4551 86.002 66.709C86.3975 61.963 82.9698 57.8761 78.3555 57.3487Z" fill="#DE826D"/>
<path opacity="0.65" d="M78.3556 57.4806C73.7414 57.0851 69.5226 60.381 69.1271 64.9953C68.7316 69.6095 72.0275 73.8283 76.6418 74.2238C81.256 74.6193 85.4748 71.3234 85.8703 66.7091C86.3976 62.0949 82.9699 57.8762 78.3556 57.4806Z" fill="#DE816C"/>
<path opacity="0.65" d="M78.3556 57.4806C73.7414 57.0851 69.6545 60.381 69.1271 64.9953C68.7316 69.6095 72.0275 73.6964 76.6418 74.2238C81.256 74.6193 85.3429 71.3234 85.8703 66.7091C86.2658 62.0949 82.8381 58.008 78.3556 57.4806Z" fill="#DE806B"/>
<path opacity="0.65" d="M78.2238 57.6125C73.6095 57.217 69.5226 60.5129 69.1271 65.1271C68.7316 69.7414 72.0275 73.8283 76.6418 74.2238C81.256 74.6193 85.3429 71.3234 85.7384 66.7092C86.1339 62.0949 82.8381 58.008 78.2238 57.6125Z" fill="#DE7F6B"/>
<path opacity="0.65" d="M78.2238 57.6125C73.7414 57.217 69.6545 60.5129 69.259 64.9953C68.8635 69.4777 72.1594 73.5646 76.6418 73.9601C81.1242 74.3556 85.2111 71.0598 85.6066 66.5773C86.134 62.0949 82.8381 58.1398 78.2238 57.6125Z" fill="#DE7E6A"/>
<path opacity="0.65" d="M78.2238 57.7441C73.7414 57.3486 69.6545 60.6445 69.259 65.1269C68.8635 69.6093 72.1594 73.6962 76.6418 74.0917C81.1242 74.4872 85.2111 71.1913 85.6066 66.7089C86.0021 62.2265 82.7062 58.1396 78.2238 57.7441Z" fill="#DD7D69"/>
<path opacity="0.65" d="M78.2238 57.7443C73.7414 57.3488 69.7863 60.5128 69.3908 64.9953C68.9953 69.4777 72.1593 73.4328 76.6417 73.8283C81.1242 74.2238 85.0792 71.0597 85.4747 66.5773C86.0021 62.2267 82.7062 58.2716 78.2238 57.7443Z" fill="#DD7C68"/>
<path opacity="0.65" d="M78.2238 57.8761C73.7414 57.4806 69.9181 60.6447 69.3908 65.1271C68.9953 69.6095 72.1593 73.4328 76.6417 73.9601C81.1242 74.3556 84.9474 71.1915 85.4747 66.7091C85.8703 62.2267 82.7062 58.2716 78.2238 57.8761Z" fill="#DD7B68"/>
<path opacity="0.65" d="M78.2233 57.8762C73.8727 57.4806 69.9177 60.6447 69.5221 64.9953C69.1266 69.3459 72.2907 73.3009 76.6413 73.6964C80.9919 74.092 84.9469 70.9279 85.3424 66.5773C85.8698 62.2267 82.7057 58.4035 78.2233 57.8762Z" fill="#DD7A67"/>
<path opacity="0.65" d="M78.2233 58.008C73.8727 57.6125 70.0495 60.7765 69.5221 65.1271C69.1266 69.4777 72.2907 73.3009 76.6413 73.8283C80.9919 74.2238 84.8151 71.0597 85.3424 66.7091C85.738 62.2267 82.5739 58.4035 78.2233 58.008Z" fill="#DD7A66"/>
<path opacity="0.65" d="M78.2236 58.008C73.873 57.6125 70.0498 60.7766 69.6543 64.9953C69.2587 69.3459 72.4228 73.301 76.6415 73.6965C80.9921 74.092 84.8154 70.9279 85.2109 66.7092C85.7382 62.3586 82.5742 58.4035 78.2236 58.008Z" fill="#DC7965"/>
<path opacity="0.65" d="M78.2236 58.1394C74.0049 57.7439 70.1816 60.7761 69.6543 65.1267C69.2588 69.3454 72.291 73.1687 76.6416 73.696C80.8603 74.0915 84.6835 71.0593 85.2109 66.7087C85.6064 62.3581 82.5742 58.5349 78.2236 58.1394Z" fill="#DC7864"/>
<path opacity="0.65" d="M78.2236 58.1394C74.0049 57.7439 70.1816 60.7761 69.7861 65.1267C69.3906 69.3454 72.4228 73.1687 76.7734 73.5642C80.9922 73.9597 84.8154 70.9275 85.2109 66.5769C85.6064 62.3581 82.4423 58.5349 78.2236 58.1394Z" fill="#DC7764"/>
<path opacity="0.65" d="M78.2236 58.2715C74.0049 57.876 70.3135 60.9082 69.7861 65.1269C69.3906 69.3457 72.4228 73.0371 76.6416 73.5644C80.8603 73.96 84.5517 70.9277 85.0791 66.709C85.4746 62.3584 82.4424 58.667 78.2236 58.2715Z" fill="#DC7663"/>
<path opacity="0.65" d="M78.2239 58.2715C74.0051 57.876 70.3137 60.9082 69.9182 65.1269C69.5227 69.3457 72.5549 73.0371 76.7737 73.4326C80.9924 73.8281 84.6838 70.7959 85.0793 66.5771C85.4748 62.4902 82.4426 58.667 78.2239 58.2715Z" fill="#DB7562"/>
<path opacity="0.65" d="M78.2234 58.4033C74.1365 58.0078 70.4451 61.0401 70.0496 65.127C69.6541 69.2139 72.6863 72.9053 76.7732 73.3008C80.8601 73.6963 84.5515 70.6641 84.947 66.5772C85.3425 62.4903 82.3103 58.7989 78.2234 58.4033Z" fill="#DB7461"/>
<path opacity="0.65" d="M78.2234 58.4033C74.1365 58.0078 70.4451 61.0401 70.0496 65.127C69.6541 69.2139 72.6863 72.9053 76.7732 73.3008C80.8601 73.6963 84.5515 70.6641 84.947 66.5772C85.3425 62.4903 82.3103 58.7989 78.2234 58.4033Z" fill="#DB7361"/>
<path opacity="0.65" d="M78.2236 58.5353C74.1367 58.1398 70.5771 61.0402 70.1816 65.1271C69.7861 69.214 72.6865 72.7736 76.7734 73.1691C80.8603 73.5646 84.4198 70.6642 84.8153 66.5773C85.2109 62.4904 82.3105 58.9308 78.2236 58.5353Z" fill="#DB7260"/>
<path opacity="0.65" d="M78.2236 58.5353C74.1367 58.1398 70.5771 61.0402 70.1816 65.1271C69.7861 69.214 72.6865 72.7736 76.7734 73.1691C80.8603 73.5646 84.4198 70.6642 84.8154 66.5773C85.2109 62.4904 82.1786 58.9308 78.2236 58.5353Z" fill="#DB715F"/>
<path opacity="0.65" d="M78.2236 58.667C74.2685 58.2714 70.7089 61.1718 70.3134 65.1269C69.9179 69.082 72.8183 72.6415 76.7734 73.0371C80.7285 73.4326 84.288 70.5322 84.6835 66.5771C85.0791 62.622 82.1787 59.0625 78.2236 58.667Z" fill="#DA705E"/>
<path opacity="0.65" d="M78.2236 58.667C74.2685 58.2714 70.7089 61.1718 70.3134 65.1269C69.9179 69.082 72.8183 72.6415 76.7734 73.0371C80.7285 73.4326 84.288 70.5322 84.6835 66.5771C85.0791 62.622 82.1787 59.0625 78.2236 58.667Z" fill="#DA6F5D"/>
<path opacity="0.65" d="M78.2239 58.7991C74.2688 58.4036 70.8411 61.3039 70.4455 65.1272C70.05 69.0823 72.9504 72.51 76.7737 72.9055C80.7287 73.301 84.1565 70.4006 84.552 66.5774C84.9475 62.6223 82.0471 59.1946 78.2239 58.7991Z" fill="#DA6E5D"/>
<path opacity="0.65" d="M78.2239 58.7991C74.4006 58.4036 70.8411 61.3039 70.4455 65.1272C70.05 68.9504 72.9504 72.51 76.7737 72.9055C80.5969 73.301 84.1565 70.4006 84.552 66.5774C84.8156 62.6223 82.0471 59.1946 78.2239 58.7991Z" fill="#DA6D5C"/>
<path opacity="0.65" d="M78.0915 58.9309C74.2683 58.5354 70.8406 61.3039 70.445 65.259C70.0495 69.0822 72.8181 72.51 76.7732 72.9055C80.5964 73.301 84.0241 70.5324 84.4196 66.5774C84.8151 62.7541 82.0466 59.3264 78.0915 58.9309Z" fill="#DA6C5B"/>
<path opacity="0.65" d="M78.0916 58.9309C74.2683 58.5354 70.8406 61.304 70.4451 65.1272C70.0496 68.9504 72.8181 72.3782 76.6414 72.7737C80.4646 73.1692 83.8923 70.4006 84.2878 66.5774C84.6833 62.7542 81.9148 59.3264 78.0916 58.9309Z" fill="#D96B5A"/>
<path opacity="0.65" d="M78.0918 59.0623C74.2686 58.6668 70.9727 61.4353 70.5772 65.2586C70.1817 69.0818 72.9502 72.3777 76.7734 72.7732C80.5967 73.1687 83.8926 70.4001 84.2881 66.5769C84.6836 62.7537 81.915 59.4578 78.0918 59.0623Z" fill="#D96A5A"/>
<path opacity="0.65" d="M78.0918 59.0623C74.4004 58.6668 70.9727 61.4353 70.709 65.1267C70.3135 68.8181 73.0821 72.2459 76.7735 72.5096C80.4649 72.9051 83.8926 70.1365 84.1563 66.4451C84.5518 62.7537 81.9151 59.4578 78.0918 59.0623Z" fill="#D96959"/>
<path opacity="0.65" d="M78.0918 59.1943C74.4004 58.7988 71.1045 61.4355 70.709 65.1269C70.3135 68.8183 73.0821 72.1142 76.7735 72.5097C80.4649 72.9052 83.7608 70.1367 84.1563 66.4453C84.5518 62.7539 81.7832 59.458 78.0918 59.1943Z" fill="#D96858"/>
<path opacity="0.65" d="M78.0921 59.1944C74.4007 58.7989 71.1048 61.5675 70.8411 65.127C70.4456 68.8184 73.2142 72.1143 76.7738 72.378C80.4652 72.7735 83.7611 70.005 84.0247 66.4454C84.4202 62.8858 81.7835 59.5899 78.0921 59.1944Z" fill="#D86757"/>
<path opacity="0.65" d="M78.0917 59.3261C74.4003 58.9306 71.2363 61.5673 70.8408 65.2587C70.4453 68.9501 73.082 72.1142 76.7734 72.5097C80.4648 72.9052 83.6288 70.2685 84.0244 66.5771C84.4199 62.8857 81.7831 59.5898 78.0917 59.3261Z" fill="#D86657"/>
<path opacity="0.65" d="M78.0918 59.3262C74.5322 58.9307 71.2363 61.5674 70.9726 65.1269C70.5771 68.6865 73.2139 71.9824 76.7734 72.2461C80.333 72.6416 83.6289 70.0049 83.8925 66.4453C84.2881 62.8857 81.6513 59.7217 78.0918 59.3262Z" fill="#D86556"/>
<path opacity="0.65" d="M78.0918 59.4582C74.5322 59.0627 71.3682 61.6995 70.9726 65.259C70.5771 68.8186 73.2139 71.9826 76.7734 72.3781C80.333 72.7737 83.497 70.1369 83.8925 66.5774C84.2881 62.886 81.6513 59.7219 78.0918 59.4582Z" fill="#D86455"/>
<path opacity="0.65" d="M78.092 59.4582C74.5325 59.0627 71.5002 61.6995 71.1047 65.259C70.7092 68.8186 73.3459 71.8508 76.9055 72.2463C80.4651 72.6418 83.4973 70.0051 83.8928 66.4455C84.1565 63.0178 81.6516 59.8537 78.092 59.4582Z" fill="#D86354"/>
<path opacity="0.65" d="M78.0921 59.5896C74.6643 59.1941 71.5003 61.8308 71.1048 65.2586C70.7093 68.6863 73.346 71.8504 76.7737 72.2459C80.2014 72.6414 83.3655 70.0047 83.761 66.5769C84.1565 63.0174 81.5198 59.8533 78.0921 59.5896Z" fill="#D76253"/>
<path opacity="0.65" d="M78.0918 59.5899C74.6641 59.1944 71.6319 61.6993 71.2364 65.2588C70.8409 68.6866 73.3457 71.7188 76.9053 72.1143C80.333 72.5098 83.3653 70.0049 83.7608 66.4453C84.0244 63.0176 81.5196 59.9854 78.0918 59.5899Z" fill="#D76153"/>
<path opacity="0.65" d="M78.0914 59.7215C74.6637 59.326 71.6314 61.8309 71.3678 65.2586C70.9723 68.6864 73.4771 71.7186 76.9049 71.9822C80.3326 72.3778 83.3648 69.8729 83.6285 66.4451C84.024 63.0174 81.5191 59.9852 78.0914 59.7215Z" fill="#D76052"/>
<path opacity="0.65" d="M78.0914 59.7215C74.6637 59.326 71.7633 61.8309 71.3678 65.2586C70.9723 68.6864 73.4771 71.5867 76.9049 71.9822C80.3326 72.3778 83.233 69.8729 83.6285 66.4451C83.8922 63.1492 81.3873 60.117 78.0914 59.7215Z" fill="#D75F51"/>
<path opacity="0.65" d="M78.0917 59.8536C74.7958 59.4581 71.7636 61.963 71.4999 65.2589C71.1044 68.5548 73.6093 71.587 76.9052 71.8507C80.2011 72.2462 83.2333 69.7413 83.4969 66.4454C83.8925 63.1495 81.3876 60.1173 78.0917 59.8536Z" fill="#D75E50"/>
<path opacity="0.65" d="M78.0918 59.8537C74.7959 59.5901 71.8955 61.9631 71.5 65.259C71.2363 68.5549 73.6094 71.4553 76.9052 71.8508C80.2011 72.1145 83.1015 69.7414 83.497 66.4455C83.7607 63.1496 81.3877 60.2492 78.0918 59.8537Z" fill="#D65D50"/>
<path opacity="0.65" d="M78.0918 59.9853C74.7959 59.7217 71.8955 62.0947 71.6318 65.2588C71.3682 68.5547 73.7412 71.4551 76.9053 71.7187C80.2012 71.9824 83.1015 69.6094 83.3652 66.4453C83.7607 63.1494 81.2558 60.249 78.0918 59.9853Z" fill="#D65C4F"/>
<path opacity="0.65" d="M78.0916 59.9854C74.9275 59.7217 72.0271 61.9629 71.6316 65.2588C71.368 68.4229 73.6092 71.3233 76.9051 71.7188C80.0691 71.9824 82.9695 69.7412 83.365 66.4453C83.6287 63.1494 81.2556 60.3809 78.0916 59.9854Z" fill="#D65B4E"/>
<path opacity="0.65" d="M78.0919 60.1172C74.9278 59.8536 72.0274 62.0948 71.7637 65.2588C71.5001 68.4229 73.7413 71.3233 76.9053 71.587C80.0694 71.8506 82.9698 69.6094 83.2334 66.4454C83.4971 63.2813 81.2559 60.3809 78.0919 60.1172Z" fill="#D65A4D"/>
<path opacity="0.65" d="M78.0919 60.1172C74.9278 59.8536 72.1592 62.0948 71.7637 65.2588C71.5001 68.4229 73.7413 71.1915 76.9053 71.587C80.0694 71.8506 82.8379 69.6094 83.2334 66.4454C83.4971 63.2813 81.1241 60.5128 78.0919 60.1172Z" fill="#D5594C"/>
<path opacity="0.65" d="M77.96 60.2491C74.7959 59.9854 72.0274 62.2266 71.7637 65.3907C71.5001 68.5547 73.7413 71.3233 76.9053 71.587C80.0694 71.8506 82.8379 69.6094 83.1016 66.4454C83.3653 63.2813 81.1241 60.5128 77.96 60.2491Z" fill="#D5584C"/>
<path opacity="0.65" d="M77.96 60.2491C74.9278 59.9854 72.1593 62.2266 71.7637 65.2589C71.5001 68.2911 73.7413 71.0596 76.7735 71.4551C79.8057 71.7188 82.5743 69.4776 82.9698 66.4454C83.3653 63.2813 81.1241 60.5128 77.96 60.2491Z" fill="#D5574B"/>
<path opacity="0.65" d="M77.96 60.3812C74.9278 60.1175 72.1593 62.3587 71.8956 65.3909C71.6319 68.4232 73.8731 71.1917 76.9053 71.4554C79.9376 71.7191 82.7061 69.4778 82.9698 66.4456C83.2335 63.4134 81.1241 60.6449 77.96 60.3812Z" fill="#D5564A"/>
<path opacity="0.65" d="M77.96 60.3809C74.9277 60.1172 72.291 62.2266 72.0274 65.2588C71.7637 68.291 73.8731 70.9277 76.9053 71.1914C79.9375 71.4551 82.5742 69.3457 82.8379 66.3135C83.2334 63.4131 80.9922 60.6445 77.96 60.3809Z" fill="#D55549"/>
<path opacity="0.65" d="M77.96 60.5127C75.0596 60.1171 72.4229 62.3584 72.0274 65.2587C71.7637 68.291 73.8731 70.9277 76.9053 71.1914C79.9375 71.455 82.5742 69.3457 82.8379 66.3134C83.1016 63.413 80.9922 60.7763 77.96 60.5127Z" fill="#D45449"/>
<path opacity="0.65" d="M77.9602 60.513C75.0598 60.2493 72.4231 62.3587 72.1595 65.2591C71.8958 68.1595 74.0052 70.7962 76.9056 71.0598C79.8059 71.3235 82.4427 69.2141 82.7063 66.3138C83.1018 63.4134 80.9925 60.7766 77.9602 60.513Z" fill="#D45348"/>
<path opacity="0.65" d="M77.9602 60.6446C75.0598 60.3809 72.4231 62.4903 72.1595 65.3907C71.8958 68.291 74.0052 70.9278 76.9056 71.1914C79.8059 71.4551 82.4427 69.3457 82.7063 66.4453C82.97 63.4131 80.8606 60.9082 77.9602 60.6446Z" fill="#D45247"/>
</g>
<path d="M47.1098 51.8112C47.1098 51.8112 43.4184 55.2389 46.978 58.1393C50.1421 60.776 56.3383 60.1169 56.3383 60.1169C56.3383 60.1169 51.8559 46.5378 47.1098 51.8112Z" fill="white"/>
<path d="M70.8408 60.5127C70.8408 60.5127 72.9502 61.6993 76.3779 62.6221C80.5967 63.6768 84.1562 60.5127 84.1562 55.2393C84.1562 55.1075 76.2461 51.2842 70.8408 60.5127Z" fill="white"/>
<path d="M47.5054 44.4285L48.0327 45.3514C48.0327 45.3514 53.8335 41.7918 58.7114 49.9656L59.5024 46.8016C59.5024 46.8016 54.8882 39.2869 47.5054 44.4285Z" fill="#381911"/>
<path d="M71.7632 47.988L71.895 51.2839C78.355 44.1648 83.3647 48.7791 83.3647 48.7791L84.1558 47.988C77.6958 41.5281 71.7632 47.988 71.7632 47.988Z" fill="#381911"/>
<path d="M52.5152 67.7634C52.5152 67.7634 52.1197 78.574 62.4029 79.365C71.8951 80.156 75.3228 69.741 75.3228 69.741C60.8209 79.365 52.5152 67.7634 52.5152 67.7634Z" fill="#6C332E"/>
<path d="M71.7636 71.7187C63.3262 75.6738 57.3936 72.2461 54.4932 69.873C54.0977 70.6641 53.7021 71.4551 53.1748 72.2461C54.2295 75.2783 56.6025 78.8379 62.2715 79.3652C67.0176 79.7607 70.3135 77.2558 72.291 74.751C72.0273 73.8281 71.7636 72.7734 71.7636 71.7187Z" fill="white"/>
<path opacity="0.3" d="M71.7637 71.7187C63.3262 75.6738 57.3936 72.2461 54.4932 69.873C54.0977 70.6641 53.7021 71.4551 53.1748 72.2461C53.4385 73.0371 53.834 73.8281 54.2295 74.6191C55.416 73.8281 56.7344 73.8281 58.1846 73.8281C58.9756 73.8281 60.9531 73.96 62.4033 74.2236C65.04 74.751 67.2812 75.8057 68.7314 77.7832C70.1816 76.9922 71.3681 75.8057 72.1592 74.751C72.0273 73.8281 71.7637 72.7734 71.7637 71.7187Z" fill="#D8CDBA"/>
<path d="M66.4898 55.2393L63.5895 55.5029C63.5895 55.5029 64.5123 58.0078 62.6666 59.9853C62.6666 59.9853 56.4703 59.458 56.9977 65.1269C58.316 70.4004 68.3355 70.664 67.6764 61.1719C67.6764 58.9307 66.7535 56.6895 66.4898 55.2393Z" fill="#E5A185"/>
<path opacity="0.1" d="M63.5898 55.5029C63.5898 55.5029 64.5127 58.0078 62.667 59.9853C62.667 59.9853 57.7891 59.5898 57.1299 63.4131C58.9756 64.0723 60.8213 64.3359 62.7988 64.3359C64.9082 61.6992 66.3584 58.4033 65.4355 55.2393L63.5898 55.5029Z" fill="white"/>
<path d="M56.998 65.1267C56.998 65.2585 56.998 65.2585 56.998 65.2585C58.0527 69.4773 64.7764 70.532 67.0176 65.7859C63.7217 66.7087 60.2939 66.5769 56.998 65.1267Z" fill="#D78C74"/>
<path d="M53.5698 53.1296C53.438 52.8659 53.1743 52.6022 52.9106 52.4704C51.4605 51.5476 50.1421 53.5251 49.7466 54.5798C48.9556 56.5573 49.2192 58.5349 50.4058 58.9304C52.5151 59.8532 54.7563 56.2936 54.3608 54.4479C54.229 54.0524 54.0972 53.7888 53.9653 53.5251C53.7017 53.5251 53.7017 53.2614 53.5698 53.1296Z" fill="url(#paint7_linear)"/>
<path d="M80.0691 54.8436C78.8826 54.3163 77.1687 55.5028 76.3777 57.3485C75.5867 59.326 75.8503 61.3036 77.0369 61.6991C78.2234 62.2264 79.9373 61.0399 80.7283 59.1942C81.5193 57.3485 81.2556 55.371 80.0691 54.8436Z" fill="url(#paint8_linear)"/>
<path d="M51.4609 48.7793C48.165 47.3291 45.792 51.4161 45.792 51.4161L45.2646 50.2295L43.8145 51.8116L45.792 53.6573C45.792 53.6573 47.9014 49.9659 50.4062 50.7569C52.9111 51.6797 56.4707 60.1172 56.4707 60.1172C56.4707 60.1172 54.7568 50.3614 51.4609 48.7793Z" fill="#381911"/>
<path d="M85.4746 54.8435C85.4746 54.8435 82.8379 51.6794 78.0918 52.4705C73.3457 53.2615 70.8408 60.6443 70.8408 60.6443C70.8408 60.6443 74.6641 56.1619 78.6191 54.9753C82.0469 54.0525 84.0244 57.4802 84.0244 57.4802L87.8476 55.7664L87.0566 53.1296L85.4746 54.8435Z" fill="#381911"/>
<path d="M100.636 37.3093C100.636 37.3093 91.0117 4.74587 65.831 9.88747C48.8242 13.447 36.5635 29.0037 29.3125 49.8337C42.6279 36.1228 70.5771 39.946 88.5068 34.0134C82.706 48.6472 93.5165 60.6443 103.272 71.4548C105.25 73.5642 106.568 75.8054 107.491 78.1784C110.392 58.0075 107.623 36.6501 100.636 37.3093Z" fill="#FCCE83"/>
<path opacity="0.36" d="M86.793 42.8467C86.9248 46.2744 87.7158 49.4385 89.166 52.6025C95.3623 53.1299 101.69 52.4707 107.887 50.7568C107.623 49.1748 107.359 47.5928 107.096 46.2744C100.24 47.3291 93.2529 46.1426 86.793 42.8467Z" fill="white"/>
<path opacity="0.36" d="M65.435 10.0195C58.7114 11.4697 52.7788 14.7656 47.5054 19.6435C49.3511 26.8945 53.7017 33.4863 59.1069 38.7597C65.435 37.9687 71.7632 37.4414 77.8276 36.5185C70.8403 29.9267 64.1167 19.5117 65.435 10.0195Z" fill="white"/>
<path d="M97.6034 58.5349C94.9667 57.3484 91.4071 59.4578 89.6932 63.4129C87.9794 67.3679 88.7704 71.5867 91.4071 72.7732C94.0438 73.9597 97.6034 71.8503 99.3173 67.8953C101.031 63.9402 100.372 59.7215 97.6034 58.5349Z" fill="#E5A185"/>
<path d="M90.0883 67.7634C85.4741 78.4421 74.3999 87.5388 62.9302 88.198C57.1294 88.4617 51.9878 86.4841 47.5054 83.3201C50.9331 87.2751 55.6792 89.9118 61.8755 90.7029C72.8178 91.7575 84.2876 83.1882 90.352 71.8503C90.7475 72.2458 91.143 72.5095 91.5385 72.7732C94.0434 73.9597 97.3393 71.9822 99.185 68.4226C99.185 68.4226 96.9438 70.0046 95.8891 70.2683C93.2524 70.7957 91.8022 69.6091 90.0883 67.7634Z" fill="#D78C74"/>
<path d="M92.1978 65.3906L94.9663 66.0498C95.23 62.0947 98.394 61.04 98.394 61.04C93.6479 58.9306 92.1978 65.3906 92.1978 65.3906Z" fill="#D78C74"/>
<path d="M51.0654 56.0302C51.0654 56.5575 50.5381 57.0849 49.7471 57.2167C48.9561 57.3485 48.4287 57.0849 48.4287 56.5575C48.4287 56.0302 48.9561 55.5028 49.7471 55.371C50.4062 55.2392 51.0654 55.5028 51.0654 56.0302Z" fill="white"/>
<path d="M77.8276 58.5351C77.8276 59.0624 77.3003 59.5897 76.5093 59.7216C75.7183 59.8534 75.1909 59.5897 75.1909 59.0624C75.1909 58.5351 75.7183 58.0077 76.5093 57.8759C77.1685 57.744 77.8276 58.0077 77.8276 58.5351Z" fill="white"/>
<path d="M52.5156 67.7634C52.5156 67.7634 55.5478 70.6638 62.0078 71.323C68.4678 71.9822 75.1914 69.741 75.1914 69.741C75.1914 69.741 70.0498 74.6189 62.2715 73.5642C54.625 72.5095 52.5156 67.7634 52.5156 67.7634Z" fill="#DD6464"/>
<path d="M52.5154 67.7634C52.5154 67.7634 53.4383 76.8601 61.3484 77.9148C68.3357 78.7058 75.323 69.741 75.323 69.741C75.323 69.741 72.2908 81.4744 61.4803 80.6833C50.0105 79.7605 52.5154 67.7634 52.5154 67.7634Z" fill="#EA7171"/>
<path opacity="0.37" d="M60.5572 81.7383C61.0845 81.8701 61.7437 81.8701 62.4029 81.8701C63.1939 81.8701 63.8531 82.6611 63.5894 83.4521C63.3258 84.1113 62.7984 84.7705 61.3482 84.7705C60.0299 84.7705 59.3707 83.9795 59.107 83.3203C58.9752 82.5293 59.7662 81.7383 60.5572 81.7383Z" fill="#D78C74"/>
<path d="M37.6616 127.727L39.0499 123.562M39.0499 123.562L36.736 123.1L38.1243 118.472L38.5871 118.621M39.0499 123.562L47.5957 126.163M47.5957 126.163L49.6938 126.802L50.7736 123.562M47.5957 126.163L45.9916 131.43M49.6938 122.191L51.0822 122.637L50.7736 123.562M49.6938 122.191L52.0077 108.291M49.6938 122.191L38.5871 118.621M38.5871 118.621L42.5735 108.291M52.4705 98.1094C46.9171 98.8499 43.6777 104.897 42.7521 107.828L42.5735 108.291M52.4705 98.1094C53.7046 103.2 58.4866 113.289 67.7422 112.918C79.3117 112.456 79.3117 106.439 79.3117 104.588M52.4705 98.1094L55.71 97.1839C57.2526 101.503 62.2814 109.957 70.0561 109.216C77.8308 108.476 74.5297 100.578 71.9073 96.7211H75.6095C75.7156 96.8625 75.8271 97.0175 75.9425 97.1839M79.3117 104.588C79.3117 102.879 77.3379 99.1952 75.9425 97.1839M79.3117 104.588C81.1629 110.142 83.4767 110.604 85.7906 112.456C87.6418 113.937 89.0301 115.541 89.4929 116.158M75.9425 97.1839C77.8369 97.0296 82.181 97.0913 84.4023 98.5722C86.9293 100.257 90.2229 105.008 92.1901 108.291M95.0462 113.381C94.892 113.073 94.2132 111.808 92.7323 109.216C92.5659 108.925 92.3845 108.615 92.1901 108.291M95.0462 113.381L89.4929 116.158M95.0462 113.381L97.8229 118.472L95.7068 119.397M89.4929 116.158C90.2299 117.171 91.3409 119.054 91.9587 121.037M90.8812 130.967C91.0355 130.196 91.5291 127.912 92.2696 124.951C92.5678 123.758 92.3755 122.374 91.9587 121.037M91.9587 121.037L95.7068 119.397M95.7068 119.397L99.674 126.802M50.7736 123.562L54.3216 133.743M42.5735 108.291C38.1595 107.519 28.3134 103.663 24.2409 94.4072C20.1685 85.1516 24.3952 65.5606 27.0176 56.922C29.4858 47.975 37.0138 28.0446 47.3801 19.8997C60.3379 9.7185 72.833 6.47904 84.8653 13.8835C94.4911 19.8071 99.3657 32.0862 100.6 37.4852C102.759 37.6395 107.264 40.9098 108.004 52.757C108.93 67.5659 108.771 100.423 92.1901 108.291" stroke="white" stroke-width="1.77"/>
<defs>
<linearGradient id="paint0_linear" x1="69.8038" y1="-3.1573" x2="63.7256" y2="135.16" gradientUnits="userSpaceOnUse">
<stop stop-color="#E021FF"/>
<stop offset="1" stop-color="#FF7171"/>
</linearGradient>
<linearGradient id="paint1_linear" x1="86.3385" y1="96.467" x2="84.9639" y2="123.961" gradientUnits="userSpaceOnUse">
<stop stop-color="#EC0EFF"/>
<stop offset="1" stop-color="#5C23B9"/>
</linearGradient>
<linearGradient id="paint2_linear" x1="90.4133" y1="113.264" x2="89.9225" y2="150.226" gradientUnits="userSpaceOnUse">
<stop stop-color="#21D1FF"/>
<stop offset="1" stop-color="#993CFE"/>
</linearGradient>
<linearGradient id="paint3_linear" x1="70.3865" y1="95.8701" x2="68.9137" y2="135.198" gradientUnits="userSpaceOnUse">
<stop stop-color="#EC0EFF"/>
<stop offset="1" stop-color="#5C23B9"/>
</linearGradient>
<linearGradient id="paint4_linear" x1="45.4626" y1="97.3011" x2="43.2956" y2="125.162" gradientUnits="userSpaceOnUse">
<stop stop-color="#EC0EFF"/>
<stop offset="1" stop-color="#5C23B9"/>
</linearGradient>
<linearGradient id="paint5_linear" x1="44.1981" y1="118.188" x2="43.8601" y2="148.196" gradientUnits="userSpaceOnUse">
<stop stop-color="#21D1FF"/>
<stop offset="1" stop-color="#993CFE"/>
</linearGradient>
<linearGradient id="paint6_linear" x1="66.4687" y1="96.1214" x2="65.8002" y2="153.398" gradientUnits="userSpaceOnUse">
<stop stop-color="#21D1FF"/>
<stop offset="1" stop-color="#993CFE"/>
</linearGradient>
<linearGradient id="paint7_linear" x1="50.3286" y1="59.6129" x2="53.6816" y2="50.6716" gradientUnits="userSpaceOnUse">
<stop stop-color="#68AAAA"/>
<stop offset="1"/>
</linearGradient>
<linearGradient id="paint8_linear" x1="76.9735" y1="63.0873" x2="79.8583" y2="54.3426" gradientUnits="userSpaceOnUse">
<stop stop-color="#68AAAA"/>
<stop offset="1"/>
</linearGradient>
</defs>
</svg>
