<svg width="159" height="159" viewBox="0 0 159 159" fill="none" xmlns="http://www.w3.org/2000/svg">
<path opacity="0.4" d="M79.5 152.393C119.758 152.393 152.393 119.758 152.393 79.5C152.393 39.2424 119.758 6.60718 79.5 6.60718C39.2424 6.60718 6.60718 39.2424 6.60718 79.5C6.60718 119.758 39.2424 152.393 79.5 152.393Z" fill="url(#paint0_linear)"/>
<path opacity="0.4" d="M79.5 158C122.854 158 158 122.854 158 79.5C158 36.1456 122.854 1 79.5 1C36.1456 1 1 36.1456 1 79.5C1 122.854 36.1456 158 79.5 158Z" stroke="url(#paint1_linear)" stroke-width="2"/>
<path d="M79.4998 147.433C117.018 147.433 147.433 117.018 147.433 79.4998C147.433 41.9816 117.018 11.5671 79.4998 11.5671C41.9816 11.5671 11.5671 41.9816 11.5671 79.4998C11.5671 117.018 41.9816 147.433 79.4998 147.433Z" fill="url(#paint2_linear)"/>
<path d="M132.949 94.3279L134.439 98.3551L138.467 99.8453L134.439 101.335L132.949 105.363L131.459 101.335L127.432 99.8453L131.459 98.3551L132.949 94.3279Z" fill="white"/>
<path d="M22.6017 80.5344L23.1606 82.0446L24.6707 82.6034L23.1606 83.1623L22.6017 84.6725L22.0429 83.1623L20.5327 82.6034L22.0429 82.0446L22.6017 80.5344Z" fill="white"/>
<path d="M47.4301 25.3606L48.1752 27.3742L50.1888 28.1193L48.1752 28.8644L47.4301 30.878L46.685 28.8644L44.6714 28.1193L46.685 27.3742L47.4301 25.3606Z" fill="white"/>
<path d="M123.294 51.5681L124.039 53.5817L126.053 54.3268L124.039 55.0719L123.294 57.0855L122.549 55.0719L120.535 54.3268L122.549 53.5817L123.294 51.5681Z" fill="white"/>
<path d="M55.0163 77.7756L55.3889 78.7824L56.3957 79.155L55.3889 79.5275L55.0163 80.5343L54.6438 79.5275L53.637 79.155L54.6438 78.7824L55.0163 77.7756Z" fill="white"/>
<path d="M37.7747 55.7061L39.0786 59.2298L42.6024 60.5338L39.0786 61.8377L37.7747 65.3615L36.4708 61.8377L32.947 60.5338L36.4708 59.2298L37.7747 55.7061Z" fill="white"/>
<path d="M111.57 94.3279L111.942 95.3347L112.949 95.7072L111.942 96.0798L111.57 97.0866L111.197 96.0798L110.19 95.7072L111.197 95.3347L111.57 94.3279Z" fill="white"/>
<path d="M29.7444 125.673C35.5824 132.042 42.7471 137.216 50.708 140.931C56.2806 133.103 60.5264 126.204 60.6591 125.938L52.3002 107.628C42.8798 110.415 35.317 118.11 29.7444 125.673Z" fill="url(#paint3_linear)"/>
<path d="M51.9022 63.7109C49.2486 64.6397 47.9218 68.6201 49.1159 72.6005C50.31 76.581 53.4944 79.1019 56.2807 78.1731C58.9343 77.2444 60.2611 73.2639 59.067 69.2835C57.7402 65.4358 54.5558 62.9148 51.9022 63.7109Z" fill="#D78C74"/>
<path d="M78.9687 81.0922C73.1308 80.9595 68.4869 82.9497 68.3542 87.1955L66.6294 107.23C66.6294 111.476 72.4674 112.14 78.438 112.14C84.276 112.272 89.1852 111.476 89.1852 107.363L88.9198 88.5223C88.9198 84.4092 84.9394 81.2248 78.9687 81.0922Z" fill="#D78C74"/>
<path d="M99.2692 39.961C97.677 30.5407 71.1408 26.1622 63.3126 39.0323C60.7917 45.0029 56.8113 56.2808 55.3518 67.2933C55.3518 67.1606 55.3518 67.1606 55.3518 67.1606C55.3518 67.1606 48.0543 96.7485 74.4579 98.606C100.729 100.464 103.648 86.5321 102.586 69.2835C102.719 59.5978 101.259 47.2585 99.2692 39.961Z" fill="#E5A185"/>
<g opacity="0.38">
<path opacity="0.38" d="M64.7721 62.6495C59.5976 62.5168 55.2191 67.1607 55.2191 72.8659C55.0864 78.5712 59.3322 83.2151 64.5068 83.3477C69.6813 83.4804 74.0598 78.8366 74.0598 73.1313C74.1925 67.426 70.0794 62.7822 64.7721 62.6495Z" fill="#E5A185"/>
<path opacity="0.38" d="M64.7721 62.6495C59.5976 62.5168 55.3518 67.1607 55.2191 72.7333C55.0864 78.3059 59.3322 83.0824 64.5068 83.0824C69.6813 83.2151 73.9271 78.5712 74.0598 72.9986C74.1925 67.426 69.9467 62.7822 64.7721 62.6495Z" fill="#E5A084"/>
<path opacity="0.38" d="M64.7721 62.7822C59.5975 62.6495 55.3518 67.1606 55.3518 72.8659C55.2191 78.4385 59.3322 83.0824 64.5067 83.215C69.6813 83.3477 73.9271 78.8366 73.9271 73.1313C74.0598 67.426 69.9467 62.7822 64.7721 62.7822Z" fill="#E59F83"/>
<path opacity="0.38" d="M64.7721 62.7822C59.5975 62.6495 55.4844 67.1606 55.3518 72.7332C55.2191 78.3058 59.3322 82.9497 64.5067 82.9497C69.6813 83.0824 73.7944 78.5712 73.9271 72.9986C74.0598 67.5587 69.9467 62.9148 64.7721 62.7822Z" fill="#E49E83"/>
<path opacity="0.38" d="M64.7721 62.9147C59.7302 62.782 55.4844 67.2932 55.3518 72.8658C55.2191 78.4384 59.3322 82.9496 64.3741 83.0822C69.4159 83.2149 73.6617 78.7038 73.7944 73.1312C73.9271 67.5586 69.9467 62.9147 64.7721 62.9147Z" fill="#E49D82"/>
<path opacity="0.38" d="M64.7718 62.9147C59.7299 62.782 55.6168 67.2932 55.4841 72.7331C55.3514 78.3057 59.4645 82.8169 64.5064 82.8169C69.5483 82.9496 73.6614 78.4384 73.7941 72.9985C73.9268 67.5586 69.8136 63.0474 64.7718 62.9147Z" fill="#E49C81"/>
<path opacity="0.38" d="M64.7718 63.0475C59.7299 62.9149 55.6168 67.426 55.4841 72.8659C55.3514 78.3059 59.4645 82.817 64.5064 82.9497C69.5483 83.0824 73.6614 78.5712 73.7941 73.1313C73.7941 67.5587 69.8136 63.0475 64.7718 63.0475Z" fill="#E49B80"/>
<path opacity="0.38" d="M64.7717 63.0474C59.7299 62.9147 55.6167 67.2932 55.6167 72.7331C55.4841 78.173 59.4645 82.6842 64.5064 82.6842C69.5483 82.8168 73.6614 78.4384 73.6614 72.9985C73.7941 67.6912 69.8136 63.1801 64.7717 63.0474Z" fill="#E49A80"/>
<path opacity="0.38" d="M64.7717 63.1799C59.8625 63.0473 55.7494 67.4257 55.6167 72.8657C55.4841 78.3056 59.4645 82.684 64.5064 82.8167C69.4156 82.9494 73.5287 78.5709 73.6614 73.131C73.6614 67.6911 69.8136 63.1799 64.7717 63.1799Z" fill="#E3997F"/>
<path opacity="0.38" d="M64.7721 63.1799C59.8629 63.0473 55.7498 67.4257 55.7498 72.733C55.6171 78.0402 59.5976 82.5514 64.5068 82.5514C69.416 82.684 73.5291 78.3056 73.5291 72.9983C73.6617 67.6911 69.6813 63.3126 64.7721 63.1799Z" fill="#E3987E"/>
<path opacity="0.38" d="M64.7721 63.3125C59.8629 63.1798 55.8825 67.5583 55.7498 72.8655C55.6171 78.1728 59.5976 82.5513 64.5068 82.6839C69.416 82.8166 73.3964 78.4381 73.5291 73.1309C73.5291 67.691 69.6813 63.3125 64.7721 63.3125Z" fill="#E3977D"/>
<path opacity="0.38" d="M64.7722 63.3126C59.863 63.1799 55.8826 67.4257 55.8826 72.733C55.7499 78.0402 59.7304 82.4187 64.5069 82.4187C69.4161 82.5514 73.3965 78.3056 73.3965 72.9983C73.5292 67.8238 69.6814 63.4453 64.7722 63.3126Z" fill="#E3967C"/>
<path opacity="0.38" d="M64.7722 63.4457C59.9957 63.313 56.0153 67.5588 55.8826 72.866C55.7499 78.1733 59.7304 82.419 64.5069 82.5517C69.2834 82.6844 73.2638 78.4386 73.3965 73.1314C73.5292 67.8241 69.5488 63.4457 64.7722 63.4457Z" fill="#E2957C"/>
<path opacity="0.38" d="M64.7715 63.4453C59.995 63.4453 56.0146 67.5584 56.0146 72.733C55.8819 77.9075 59.7296 82.286 64.5062 82.286C69.2827 82.286 73.2631 78.1729 73.2631 72.9983C73.3958 67.8238 69.548 63.578 64.7715 63.4453Z" fill="#E2947B"/>
<path opacity="0.38" d="M64.7715 63.5781C59.995 63.5781 56.1472 67.6912 56.0146 72.8658C55.8819 78.0404 59.7296 82.2862 64.5062 82.4188C69.2827 82.4188 73.1304 78.3057 73.2631 73.1312C73.3958 67.8239 69.548 63.5781 64.7715 63.5781Z" fill="#E2937A"/>
<path opacity="0.38" d="M64.7715 63.5781C59.995 63.5781 56.1472 67.6912 56.0146 72.7331C55.8819 77.9077 59.7296 82.1535 64.5062 82.1535C69.2827 82.1535 73.1304 78.0404 73.2631 72.9985C73.2631 67.9566 69.548 63.7108 64.7715 63.5781Z" fill="#E29279"/>
<path opacity="0.38" d="M64.7719 63.7107C60.1281 63.7107 56.1476 67.6911 56.1476 72.8657C56.0149 78.0402 59.8627 82.1534 64.5065 82.286C69.1504 82.286 73.1308 78.3056 73.1308 73.1311C73.2635 67.9565 69.4157 63.7107 64.7719 63.7107Z" fill="#E29179"/>
<path opacity="0.38" d="M64.7719 63.7107C60.1281 63.7107 56.2803 67.6911 56.1476 72.733C56.0149 77.7749 59.8627 82.0207 64.5065 82.0207C69.1504 82.0207 72.9981 78.0402 73.1308 72.9984C73.1308 67.9565 69.4157 63.8434 64.7719 63.7107Z" fill="#E19078"/>
<path opacity="0.38" d="M64.7721 63.8435C60.1283 63.8435 56.2805 67.8239 56.2805 72.8658C56.1479 77.9077 59.8629 82.0208 64.5068 82.1535C69.1506 82.1535 72.9984 78.1731 72.9984 73.1312C73.131 67.9566 69.416 63.8435 64.7721 63.8435Z" fill="#E18F77"/>
<path opacity="0.38" d="M64.7721 63.8435C60.1283 63.8435 56.4132 67.8239 56.2805 72.8658C56.1479 77.9077 59.8629 82.0208 64.5068 82.0208C69.1506 82.0208 72.8657 78.0404 72.9984 72.9985C72.9984 68.0893 69.416 63.9762 64.7721 63.8435Z" fill="#E18E76"/>
<path opacity="0.38" d="M72.93 73.0748C72.9983 68.0924 69.3711 64.0029 64.8283 63.9406C60.2856 63.8783 56.5475 67.8668 56.4792 72.8492C56.4109 77.8316 60.0381 81.9211 64.5809 81.9834C69.1236 82.0457 72.8617 78.0572 72.93 73.0748Z" fill="#E18D75"/>
<path opacity="0.38" d="M72.9301 73.0744C72.9975 68.1653 69.3694 64.1352 64.8267 64.0729C60.2839 64.0106 56.5467 67.9397 56.4793 72.8488C56.412 77.7579 60.0401 81.7881 64.5828 81.8504C69.1256 81.9127 72.8628 77.9836 72.9301 73.0744Z" fill="#E18C75"/>
<path opacity="0.38" d="M72.7974 73.0728C72.8647 68.1637 69.2961 64.1343 64.8266 64.073C60.3571 64.0117 56.6793 67.9416 56.6119 72.8508C56.5446 77.7599 60.1132 81.7892 64.5827 81.8505C69.0522 81.9118 72.73 77.9819 72.7974 73.0728Z" fill="#E08B74"/>
<path opacity="0.38" d="M72.7978 73.0726C72.8641 68.2368 69.2946 64.2669 64.8251 64.2056C60.3557 64.1443 56.6786 68.0148 56.6123 72.8506C56.546 77.6865 60.1154 81.6564 64.5849 81.7177C69.0544 81.779 72.7314 77.9085 72.7978 73.0726Z" fill="#E08A73"/>
<path opacity="0.38" d="M72.7978 73.0727C72.8641 68.2368 69.2947 64.2669 64.8252 64.2056C60.3557 64.1443 56.6787 68.0148 56.6123 72.8506C56.546 77.6865 60.1154 81.6564 64.5849 81.7177C69.0544 81.779 72.7314 77.9085 72.7978 73.0727Z" fill="#E08972"/>
<path opacity="0.38" d="M72.6644 73.0711C72.7298 68.3085 69.2189 64.3988 64.8227 64.3385C60.4264 64.2782 56.8096 68.0901 56.7443 72.8527C56.6789 77.6152 60.1898 81.525 64.586 81.5853C68.9823 81.6456 72.5991 77.8337 72.6644 73.0711Z" fill="#E08872"/>
<path opacity="0.38" d="M72.6644 73.0711C72.7298 68.3085 69.2189 64.3988 64.8227 64.3385C60.4265 64.2782 56.8097 68.0901 56.7443 72.8527C56.679 77.6152 60.1898 81.525 64.586 81.5853C68.9823 81.6456 72.5991 77.8337 72.6644 73.0711Z" fill="#DF8771"/>
<path opacity="0.38" d="M72.5319 73.0692C72.5973 68.3066 69.1458 64.3977 64.8229 64.3384C60.4999 64.2791 56.9425 68.0918 56.8771 72.8544C56.8118 77.617 60.2632 81.5259 64.5862 81.5852C68.9091 81.6445 72.4666 77.8318 72.5319 73.0692Z" fill="#DF8670"/>
<path opacity="0.38" d="M72.5323 73.0691C72.5967 68.3798 69.1444 64.5302 64.8214 64.4709C60.4985 64.4116 56.9419 68.1649 56.8775 72.8542C56.8132 77.5435 60.2654 81.3931 64.5884 81.4524C68.9113 81.5117 72.4679 77.7584 72.5323 73.0691Z" fill="#DF856F"/>
<path opacity="0.38" d="M72.4 73.0676C72.4644 68.3783 69.0715 64.5296 64.8218 64.4713C60.5722 64.413 57.0749 68.1671 57.0106 72.8564C56.9462 77.5457 60.3391 81.3945 64.5888 81.4528C68.8385 81.5111 72.3357 77.757 72.4 73.0676Z" fill="#DF846F"/>
<path opacity="0.38" d="M72.3992 73.0673C72.4626 68.4512 69.0689 64.6619 64.8192 64.6036C60.5695 64.5453 57.0731 68.24 57.0097 72.856C56.9464 77.4721 60.3401 81.2614 64.5897 81.3197C68.8394 81.3781 72.3358 77.6833 72.3992 73.0673Z" fill="#DF836E"/>
<path opacity="0.38" d="M72.2667 73.0656C72.3301 68.4496 68.9958 64.6611 64.8194 64.6037C60.643 64.5464 57.2059 68.242 57.1426 72.858C57.0792 77.474 60.4135 81.2625 64.5899 81.3199C68.7663 81.3772 72.2033 77.6816 72.2667 73.0656Z" fill="#DE826D"/>
<path opacity="0.38" d="M72.2671 73.0657C72.3294 68.523 68.9944 64.7938 64.8179 64.7365C60.6415 64.6792 57.2053 68.3153 57.143 72.8581C57.0806 77.4009 60.4157 81.13 64.5921 81.1873C68.7685 81.2447 72.2047 77.6085 72.2671 73.0657Z" fill="#DE816C"/>
<path opacity="0.38" d="M72.2671 73.0657C72.3295 68.523 68.9944 64.7939 64.818 64.7365C60.6416 64.6792 57.2053 68.3153 57.143 72.8581C57.0806 77.4009 60.4157 81.13 64.5921 81.1873C68.7685 81.2447 72.2047 77.6085 72.2671 73.0657Z" fill="#DE806B"/>
<path opacity="0.38" d="M72.1345 73.0637C72.1958 68.5942 68.9193 64.9253 64.8162 64.8689C60.7131 64.8126 57.337 68.3902 57.2757 72.8597C57.2143 77.3292 60.4908 80.9981 64.5939 81.0544C68.6971 81.1108 72.0731 77.5332 72.1345 73.0637Z" fill="#DE7F6B"/>
<path opacity="0.38" d="M72.1345 73.0637C72.1959 68.5942 68.9194 64.9253 64.8162 64.869C60.7131 64.8126 57.3371 68.3902 57.2757 72.8597C57.2143 77.3292 60.4908 80.9981 64.5939 81.0544C68.6971 81.1108 72.0731 77.5332 72.1345 73.0637Z" fill="#DE7E6A"/>
<path opacity="0.38" d="M72.0014 73.0619C72.0617 68.6657 68.8438 65.057 64.814 65.0016C60.7841 64.9463 57.4683 68.4652 57.4079 72.8615C57.3475 77.2577 60.5654 80.8664 64.5953 80.9217C68.6252 80.9771 71.941 77.4581 72.0014 73.0619Z" fill="#DD7D69"/>
<path opacity="0.38" d="M72.0014 73.0619C72.0618 68.6657 68.8439 65.057 64.814 65.0016C60.7841 64.9463 57.4683 68.4652 57.4079 72.8615C57.3475 77.2577 60.5654 80.8664 64.5953 80.9218C68.6252 80.9771 71.941 77.4581 72.0014 73.0619Z" fill="#DD7C68"/>
<path opacity="0.38" d="M71.8692 73.0601C71.9286 68.7371 68.7693 65.1886 64.8127 65.1343C60.8561 65.0799 57.6005 68.5403 57.5411 72.8633C57.4817 77.1862 60.641 80.7347 64.5977 80.7891C68.5543 80.8434 71.8098 77.3831 71.8692 73.0601Z" fill="#DD7B68"/>
<path opacity="0.38" d="M71.8692 73.0601C71.9286 68.7372 68.7693 65.1887 64.8127 65.1343C60.8561 65.0799 57.6005 68.5403 57.5411 72.8633C57.4817 77.1862 60.641 80.7347 64.5977 80.7891C68.5543 80.8435 71.8099 77.3831 71.8692 73.0601Z" fill="#DD7A67"/>
<path opacity="0.38" d="M71.7359 73.0583C71.7943 68.8086 68.6936 65.3203 64.8102 65.267C60.9269 65.2136 57.7315 68.6154 57.6731 72.8651C57.6147 77.1148 60.7154 80.6031 64.5988 80.6564C68.4821 80.7098 71.6775 77.308 71.7359 73.0583Z" fill="#DD7A66"/>
<path opacity="0.38" d="M71.7359 73.0583C71.7943 68.8086 68.6936 65.3203 64.8102 65.267C60.9269 65.2136 57.7315 68.6154 57.6731 72.8651C57.6147 77.1148 60.7154 80.6031 64.5988 80.6564C68.4821 80.7098 71.6775 77.308 71.7359 73.0583Z" fill="#DC7965"/>
<path opacity="0.38" d="M71.7363 73.0584C71.7937 68.882 68.6922 65.4531 64.8088 65.3998C60.9255 65.3464 57.7309 68.6888 57.6735 72.8652C57.6161 77.0416 60.7176 80.4705 64.601 80.5239C68.4843 80.5772 71.6789 77.2349 71.7363 73.0584Z" fill="#DC7864"/>
<path opacity="0.38" d="M71.604 73.0565C71.6614 68.8801 68.6193 65.452 64.8092 65.3996C60.9992 65.3473 57.864 68.6905 57.8066 72.8669C57.7492 77.0433 60.7913 80.4714 64.6014 80.5238C68.4114 80.5761 71.5466 77.2329 71.604 73.0565Z" fill="#DC7764"/>
<path opacity="0.38" d="M71.6037 73.0567C71.6601 68.9535 68.6171 65.5848 64.8071 65.5324C60.997 65.4801 57.8626 68.7639 57.8062 72.867C57.7498 76.9701 60.7928 80.3388 64.6028 80.3912C68.4129 80.4436 71.5473 77.1598 71.6037 73.0567Z" fill="#DC7663"/>
<path opacity="0.38" d="M71.4707 73.0547C71.5271 68.9516 68.5435 65.5837 64.8068 65.5323C61.07 65.481 57.995 68.7656 57.9386 72.8687C57.8822 76.9718 60.8657 80.3397 64.6025 80.3911C68.3393 80.4425 71.4143 77.1579 71.4707 73.0547Z" fill="#DB7562"/>
<path opacity="0.38" d="M71.4711 73.0551C71.5265 69.0252 68.5421 65.7167 64.8053 65.6653C61.0685 65.614 57.9944 68.8392 57.9389 72.869C57.8835 76.8989 60.8679 80.2074 64.6047 80.2588C68.3415 80.3102 71.4157 77.085 71.4711 73.0551Z" fill="#DB7461"/>
<path opacity="0.38" d="M71.3386 73.0529C71.394 69.0231 68.469 65.7154 64.8055 65.665C61.142 65.6146 58.1272 68.8406 58.0718 72.8705C58.0164 76.9004 60.9413 80.2081 64.6048 80.2585C68.2683 80.3088 71.2831 77.0828 71.3386 73.0529Z" fill="#DB7361"/>
<path opacity="0.38" d="M71.3385 73.0533C71.3929 69.0967 68.4671 65.8484 64.8036 65.798C61.1401 65.7476 58.1261 68.9142 58.0717 72.8708C58.0173 76.8275 60.943 80.0758 64.6065 80.1261C68.2701 80.1765 71.284 77.0099 71.3385 73.0533Z" fill="#DB7260"/>
<path opacity="0.38" d="M71.2057 73.0511C71.2601 69.0945 68.3938 65.847 64.8035 65.7977C61.2133 65.7483 58.2587 68.9157 58.2043 72.8723C58.1498 76.8289 61.0162 80.0764 64.6064 80.1258C68.1967 80.1752 71.1513 77.0077 71.2057 73.0511Z" fill="#DB715F"/>
<path opacity="0.38" d="M71.2053 73.0513C71.2588 69.1679 68.3916 65.9798 64.8013 65.9305C61.2111 65.8811 58.2573 68.9891 58.2039 72.8724C58.1505 76.7557 61.0176 79.9438 64.6079 79.9932C68.1981 80.0426 71.1519 76.9346 71.2053 73.0513Z" fill="#DA705E"/>
<path opacity="0.38" d="M71.2054 73.0513C71.2588 69.168 68.3916 65.9799 64.8014 65.9305C61.2111 65.8811 58.2573 68.9891 58.2039 72.8724C58.1505 76.7557 61.0176 79.9439 64.6079 79.9932C68.1981 80.0426 71.1519 76.9346 71.2054 73.0513Z" fill="#DA6F5D"/>
<path opacity="0.38" d="M71.0727 73.0492C71.1252 69.2392 68.3166 66.1113 64.7996 66.0629C61.2826 66.0145 58.389 69.0639 58.3366 72.874C58.2842 76.684 61.0928 79.8119 64.6098 79.8603C68.1267 79.9087 71.0203 76.8593 71.0727 73.0492Z" fill="#DA6E5D"/>
<path opacity="0.38" d="M71.0727 73.0492C71.1252 69.2392 68.3166 66.1113 64.7996 66.0629C61.2826 66.0145 58.3891 69.0639 58.3366 72.874C58.2842 76.684 61.0928 79.8119 64.6098 79.8603C68.1267 79.9087 71.0203 76.8593 71.0727 73.0492Z" fill="#DA6D5C"/>
<path opacity="0.38" d="M70.9399 73.0477C70.9913 69.3109 68.2413 66.2432 64.7976 66.1958C61.3539 66.1484 58.5205 69.1392 58.4691 72.876C58.4177 76.6128 61.1677 79.6805 64.6114 79.7279C68.0551 79.7753 70.8884 76.7845 70.9399 73.0477Z" fill="#DA6C5B"/>
<path opacity="0.38" d="M70.9399 73.0477C70.9913 69.3109 68.2413 66.2432 64.7976 66.1958C61.3539 66.1484 58.5206 69.1392 58.4691 72.876C58.4177 76.6128 61.1677 79.6805 64.6114 79.7279C68.0551 79.7753 70.8885 76.7845 70.9399 73.0477Z" fill="#D96B5A"/>
<path opacity="0.38" d="M64.7719 66.2319C61.3222 66.2319 58.5359 69.1509 58.5359 72.866C58.5359 76.5811 61.1895 79.6327 64.6392 79.6327C68.0889 79.6327 70.8752 76.7137 70.8752 72.9987C70.8752 69.2836 68.0889 66.3646 64.7719 66.2319Z" fill="#D96A5A"/>
<path opacity="0.38" d="M64.7719 66.3645C61.4549 66.3645 58.6686 69.2835 58.5359 72.8659C58.5359 76.5809 61.1895 79.4999 64.5065 79.6326C67.8236 79.6326 70.6099 76.7136 70.7425 73.1312C70.7425 69.4162 68.0889 66.3645 64.7719 66.3645Z" fill="#D96959"/>
<path opacity="0.38" d="M64.7715 66.3645C61.4545 66.3645 58.6682 69.2835 58.6682 72.8659C58.6682 76.4483 61.3218 79.4999 64.6389 79.4999C67.9559 79.4999 70.7422 76.5809 70.7422 72.9986C70.7422 69.4162 68.0886 66.3645 64.7715 66.3645Z" fill="#D96858"/>
<path opacity="0.38" d="M64.7715 66.4973C61.4545 66.4973 58.8009 69.2836 58.6682 72.866C58.6682 76.4484 61.1892 79.3674 64.5062 79.5C67.8232 79.5 70.4768 76.7138 70.6095 73.1314C70.6095 69.4163 68.0886 66.4973 64.7715 66.4973Z" fill="#D86757"/>
<path opacity="0.38" d="M64.7717 66.4973C61.4546 66.4973 58.801 69.2836 58.801 72.866C58.801 76.4484 61.322 79.3674 64.639 79.3674C67.956 79.3674 70.6096 76.5811 70.6096 72.9987C70.6096 69.4163 67.956 66.4973 64.7717 66.4973Z" fill="#D86657"/>
<path opacity="0.38" d="M64.7717 66.6299C61.5873 66.6299 58.9337 69.4162 58.801 72.8659C58.801 76.4483 61.322 79.2346 64.5063 79.3673C67.6907 79.3673 70.3443 76.581 70.477 73.1313C70.6096 69.5489 67.956 66.6299 64.7717 66.6299Z" fill="#D86556"/>
<path opacity="0.38" d="M64.7721 66.6299C61.5877 66.6299 58.9341 69.4162 58.9341 72.8659C58.9341 76.3156 61.455 79.2346 64.6394 79.2346C67.8237 79.2346 70.4773 76.4483 70.4773 72.9986C70.4773 69.5489 67.9564 66.6299 64.7721 66.6299Z" fill="#D86455"/>
<path opacity="0.38" d="M64.7721 66.7625C61.5877 66.7625 59.0668 69.4161 58.9341 72.8658C58.9341 76.3155 61.455 79.1018 64.6394 79.2345C67.8237 79.2345 70.3447 76.5809 70.4773 73.1311C70.4773 69.5488 67.9564 66.7625 64.7721 66.7625Z" fill="#D86354"/>
<path opacity="0.38" d="M64.7719 66.7625C61.5876 66.7625 59.0667 69.4161 59.0667 72.8658C59.0667 76.3155 61.5876 79.1018 64.6393 79.1018C67.8236 79.1018 70.3445 76.4482 70.3445 72.9985C70.3445 69.5488 67.8236 66.7625 64.7719 66.7625Z" fill="#D76253"/>
<path opacity="0.38" d="M64.7719 66.8953C61.7203 66.8953 59.0667 69.5489 59.0667 72.9986C59.0667 76.3156 61.4549 79.1019 64.6393 79.2346C67.6909 79.2346 70.3445 76.581 70.3445 73.1313C70.3445 69.6816 67.8236 66.8953 64.7719 66.8953Z" fill="#D76153"/>
<path opacity="0.38" d="M64.7723 66.8953C61.7206 66.8953 59.1997 69.5489 59.1997 72.8659C59.1997 76.1829 61.588 78.9692 64.6396 78.9692C67.6913 78.9692 70.2122 76.3156 70.2122 72.9986C70.2122 69.6816 67.824 66.8953 64.7723 66.8953Z" fill="#D76052"/>
<path opacity="0.38" d="M64.7723 66.8953C61.7206 66.8953 59.1997 69.5489 59.1997 72.8659C59.1997 76.1829 61.588 78.8366 64.6396 78.9692C67.6913 78.9692 70.2122 76.3156 70.2122 72.9986C70.2122 69.6816 67.824 67.0279 64.7723 66.8953Z" fill="#D75F51"/>
<path opacity="0.38" d="M64.7723 67.0276C61.7206 67.0276 59.3324 69.5485 59.1997 72.8656C59.1997 76.1826 61.588 78.8362 64.5069 78.8362C67.5586 78.8362 69.9469 76.3153 70.0795 72.9982C70.0795 69.8139 67.6913 67.0276 64.7723 67.0276Z" fill="#D75E50"/>
<path opacity="0.38" d="M64.7715 67.0276C61.8525 67.0276 59.3315 69.5485 59.3315 72.8656C59.3315 76.0499 61.7198 78.7035 64.6388 78.8362C67.5578 78.8362 70.0787 76.3153 70.0787 72.9982C70.0787 69.8139 67.6904 67.1603 64.7715 67.0276Z" fill="#D65D50"/>
<path opacity="0.38" d="M64.7715 67.1606C61.8525 67.1606 59.4642 69.6816 59.3315 72.8659C59.3315 76.0503 61.5871 78.7039 64.5061 78.7039C67.4251 78.7039 69.8133 76.183 69.946 72.9986C70.0787 69.8143 67.6904 67.1606 64.7715 67.1606Z" fill="#D65C4F"/>
<path opacity="0.38" d="M64.7718 67.1606C61.8529 67.1606 59.4646 69.6816 59.4646 72.8659C59.4646 76.0503 61.7202 78.5712 64.6392 78.7039C67.5581 78.7039 69.9464 76.183 69.9464 72.9986C69.9464 69.8143 67.6908 67.2933 64.7718 67.1606Z" fill="#D65B4E"/>
<path opacity="0.38" d="M64.7718 67.2932C61.8529 67.2932 59.5973 69.8142 59.4646 72.8658C59.4646 76.0502 61.7202 78.5711 64.6392 78.5711C67.5581 78.5711 69.8137 76.0502 69.9464 72.9985C69.9464 69.9468 67.5581 67.2932 64.7718 67.2932Z" fill="#D65A4D"/>
<path opacity="0.38" d="M64.772 67.2932C61.9857 67.2932 59.5974 69.6815 59.5974 72.8658C59.5974 75.9175 61.853 78.4384 64.6393 78.5711C67.4256 78.5711 69.8139 76.1828 69.8139 72.9985C69.8139 69.9468 67.5583 67.4259 64.772 67.2932Z" fill="#D5594C"/>
<path opacity="0.38" d="M64.772 67.4258C61.9857 67.4258 59.5974 69.814 59.5974 72.8657C59.5974 75.9174 61.853 78.4383 64.6393 78.4383C67.4256 78.4383 69.8139 76.05 69.8139 72.9984C69.8139 69.9467 67.5583 67.4258 64.772 67.4258Z" fill="#D5584C"/>
<path opacity="0.38" d="M64.7719 67.4258C61.9856 67.4258 59.73 69.814 59.73 72.8657C59.73 75.9174 61.8529 78.3056 64.6392 78.4383C67.4255 78.4383 69.6811 76.05 69.6811 72.9984C69.6811 69.9467 67.5582 67.5585 64.7719 67.4258Z" fill="#D5574B"/>
<path opacity="0.38" d="M64.7719 67.5588C61.9856 67.5588 59.73 69.9471 59.73 72.8661C59.73 75.9177 61.8529 78.306 64.6392 78.306C67.4255 78.306 69.6811 75.9177 69.6811 72.9988C69.6811 70.0798 67.4255 67.5588 64.7719 67.5588Z" fill="#D5564A"/>
<path opacity="0.38" d="M64.7719 67.5588C62.1182 67.5588 59.8627 69.9471 59.73 72.8661C59.73 75.7851 61.8529 78.1733 64.5065 78.306C67.1601 78.306 69.4157 75.9177 69.5484 72.9988C69.5484 70.0798 67.4255 67.6915 64.7719 67.5588Z" fill="#D55549"/>
<path opacity="0.38" d="M64.7722 67.6912C62.1186 67.6912 59.863 69.9467 59.863 72.8657C59.863 75.7847 61.9859 78.173 64.6396 78.173C67.2932 78.173 69.5487 75.9174 69.5487 72.9984C69.5487 70.0794 67.4259 67.6912 64.7722 67.6912Z" fill="#D45449"/>
<path opacity="0.38" d="M64.7722 67.6912C62.1186 67.6912 59.9957 69.9467 59.863 72.8657C59.863 75.7847 61.9859 78.173 64.6396 78.173C67.2932 78.173 69.4161 75.9174 69.5487 72.9984C69.4161 70.0794 67.4259 67.8238 64.7722 67.6912Z" fill="#D45348"/>
<path opacity="0.38" d="M64.7716 67.824C62.118 67.824 59.9951 70.0796 59.9951 72.8659C59.9951 75.6522 61.9853 78.0404 64.639 78.0404C67.2926 78.0404 69.4155 75.7848 69.4155 72.9985C69.4155 70.2122 67.2926 67.824 64.7716 67.824Z" fill="#D45247"/>
</g>
<g opacity="0.38">
<path opacity="0.38" d="M90.3798 63.0477C84.6746 62.915 80.0307 67.5589 79.898 73.2641C79.7654 78.9694 84.4092 83.6133 90.1145 83.7459C95.8198 83.8786 100.464 79.2348 100.596 73.5295C100.729 67.8242 96.0851 63.0477 90.3798 63.0477Z" fill="#E5A185"/>
<path opacity="0.38" d="M90.3796 63.0475C84.6744 62.9148 80.0305 67.426 80.0305 73.1313C80.0305 78.8366 84.409 83.4804 90.1143 83.4804C95.8196 83.6131 100.463 79.1019 100.463 73.3967C100.463 67.6914 96.0849 63.1802 90.3796 63.0475Z" fill="#E5A084"/>
<path opacity="0.38" d="M90.3801 63.1803C84.8075 63.0477 80.1636 67.5588 80.0309 73.2641C79.8982 78.8367 84.4094 83.4805 90.1147 83.6132C95.6873 83.7459 100.331 79.2347 100.464 73.5295C100.464 67.8242 95.9527 63.1803 90.3801 63.1803Z" fill="#E59F83"/>
<path opacity="0.38" d="M90.3798 63.1803C84.8072 63.0477 80.1633 67.5588 80.1633 73.1314C80.1633 78.704 84.5418 83.3479 90.1144 83.3479C95.687 83.4805 100.331 78.9694 100.331 73.3968C100.331 67.8242 95.9524 63.313 90.3798 63.1803Z" fill="#E49E83"/>
<path opacity="0.38" d="M90.3795 63.3129C84.8069 63.1802 80.2957 67.6914 80.163 73.264C80.0303 78.8366 84.5415 83.3477 90.1141 83.4804C95.6867 83.6131 100.198 79.102 100.331 73.5294C100.463 67.9567 95.9521 63.3129 90.3795 63.3129Z" fill="#E49D82"/>
<path opacity="0.38" d="M90.3798 63.3129C84.8072 63.1802 80.2961 67.6914 80.2961 73.1313C80.1634 78.7039 84.6745 83.2151 90.1145 83.2151C95.6871 83.3477 100.198 78.8366 100.198 73.3967C100.331 67.9567 95.8198 63.4456 90.3798 63.3129Z" fill="#E49C81"/>
<path opacity="0.38" d="M90.3799 63.4458C84.94 63.3131 80.4288 67.6916 80.2962 73.2642C80.1635 78.7041 84.5419 83.2153 90.1145 83.348C95.5545 83.4806 100.066 79.1022 100.198 73.5296C100.331 67.957 95.8198 63.4458 90.3799 63.4458Z" fill="#E49B80"/>
<path opacity="0.38" d="M90.3798 63.4458C84.9399 63.3131 80.4287 67.6916 80.4287 73.1315C80.296 78.5715 84.6745 83.0826 90.1144 83.0826C95.5544 83.2153 100.066 78.8368 100.066 73.3969C100.066 67.957 95.8197 63.5785 90.3798 63.4458Z" fill="#E49A80"/>
<path opacity="0.38" d="M90.3798 63.5784C84.9399 63.4457 80.5614 67.8242 80.4287 73.2641C80.296 78.704 84.6745 83.0825 90.1144 83.2152C95.5544 83.3479 99.9328 78.9694 100.066 73.5295C100.066 68.0895 95.8197 63.5784 90.3798 63.5784Z" fill="#E3997F"/>
<path opacity="0.38" d="M90.3802 63.5784C85.0729 63.4457 80.5618 67.8242 80.5618 73.1314C80.4291 78.4387 84.8076 82.9498 90.1148 82.9498C95.422 83.0825 99.9332 78.704 99.9332 73.3968C100.066 68.0895 95.6874 63.7111 90.3802 63.5784Z" fill="#E3987E"/>
<path opacity="0.38" d="M90.3802 63.5784C85.0729 63.4457 80.6945 67.8242 80.5618 73.1314C80.4291 78.4387 84.8076 82.8171 90.1148 82.9498C95.422 83.0825 99.8005 78.704 99.9332 73.3968C99.9332 68.0895 95.6874 63.7111 90.3802 63.5784Z" fill="#E3977D"/>
<path opacity="0.38" d="M90.3797 63.7108C85.0724 63.5781 80.6939 67.8239 80.6939 73.1311C80.5613 78.4384 84.8071 82.8169 90.1143 82.8169C95.4215 82.9495 99.8 78.7037 99.8 73.3965C99.9327 68.0893 95.6869 63.8435 90.3797 63.7108Z" fill="#E3967C"/>
<path opacity="0.38" d="M90.3797 63.7108C85.0724 63.5781 80.8266 67.8239 80.6939 73.1311C80.5613 78.4384 84.8071 82.6842 90.1143 82.8169C95.4215 82.9495 99.6673 78.7037 99.8 73.3965C99.8 68.2219 95.6869 63.8435 90.3797 63.7108Z" fill="#E2957C"/>
<path opacity="0.38" d="M90.3796 63.8438C85.205 63.7112 80.8265 67.957 80.8265 73.1315C80.6938 78.3061 84.9396 82.6846 90.1142 82.6846C95.2887 82.8172 99.6672 78.5714 99.6672 73.3969C99.7999 68.2223 95.5541 63.8438 90.3796 63.8438Z" fill="#E2947B"/>
<path opacity="0.38" d="M90.3796 63.8438C85.205 63.7112 80.9592 67.957 80.8265 73.1315C80.6938 78.3061 84.9396 82.5519 90.1142 82.6846C95.2887 82.8172 99.5345 78.5714 99.6672 73.3969C99.6672 68.2223 95.5541 63.9765 90.3796 63.8438Z" fill="#E2937A"/>
<path opacity="0.38" d="M90.3797 63.9764C85.2051 63.8437 80.9593 68.0895 80.9593 73.1314C80.8266 78.306 85.0724 82.5518 90.1143 82.5518C95.2889 82.6844 99.5347 78.4386 99.5347 73.3968C99.6674 68.2222 95.5543 63.9764 90.3797 63.9764Z" fill="#E29279"/>
<path opacity="0.38" d="M90.3798 63.9763C85.2052 63.8436 81.0921 67.9567 80.9594 73.1313C80.8267 78.3058 84.9399 82.4189 90.1144 82.5516C95.289 82.6843 99.4021 78.5712 99.5348 73.3966C99.5348 68.3547 95.4217 64.1089 90.3798 63.9763Z" fill="#E29179"/>
<path opacity="0.38" d="M90.3801 64.1091C85.3383 63.9764 81.0925 68.0895 81.0925 73.1314C80.9598 78.1733 85.0729 82.4191 90.1148 82.4191C95.1567 82.5518 99.4025 78.4386 99.4025 73.3968C99.5351 68.3549 95.422 64.1091 90.3801 64.1091Z" fill="#E19078"/>
<path opacity="0.38" d="M90.3802 64.1091C85.3383 63.9764 81.2252 68.0895 81.0925 73.1314C80.9598 78.1733 85.0729 82.2864 90.1148 82.4191C95.1567 82.5518 99.2698 78.4386 99.4025 73.3968C99.4025 68.3549 95.422 64.2418 90.3802 64.1091Z" fill="#E18F77"/>
<path opacity="0.38" d="M90.3796 64.2419C85.3377 64.1092 81.2246 68.2223 81.2246 73.1315C81.0919 78.1734 85.205 82.2865 90.1142 82.2865C95.1561 82.4192 99.2692 78.3061 99.2692 73.3969C99.4019 68.355 95.4214 64.2419 90.3796 64.2419Z" fill="#E18E76"/>
<path opacity="0.38" d="M90.3797 64.2417C85.3378 64.1091 81.3573 68.0895 81.2247 73.1314C81.092 78.1733 85.0724 82.1537 90.1143 82.2864C95.1562 82.4191 99.1366 78.4386 99.2693 73.3967C99.2693 68.4875 95.2889 64.3744 90.3797 64.2417Z" fill="#E18D75"/>
<path opacity="0.38" d="M90.3798 64.3746C85.4706 64.2419 81.3575 68.2223 81.3575 73.2642C81.2248 78.1734 85.2052 82.2865 90.2471 82.2865C95.1563 82.4192 99.2694 78.4388 99.2694 73.3969C99.2694 68.4877 95.289 64.3746 90.3798 64.3746Z" fill="#E18C75"/>
<path opacity="0.38" d="M90.3798 64.3746C85.4706 64.2419 81.4902 68.2223 81.3575 73.1315C81.2248 78.0407 85.2052 82.0211 90.1144 82.1538C95.0236 82.2865 99.0041 78.3061 99.1367 73.3969C99.1367 68.4877 95.289 64.5072 90.3798 64.3746Z" fill="#E08B74"/>
<path opacity="0.38" d="M90.3799 64.5071C85.4707 64.3744 81.4903 68.3549 81.4903 73.2641C81.3576 78.1733 85.338 82.1537 90.2472 82.1537C95.1564 82.2864 99.1369 78.306 99.1369 73.3968C99.1369 68.4876 95.2891 64.5071 90.3799 64.5071Z" fill="#E08A73"/>
<path opacity="0.38" d="M90.3799 64.5071C85.6034 64.3744 81.623 68.3549 81.4903 73.1314C81.3576 77.9079 85.338 81.8883 90.1146 82.021C94.8911 82.1537 98.8715 78.1733 99.0042 73.3968C99.0042 68.6202 95.1564 64.6398 90.3799 64.5071Z" fill="#E08972"/>
<path opacity="0.38" d="M90.38 64.6399C85.6035 64.6399 81.623 68.355 81.623 73.2642C81.623 78.0407 85.3381 82.0211 90.2473 82.0211C95.0238 82.0211 99.0043 78.306 99.0043 73.3968C99.0043 68.6203 95.1565 64.6399 90.38 64.6399Z" fill="#E08872"/>
<path opacity="0.38" d="M90.38 64.6399C85.6035 64.6399 81.7557 68.355 81.623 73.1315C81.623 77.908 85.3381 81.7557 90.1146 81.8884C94.8912 81.8884 98.7389 78.1734 98.8716 73.3968C98.8716 68.6203 95.1565 64.7726 90.38 64.6399Z" fill="#DF8771"/>
<path opacity="0.38" d="M90.3796 64.7725C85.6031 64.7725 81.7554 68.4875 81.7554 73.2641C81.7554 78.0406 85.4704 81.8883 90.247 81.8883C95.0235 81.8883 98.8712 78.1732 98.8712 73.3967C98.8712 68.7529 95.0235 64.7725 90.3796 64.7725Z" fill="#DF8670"/>
<path opacity="0.38" d="M90.3796 64.7725C85.7358 64.7725 81.8881 68.4875 81.7554 73.1314C81.7554 77.7752 85.4704 81.623 90.1143 81.7556C94.7581 81.7556 98.6059 78.0406 98.7385 73.3967C98.7385 68.7529 95.0235 64.9051 90.3796 64.7725Z" fill="#DF856F"/>
<path opacity="0.38" d="M90.3795 64.905C85.7357 64.905 81.8879 68.6201 81.8879 73.2639C81.8879 77.9078 85.603 81.7555 90.2468 81.7555C94.8907 81.7555 98.7384 78.0404 98.7384 73.3966C98.7384 68.7528 95.0234 64.905 90.3795 64.905Z" fill="#DF846F"/>
<path opacity="0.38" d="M90.3795 64.905C85.7357 64.905 82.0206 68.4874 81.8879 73.1313C81.8879 77.7751 85.4703 81.4902 90.1142 81.6228C94.758 81.6228 98.4731 78.0404 98.6057 73.3966C98.6057 68.7528 95.0234 65.0377 90.3795 64.905Z" fill="#DF836E"/>
<path opacity="0.38" d="M90.3799 65.0378C85.7361 65.0378 82.021 68.6202 82.021 73.2641C82.021 77.9079 85.6034 81.623 90.2472 81.623C94.8911 81.623 98.6061 78.0406 98.6061 73.3967C98.6061 68.8856 94.8911 65.0378 90.3799 65.0378Z" fill="#DE826D"/>
<path opacity="0.38" d="M90.3799 65.0378C85.8688 65.0378 82.1537 68.6202 82.021 73.1314C82.021 77.6425 85.6034 81.3576 90.1145 81.4903C94.6257 81.4903 98.3408 77.9079 98.4734 73.3967C98.4734 68.8856 94.8911 65.1705 90.3799 65.0378Z" fill="#DE816C"/>
<path opacity="0.38" d="M90.3798 65.1702C85.8686 65.1702 82.1536 68.7526 82.1536 73.2637C82.1536 77.7749 85.736 81.4899 90.2471 81.4899C94.7583 81.4899 98.4733 77.9075 98.4733 73.3964C98.4733 68.8852 94.891 65.1702 90.3798 65.1702Z" fill="#DE806B"/>
<path opacity="0.38" d="M90.3798 65.1702C85.8686 65.1702 82.1536 68.7526 82.1536 73.131C82.1536 77.6422 85.736 81.3572 90.1144 81.3572C94.6256 81.3572 98.3407 77.7749 98.3407 73.3964C98.4733 68.8852 94.8909 65.3028 90.3798 65.1702Z" fill="#DE7F6B"/>
<path opacity="0.38" d="M90.3799 65.3032C86.0015 65.3032 82.2864 68.7529 82.2864 73.2641C82.2864 77.6426 85.7361 81.3576 90.2472 81.3576C94.6257 81.3576 98.3408 77.9079 98.3408 73.3968C98.3408 69.0183 94.7584 65.3032 90.3799 65.3032Z" fill="#DE7E6A"/>
<path opacity="0.38" d="M90.3799 65.3032C86.0015 65.3032 82.2864 68.7529 82.2864 73.1314C82.2864 77.5099 85.7361 81.2249 90.1146 81.2249C94.493 81.2249 98.2081 77.7752 98.2081 73.3968C98.3408 69.0183 94.7584 65.4359 90.3799 65.3032Z" fill="#DD7D69"/>
<path opacity="0.38" d="M90.3791 65.436C86.0006 65.436 82.4182 68.8857 82.4182 73.2642C82.4182 77.6427 85.8679 81.2251 90.2464 81.2251C94.6249 81.2251 98.2072 77.7754 98.2072 73.3969C98.2072 69.0184 94.7576 65.436 90.3791 65.436Z" fill="#DD7C68"/>
<path opacity="0.38" d="M90.3791 65.436C86.0006 65.436 82.4182 68.8857 82.4182 73.1315C82.4182 77.51 85.8679 81.0924 90.1137 81.0924C94.4922 81.0924 98.0746 77.6427 98.0746 73.3969C98.2073 69.0184 94.6249 65.5687 90.3791 65.436Z" fill="#DD7B68"/>
<path opacity="0.38" d="M90.3791 65.5684C86.1333 65.5684 82.5509 68.8854 82.4182 73.2639C82.4182 77.5097 85.7352 81.092 90.1137 81.2247C94.3595 81.2247 97.9419 77.9077 98.0746 73.5292C98.0746 69.1507 94.6249 65.5684 90.3791 65.5684Z" fill="#DD7A67"/>
<path opacity="0.38" d="M90.3795 65.5684C86.1337 65.5684 82.5513 68.8854 82.5513 73.1312C82.5513 77.377 85.8683 80.9594 90.1141 80.9594C94.3599 80.9594 97.9423 77.6423 97.9423 73.3965C98.075 69.1507 94.6252 65.5684 90.3795 65.5684Z" fill="#DD7A66"/>
<path opacity="0.38" d="M90.3795 65.7014C86.1337 65.7014 82.684 69.0184 82.5513 73.2642C82.5513 77.51 85.8683 80.9597 90.1141 81.0924C94.3599 81.0924 97.8096 77.7754 97.9423 73.5296C97.9423 69.1511 94.6252 65.7014 90.3795 65.7014Z" fill="#DC7965"/>
<path opacity="0.38" d="M90.3796 65.7014C86.1338 65.7014 82.6841 69.0184 82.6841 73.1316C82.6841 77.3774 86.0011 80.8271 90.1142 80.8271C94.36 80.8271 97.8097 77.51 97.8097 73.3969C97.9424 69.1511 94.4927 65.7014 90.3796 65.7014Z" fill="#DC7864"/>
<path opacity="0.38" d="M90.3796 65.834C86.2665 65.834 82.8168 69.151 82.6841 73.2641C82.6841 77.3772 86.0011 80.8269 90.1142 80.9596C94.2273 80.9596 97.677 77.6426 97.8097 73.5295C97.8097 69.2837 94.4927 65.834 90.3796 65.834Z" fill="#DC7764"/>
<path opacity="0.38" d="M90.38 65.834C86.2669 65.834 82.8171 69.0183 82.8171 73.1314C82.8171 77.2446 86.0015 80.6943 90.1146 80.6943C94.2277 80.6943 97.6774 77.5099 97.6774 73.3968C97.8101 69.2837 94.4931 65.834 90.38 65.834Z" fill="#DC7663"/>
<path opacity="0.38" d="M90.38 65.834C86.2669 65.834 82.9498 69.0183 82.8171 73.1314C82.8171 77.2446 86.0015 80.5616 90.1146 80.6943C94.2277 80.6943 97.5447 77.5099 97.6774 73.3968C97.6774 69.2837 94.4931 65.9667 90.38 65.834Z" fill="#DB7562"/>
<path opacity="0.38" d="M90.3799 65.9666C86.2667 65.9666 82.9497 69.1509 82.9497 73.264C82.9497 77.3771 86.1341 80.6941 90.2472 80.6941C94.3603 80.6941 97.6773 77.5098 97.6773 73.3967C97.6773 69.2836 94.3603 65.9666 90.3799 65.9666Z" fill="#DB7461"/>
<path opacity="0.38" d="M90.3799 65.9666C86.3994 65.9666 83.0824 69.1509 82.9497 73.1313C82.9497 77.1118 86.1341 80.4288 90.1145 80.5615C94.0949 80.5615 97.4119 77.3771 97.5446 73.3967C97.5446 69.4163 94.3603 66.0992 90.3799 65.9666Z" fill="#DB7361"/>
<path opacity="0.38" d="M90.3795 66.0996C86.3991 66.0996 83.082 69.284 83.082 73.2644C83.082 77.2448 86.2664 80.5618 90.2468 80.5618C94.2272 80.5618 97.5443 77.3775 97.5443 73.3971C97.5443 69.4166 94.3599 66.0996 90.3795 66.0996Z" fill="#DB7260"/>
<path opacity="0.38" d="M90.3795 66.0996C86.3991 66.0996 83.2147 69.1513 83.082 73.1317C83.082 77.1121 86.1337 80.2965 90.1141 80.4292C94.0946 80.4292 97.2789 77.3775 97.4116 73.3971C97.4116 69.4166 94.2272 66.2323 90.3795 66.0996Z" fill="#DB715F"/>
<path opacity="0.38" d="M90.3794 66.2319C86.5316 66.2319 83.2146 69.2836 83.2146 73.264C83.2146 77.1118 86.2663 80.4288 90.2467 80.4288C94.0944 80.4288 97.4115 77.3771 97.4115 73.3967C97.4115 69.549 94.2271 66.2319 90.3794 66.2319Z" fill="#DA705E"/>
<path opacity="0.38" d="M90.3794 66.2319C86.5316 66.2319 83.3473 69.2836 83.2146 73.1313C83.2146 76.9791 86.2663 80.1634 90.114 80.2961C93.9618 80.2961 97.1461 77.2445 97.2788 73.3967C97.2788 69.549 94.2271 66.3646 90.3794 66.2319Z" fill="#DA6F5D"/>
<path opacity="0.38" d="M90.3795 66.3647C86.5318 66.3647 83.3474 69.4164 83.3474 73.2642C83.3474 77.1119 86.3991 80.2963 90.2468 80.2963C94.0946 80.2963 97.2789 77.2446 97.2789 73.3968C97.2789 69.5491 94.2273 66.3647 90.3795 66.3647Z" fill="#DA6E5D"/>
<path opacity="0.38" d="M90.3795 66.3647C86.5318 66.3647 83.4801 69.4164 83.3474 73.1315C83.3474 76.9792 86.3991 80.0309 90.1141 80.1636C93.9619 80.1636 97.0136 77.1119 97.1462 73.3968C97.1462 69.5491 94.0946 66.4974 90.3795 66.3647Z" fill="#DA6D5C"/>
<path opacity="0.38" d="M90.3799 66.4973C86.6648 66.4973 83.4805 69.4163 83.4805 73.264C83.4805 76.9791 86.3994 80.1635 90.2472 80.1635C93.9623 80.1635 97.1466 77.2445 97.1466 73.3967C97.1466 69.6817 94.095 66.4973 90.3799 66.4973Z" fill="#DA6C5B"/>
<path opacity="0.38" d="M90.3799 66.4973C86.6648 66.4973 83.6131 69.4163 83.4805 73.1314C83.4805 76.8464 86.3995 79.8981 90.1145 80.0308C93.8296 80.0308 96.8813 77.1118 97.0139 73.3967C97.0139 69.6817 94.095 66.63 90.3799 66.4973Z" fill="#D96B5A"/>
<path opacity="0.38" d="M90.3798 66.6299C86.6647 66.6299 83.613 69.5489 83.613 73.2639C83.613 76.979 86.532 80.0307 90.2471 80.0307C93.9622 80.0307 97.0138 77.1117 97.0138 73.3966C97.0138 69.6815 93.9622 66.6299 90.3798 66.6299Z" fill="#D96A5A"/>
<path opacity="0.38" d="M90.3798 66.6299C86.6647 66.6299 83.7457 69.5489 83.613 73.1313C83.613 76.8463 86.532 79.7653 90.1144 79.898C93.8295 79.898 96.7485 76.979 96.8811 73.3966C96.8811 69.6815 93.9622 66.7626 90.3798 66.6299Z" fill="#D96959"/>
<path opacity="0.38" d="M90.3792 66.7629C86.7968 66.7629 83.7451 69.5492 83.7451 73.2643C83.7451 76.8467 86.5314 79.8984 90.2465 79.8984C93.8289 79.8984 96.8805 77.1121 96.8805 73.397C96.8805 69.8146 93.9616 66.7629 90.3792 66.7629Z" fill="#D96858"/>
<path opacity="0.38" d="M90.3792 66.7629C86.7968 66.7629 83.8778 69.5492 83.7451 73.1316C83.7451 76.714 86.5314 79.633 90.1138 79.7657C93.6962 79.7657 96.6152 76.9794 96.7479 73.397C96.7479 69.8146 93.9616 66.8956 90.3792 66.7629Z" fill="#D86757"/>
<path opacity="0.38" d="M90.3795 66.8953C86.7972 66.8953 83.8782 69.6816 83.8782 73.264C83.8782 76.8463 86.6645 79.7653 90.2469 79.7653C93.8292 79.7653 96.7482 76.979 96.7482 73.3966C96.7482 69.8142 93.8293 66.8953 90.3795 66.8953Z" fill="#D86657"/>
<path opacity="0.38" d="M90.3795 66.8953C86.7972 66.8953 84.0109 69.6816 83.8782 73.1313C83.8782 76.7137 86.6645 79.5 90.1142 79.6326C93.6966 79.6326 96.4829 76.8463 96.6156 73.3966C96.6156 69.8142 93.8293 67.0279 90.3795 66.8953Z" fill="#D86556"/>
<path opacity="0.38" d="M90.3794 67.0281C86.9297 67.0281 84.0107 69.8144 84.0107 73.2641C84.0107 76.7138 86.797 79.6328 90.2467 79.6328C93.6965 79.6328 96.6154 76.8465 96.6154 73.3968C96.6154 69.9471 93.8291 67.0281 90.3794 67.0281Z" fill="#D86455"/>
<path opacity="0.38" d="M90.3794 67.0281C86.9297 67.0281 84.1434 69.6817 84.0107 73.1314C84.0107 76.5811 86.6644 79.3674 90.1141 79.5001C93.5638 79.5001 96.3501 76.8465 96.4828 73.3968C96.4828 69.9471 93.8291 67.1608 90.3794 67.0281Z" fill="#D86354"/>
<path opacity="0.38" d="M90.3798 67.1606C86.9301 67.1606 84.1438 69.8143 84.1438 73.264C84.1438 76.7137 86.7974 79.5 90.2471 79.5C93.6968 79.5 96.4831 76.8464 96.4831 73.3966C96.4831 69.9469 93.6968 67.1606 90.3798 67.1606Z" fill="#D76253"/>
<path opacity="0.38" d="M90.3798 67.1606C87.0628 67.1606 84.2765 69.8143 84.1438 73.1313C84.1438 76.4483 86.7974 79.2346 90.1144 79.3673C93.4315 79.3673 96.2178 76.7137 96.3505 73.3966C96.3505 69.9469 93.6968 67.2933 90.3798 67.1606Z" fill="#D76153"/>
<path opacity="0.38" d="M90.3799 67.2935C87.0629 67.2935 84.2766 69.9471 84.2766 73.2641C84.2766 76.5811 86.9302 79.3674 90.2473 79.3674C93.5643 79.3674 96.3506 76.7138 96.3506 73.3968C96.3506 70.0798 93.697 67.2935 90.3799 67.2935Z" fill="#D76052"/>
<path opacity="0.38" d="M90.3799 67.2935C87.0629 67.2935 84.4093 69.9471 84.2766 73.1314C84.2766 76.4485 86.9302 79.1021 90.1146 79.2348C93.4316 79.2348 96.0852 76.5811 96.2179 73.3968C96.2179 70.0798 93.5643 67.2935 90.3799 67.2935Z" fill="#D75F51"/>
<path opacity="0.38" d="M90.3796 67.4263C87.0626 67.4263 84.4089 69.9472 84.4089 73.2642C84.4089 76.5813 86.9299 79.2349 90.2469 79.2349C93.5639 79.2349 96.2175 76.7139 96.2175 73.3969C96.2175 70.0799 93.5639 67.4263 90.3796 67.4263Z" fill="#D75E50"/>
<path opacity="0.38" d="M90.3796 67.4263C87.1952 67.4263 84.5416 69.9472 84.4089 73.2642C84.4089 76.4486 86.9299 79.1022 90.2469 79.2349C93.4312 79.2349 96.0849 76.7139 96.2175 73.3969C96.0849 70.0799 93.5639 67.4263 90.3796 67.4263Z" fill="#D65D50"/>
<path opacity="0.38" d="M90.3795 67.5588C87.1951 67.5588 84.5415 70.0798 84.5415 73.2641C84.5415 76.4485 87.0624 79.1021 90.2468 79.1021C93.4311 79.1021 96.0848 76.5811 96.0848 73.3968C96.0848 70.2125 93.5638 67.5588 90.3795 67.5588Z" fill="#D65C4F"/>
<path opacity="0.38" d="M90.3795 67.5588C87.1951 67.5588 84.6742 70.0798 84.5415 73.2641C84.5415 76.4485 87.0624 78.9694 90.2468 79.1021C93.4311 79.1021 95.9521 76.5811 96.0848 73.3968C95.9521 70.2125 93.4311 67.5588 90.3795 67.5588Z" fill="#D65B4E"/>
<path opacity="0.38" d="M90.3796 67.6917C87.1953 67.6917 84.6743 70.2126 84.6743 73.2643C84.6743 76.4486 87.1953 78.9695 90.2469 78.9695C93.4313 78.9695 95.9522 76.4486 95.9522 73.3969C95.9522 70.2126 93.4313 67.6917 90.3796 67.6917Z" fill="#D65A4D"/>
<path opacity="0.38" d="M90.3796 67.6917C87.3279 67.6917 84.807 70.0799 84.6743 73.2643C84.6743 76.3159 87.0626 78.8369 90.2469 78.9695C93.2986 78.9695 95.8195 76.5813 95.9522 73.3969C95.8195 70.3453 93.4313 67.6917 90.3796 67.6917Z" fill="#D5594C"/>
<path opacity="0.38" d="M90.2469 67.824C87.1953 67.824 84.6743 70.2122 84.6743 73.2639C84.6743 76.3156 87.0626 78.8365 90.1142 78.8365C93.1659 78.8365 95.6868 76.4482 95.6868 73.3966C95.8195 70.3449 93.4313 67.824 90.2469 67.824Z" fill="#D5584C"/>
<path opacity="0.38" d="M90.2469 67.824C87.1953 67.824 84.807 70.2122 84.6743 73.2639C84.6743 76.3156 87.0626 78.7038 90.1142 78.8365C93.1659 78.8365 95.5542 76.4482 95.6868 73.3966C95.6868 70.3449 93.2986 67.824 90.2469 67.824Z" fill="#D5574B"/>
<path opacity="0.38" d="M90.2473 67.957C87.1956 67.957 84.8074 70.3453 84.8074 73.2643C84.8074 76.3159 87.1956 78.7042 90.1146 78.7042C93.1663 78.7042 95.5545 76.3159 95.5545 73.397C95.6872 70.3453 93.299 67.957 90.2473 67.957Z" fill="#D5564A"/>
<path opacity="0.38" d="M90.2473 67.957C87.3283 67.957 84.8074 70.2126 84.8074 73.2643C84.8074 76.1833 87.063 78.7042 90.1146 78.7042C93.0336 78.7042 95.5545 76.4486 95.5545 73.397C95.5545 70.478 93.299 67.957 90.2473 67.957Z" fill="#D55549"/>
<path opacity="0.38" d="M90.2472 67.957C87.3282 67.957 84.9399 70.2126 84.9399 73.1316C84.9399 76.0506 87.1955 78.4388 90.1145 78.4388C93.0335 78.4388 95.4217 76.1833 95.4217 73.2643C95.5544 70.478 93.1662 68.0897 90.2472 67.957Z" fill="#D45449"/>
<path opacity="0.38" d="M90.2472 68.0898C87.3282 68.0898 84.9399 70.3454 84.9399 73.2644C84.9399 76.1834 87.1955 78.5716 90.1145 78.5716C93.0335 78.5716 95.4217 76.3161 95.4217 73.3971C95.5544 70.4781 93.1662 68.0898 90.2472 68.0898Z" fill="#D45348"/>
<path opacity="0.38" d="M90.2463 68.0898C87.46 68.0898 85.0718 70.3454 85.0718 73.1317C85.0718 75.918 87.3273 78.3063 90.1137 78.3063C92.9 78.3063 95.2882 76.0507 95.2882 73.2644C95.4209 70.4781 93.1653 68.2225 90.2463 68.0898Z" fill="#D45247"/>
</g>
<path d="M108.291 64.5072C105.638 63.5784 102.321 65.9667 100.994 69.9471C99.6672 73.9275 100.729 77.908 103.515 78.8367C106.169 79.7655 109.486 77.3772 110.812 73.3968C112.139 69.5491 110.945 65.4359 108.291 64.5072Z" fill="#E5A185"/>
<path d="M108.557 73.9276C105.903 75.6525 103.117 74.9891 101.127 73.3969C101.127 76.7139 100.463 83.0826 95.6868 89.4513C91.839 94.6258 83.4801 96.3507 77.3768 96.0853C62.6492 95.5546 58.8014 91.0435 55.7498 84.9401C57.8727 91.5742 62.9145 97.8102 74.4578 98.6063C95.9521 100.066 101.79 91.1761 102.586 78.4388C102.852 78.5714 103.117 78.7041 103.382 78.8368C106.036 79.7656 109.353 77.3773 110.68 73.3969C111.078 72.3354 111.21 71.4067 111.21 70.3452C110.812 71.8047 110.016 72.9988 108.557 73.9276Z" fill="#D78C74"/>
<path opacity="0.52" d="M61.057 57.8731C61.057 57.8731 59.8629 61.9862 59.7302 65.1706L71.0081 67.1608C71.0081 67.1608 75.3866 60.5267 74.0598 50.3103L61.057 57.8731Z" fill="#D78C74"/>
<path d="M103.78 71.6719L106.301 72.07C106.301 68.2222 109.22 66.8954 109.22 66.8954C104.443 65.1706 103.78 71.6719 103.78 71.6719Z" fill="#D78C74"/>
<path opacity="0.52" d="M85.4704 50.3103C85.4704 50.3103 80.1632 59.3326 84.011 66.6301L97.4117 67.2935C97.4117 67.2935 98.7386 62.2516 98.0751 58.4038C97.1464 54.5561 85.4704 50.3103 85.4704 50.3103Z" fill="#D78C74"/>
<path d="M91.3081 61.8534C85.8681 61.4553 83.8779 66.6299 83.8779 66.6299C83.8779 66.6299 84.8067 70.0796 90.512 70.0796C97.146 70.2123 97.2787 67.0279 97.2787 67.0279C97.2787 67.0279 96.8807 62.2514 91.3081 61.8534Z" fill="white"/>
<path d="M59.7301 65.1703C59.7301 65.1703 58.8014 68.3547 64.6393 68.62C70.4773 68.8854 71.008 67.1605 71.008 67.1605C71.008 67.1605 65.5681 56.4134 59.7301 65.1703Z" fill="white"/>
<path d="M67.5583 63.3131C66.3641 62.915 64.9046 64.1092 64.2412 66.0994C63.9759 67.0281 63.8432 67.8242 63.9759 68.6203C64.2412 68.6203 64.5066 68.6203 64.772 68.753C66.2315 68.8857 67.2929 68.753 68.089 68.6203C68.2217 68.355 68.487 67.9569 68.487 67.5589C69.1504 65.5687 68.7524 63.7111 67.5583 63.3131Z" fill="url(#paint4_linear)"/>
<path opacity="0.6" d="M63.4453 66.63L63.578 67.4261C63.578 67.4261 67.0277 67.1607 66.7623 65.5686C66.3643 63.9764 63.4453 66.63 63.4453 66.63Z" fill="white"/>
<path d="M91.0434 63.5785C89.8493 63.1804 88.3898 64.3745 87.7264 66.3648C87.3283 67.6916 87.3283 68.8857 87.859 69.6818C88.6551 69.9472 89.5839 70.0798 90.6453 70.0798C91.3087 69.5491 91.8395 68.753 92.1048 67.8243C92.6356 65.9667 92.2375 63.9765 91.0434 63.5785Z" fill="url(#paint5_linear)"/>
<path opacity="0.6" d="M86.9298 67.4259L86.7971 68.3547C86.7971 68.3547 90.3795 68.222 90.1141 66.6298C89.7161 65.0377 86.9298 67.4259 86.9298 67.4259Z" fill="white"/>
<path d="M65.1702 60.792C60.659 60.6593 59.7302 65.0378 59.7302 65.0378C59.7302 65.0378 60.659 63.1803 64.6394 63.1803C68.6199 63.0476 71.0081 67.028 71.0081 67.028C71.0081 67.028 71.1408 60.9247 65.1702 60.792Z" fill="#381911"/>
<path d="M61.0571 57.8731C65.0376 55.4849 71.5389 57.077 73.7945 54.6888C74.7233 53.76 74.0599 50.3103 74.0599 50.3103C61.8532 52.0352 61.0571 57.8731 61.0571 57.8731Z" fill="url(#paint6_linear)"/>
<path d="M85.4704 50.3103C85.4704 50.3103 83.7455 52.9639 84.409 54.0254C86.2665 57.077 94.6254 56.1483 97.9424 58.6692C97.8097 58.5365 98.7385 52.8312 85.4704 50.3103Z" fill="url(#paint7_linear)"/>
<path d="M91.1754 61.588C85.0721 61.4553 83.8779 66.6298 83.8779 66.6298C83.8779 66.6298 85.7355 63.9762 91.1754 64.2416C96.6153 64.6396 97.2787 67.1606 97.2787 67.1606C97.2787 67.1606 97.2787 61.7206 91.1754 61.588Z" fill="#381911"/>
<path d="M70.8755 17.5381C71.0082 19.3956 72.6003 21.2532 72.6003 21.2532C72.6003 21.2532 100.065 39.9612 95.0234 29.0813C89.9816 18.3342 70.8755 17.5381 70.8755 17.5381Z" fill="url(#paint8_linear)"/>
<path d="M99.4023 25.3663C97.8102 25.6317 97.5448 26.2951 97.5448 26.2951C98.6062 24.3049 97.9428 21.5186 97.9428 21.5186C94.8912 23.2434 95.1565 25.6317 95.1565 25.6317C93.6971 22.58 89.0532 21.5186 89.0532 21.5186C89.1859 24.0395 91.9722 26.6931 92.1049 26.8258L94.4931 30.4082L99.4023 29.6121L98.8716 27.3565C99.8004 26.4278 99.4023 25.3663 99.4023 25.3663Z" fill="url(#paint9_linear)"/>
<path d="M78.1729 80.9593C67.8238 81.092 66.6297 78.8364 66.6297 78.8364C66.6297 78.8364 64.5068 87.1953 77.1115 87.328C89.0527 87.4607 87.8586 79.4998 87.7259 78.9691C87.7259 79.2345 87.7259 80.8266 78.1729 80.9593Z" fill="#6C332E"/>
<path d="M85.4705 80.2964C84.011 80.5617 81.8881 80.8271 78.3057 80.9598C73.5292 81.0925 70.6102 80.5617 69.018 80.031C68.8853 81.4905 68.4873 82.95 68.2219 84.2768C69.6814 85.869 72.335 87.1958 77.2442 87.1958C82.4188 87.1958 85.2051 85.7363 86.5319 84.0114C86.3992 83.4807 86.1339 83.0827 86.0012 82.5519C85.6031 81.8885 85.4705 81.0925 85.4705 80.2964Z" fill="white"/>
<path opacity="0.35" d="M85.47 80.2964C84.0105 80.5617 81.8876 80.8271 78.3052 80.9598C73.5287 81.0925 70.6097 80.5617 69.0176 80.031C69.0176 80.5617 68.8849 80.9598 68.7522 81.4905C74.1921 80.031 80.6935 81.7559 86.2661 84.4095C86.3988 84.2768 86.3988 84.1441 86.5315 84.1441C86.3988 83.6134 86.1334 83.2154 86.0007 82.6846C85.6027 81.8885 85.47 81.0925 85.47 80.2964Z" fill="#C3BBA5"/>
<path d="M74.4575 69.8142C74.4575 69.8142 70.6097 67.0279 69.1502 71.9371C67.8234 76.8463 77.6418 79.7653 80.2954 74.7234C82.949 69.5489 76.0496 59.9958 76.0496 59.9958C76.0496 59.9958 77.3765 65.8338 74.4575 69.8142Z" fill="#E5A185"/>
<path opacity="0.2" d="M74.4575 69.8143C74.4575 69.8143 70.7425 67.1607 69.283 71.5392C71.2732 72.0699 73.3961 72.3352 75.3863 72.4679C76.5804 69.5489 76.9785 66.3646 77.1111 62.7822C76.8458 62.6495 76.5804 62.6495 76.315 62.5168C76.4477 64.7724 76.1824 67.5587 74.4575 69.8143Z" fill="white"/>
<path d="M80.6943 26.8255C53.4947 28.683 57.3424 58.8016 57.3424 58.8016C58.9346 49.7793 64.6399 38.6341 68.8857 38.5014C68.8857 38.5014 72.6007 41.5531 78.1733 41.6858C83.2152 41.8184 90.1146 38.1034 90.1146 38.1034C95.1565 37.9707 100.729 53.3617 101.393 65.8337C101.525 68.62 104.046 65.4357 104.046 65.4357C104.046 65.4357 107.496 24.9679 80.6943 26.8255Z" fill="url(#paint10_linear)"/>
<path d="M95.0231 29.214C86.9296 16.8747 60.6587 20.4571 60.6587 20.4571C58.1378 34.3886 67.8235 37.5729 67.8235 37.5729C67.8235 37.5729 90.5119 33.4598 93.9617 35.9807C97.4114 38.369 104.178 57.8731 104.178 57.8731C104.178 57.8731 110.016 37.5729 105.77 30.0101C102.586 24.4375 95.0231 29.214 95.0231 29.214Z" fill="url(#paint11_linear)"/>
<path d="M61.455 31.0713C53.4941 33.4595 55.7497 65.4357 55.7497 65.4357C57.3419 56.4134 64.772 38.7668 69.0178 38.5014C69.0178 38.5014 65.0374 36.1132 61.455 31.0713Z" fill="url(#paint12_linear)"/>
<path opacity="0.21" d="M102.586 27.4893C101.657 27.622 100.596 27.8873 99.5346 28.1527C97.0136 28.6834 94.36 29.0815 91.7064 28.8161C88.6547 28.418 86.0011 27.0912 83.3475 25.6317C82.0207 24.9683 80.6939 24.3049 79.2344 23.6415C76.1827 22.3147 72.733 21.1206 69.416 21.2533C67.8238 21.2533 66.2316 21.784 64.6395 22.4474C63.18 22.9781 62.1185 23.9069 61.1898 24.703C60.7917 25.101 60.5263 25.3664 60.261 25.7644C60.261 26.8259 60.3937 27.8873 60.659 28.8161C60.7917 28.6834 60.9244 28.6834 60.9244 28.5507C61.4551 28.1527 62.1185 27.7546 62.9146 27.3566C63.7107 27.0912 64.6395 26.6932 65.5682 26.6932C69.5487 26.4278 73.131 28.02 76.7134 29.4795C78.1729 30.1429 79.6324 30.8063 81.2246 31.4697C82.8168 32.1331 84.4089 32.7965 86.1338 33.3272C89.0528 34.256 92.5025 34.5214 95.4215 33.5926C95.8195 33.4599 96.2175 33.3272 96.6156 33.3272C98.0751 32.7965 99.4019 32.2658 100.596 31.6024C101.79 31.0717 102.719 30.5409 103.515 30.1429C104.046 29.8775 104.576 29.6122 105.107 29.4795C104.576 28.2854 103.648 27.7546 102.586 27.4893Z" fill="url(#paint13_linear)"/>
<path d="M55.75 65.436C55.75 65.436 55.4846 78.0407 63.8435 79.1022C63.8435 79.1022 61.7206 89.982 77.2443 90.1147C92.2373 90.2474 89.849 79.2349 89.849 79.2349C89.849 79.2349 100.198 79.2349 101.525 65.5687H104.179C104.179 65.5687 101.658 73.5296 102.984 78.3061C102.984 78.3061 106.832 99.4024 78.7038 99.9331C50.5754 100.198 52.433 78.7041 55.75 65.436Z" fill="url(#paint14_linear)"/>
<path d="M75.387 74.7233C75.387 74.7233 71.8046 74.1926 66.3647 75.7848C61.1902 77.377 59.2 76.4482 59.2 76.4482C59.2 76.4482 60.5268 80.5613 76.5812 80.9594C90.2473 81.2247 94.6258 78.4384 94.6258 78.4384C94.6258 78.4384 88.1244 74.458 75.387 74.7233Z" fill="url(#paint15_linear)"/>
<path d="M69.0181 73.3967C69.5488 77.5098 77.775 79.3674 80.296 74.7235C80.4286 74.4582 80.5613 74.1928 80.694 73.7948C76.8463 74.5909 72.7331 74.4582 69.0181 73.3967Z" fill="#D78C74"/>
<path opacity="0.16" d="M74.3254 91.574C75.3869 91.8393 77.2444 92.1047 79.7653 91.7067C80.4287 91.574 81.0921 92.1047 81.2248 92.9008C81.2248 94.0949 80.6941 95.5544 76.8464 95.5544C73.1313 95.5544 72.6006 93.8295 72.7332 92.6354C72.8659 91.8393 73.5293 91.4413 74.3254 91.574Z" fill="black"/>
<path d="M98.3408 105.24L101.392 132.307C102.587 134.563 104.179 138.012 105.904 141.993C113.732 138.676 120.897 133.899 126.867 128.061C114.793 105.506 98.8715 106.302 98.3408 105.24Z" fill="url(#paint16_linear)"/>
<path d="M99.4022 121.295L99.1369 105.506C86.2668 101.791 68.7529 101.791 56.4136 106.965L56.6789 121.295H99.4022Z" fill="#D78C74"/>
<path d="M104.577 142.656L103.913 106.699C102.852 106.301 101.658 105.903 100.331 105.638C99.2693 105.373 98.0752 104.975 96.8811 104.709C95.8196 112.007 86.5319 113.732 76.4482 113.864C67.2932 113.997 63.1801 112.007 61.3226 104.975C58.2709 105.505 50.5754 107.894 46.3296 110.68L46.8603 139.074C56.546 144.381 67.6912 147.433 79.4998 147.433C88.3895 147.433 96.8811 145.708 104.577 142.656Z" fill="#DFE5EA"/>
<path d="M44.6043 112.14C40.6239 116.12 39.0317 123.285 38.2356 133.369C47.2579 140.268 58.0051 145.045 69.8137 146.637C70.7425 130.848 71.6712 119.305 71.8039 117.182C71.4059 115.324 65.5679 109.752 64.2411 104.444C58.8012 104.444 47.9213 108.955 44.6043 112.14Z" fill="url(#paint17_linear)"/>
<path d="M92.9006 103.648C91.9718 110.017 89.3182 108.69 82.0207 117.049C81.7554 119.968 80.8266 131.246 80.0305 147.433C93.4313 147.3 106.036 143.32 116.518 136.553C116.518 133.501 116.385 130.582 116.385 128.061C116.385 125.673 116.518 109.088 100.331 105.771C99.2693 105.373 94.0947 104.046 92.9006 103.648Z" fill="url(#paint18_linear)"/>
<path opacity="0.08" d="M61.3224 104.709C61.3224 104.709 58.8014 117.181 61.5877 122.621C61.5877 122.621 62.1184 114.793 65.5681 116.12C67.8237 117.049 70.212 120.233 71.5388 122.356C71.6715 119.57 71.8042 117.845 71.8042 117.181C71.4061 115.324 65.8335 110.016 64.374 104.975C62.6492 104.709 61.3224 104.709 61.3224 104.709Z" fill="#002A3D"/>
<path d="M64.7717 109.751C64.7717 110.017 62.9142 125.142 61.322 144.779C62.2508 145.044 63.0469 145.31 63.9756 145.442C65.4351 127.663 67.0273 113.732 67.4253 110.68C67.2927 110.415 67.16 110.282 66.8946 110.017L64.7717 109.751Z" fill="#993CFE"/>
<path d="M87.3282 111.874C86.9302 115.722 85.8687 129.653 84.9399 147.167C85.8687 147.035 86.7975 147.035 87.7263 146.902C88.655 126.469 90.1145 111.211 90.1145 111.078L88.5223 110.945C88.1243 111.211 87.7262 111.476 87.3282 111.874Z" fill="#993CFE"/>
<path opacity="0.08" d="M90.9103 116.253C94.3601 114.926 95.1561 122.754 95.1561 122.754C97.8098 117.314 94.8908 104.842 94.8908 104.842C94.8908 104.842 93.962 104.842 92.7679 104.975C91.7064 110.017 88.9201 109.353 82.0207 117.181C81.888 117.977 81.6227 120.764 81.49 123.948C83.7456 121.427 89.0528 117.049 90.9103 116.253Z" fill="#002A3D"/>
<path d="M40.7566 132.44L42.0834 129.654L63.9758 125.806L64.5065 128.46L40.7566 132.44Z" fill="#993CFE"/>
<path d="M71.8047 117.181C71.8047 117.181 64.2418 108.026 62.517 114.13C61.3229 118.376 60.7921 120.764 60.7921 120.764C60.7921 120.764 57.2097 110.149 60.7921 105.107C64.5072 99.9329 67.2935 99.0042 67.2935 99.0042C67.2935 99.0042 67.0281 105.107 69.4164 110.149C71.1412 113.599 71.8047 117.181 71.8047 117.181Z" fill="url(#paint19_linear)"/>
<path d="M70.3445 125.01C70.3445 125.938 69.5484 126.602 68.4869 126.602C67.4255 126.602 66.6294 125.938 66.6294 125.01C66.6294 124.081 67.4255 123.417 68.4869 123.417C69.4157 123.417 70.3445 124.081 70.3445 125.01Z" fill="#B0B5C1"/>
<path d="M68.7527 143.187C68.7527 144.116 67.9566 144.779 66.8951 144.779C65.8337 144.779 65.0376 144.116 65.0376 143.187C65.0376 142.258 65.8337 141.595 66.8951 141.595C67.9566 141.595 68.7527 142.391 68.7527 143.187Z" fill="#B0B5C1"/>
<path d="M109.353 132.44L87.3279 127.929L87.8586 125.275L109.884 129.786L109.353 132.44Z" fill="#993CFE"/>
<path d="M82.0203 117.314C82.0203 117.314 91.9713 108.027 93.9616 114.263C95.2884 118.508 95.9518 120.897 95.9518 120.897C95.9518 120.897 99.1361 110.282 95.2884 105.24C91.4406 100.066 89.0524 99.9331 89.0524 99.9331C89.0524 99.9331 89.3177 102.056 87.0621 107.231C85.6027 110.68 82.4183 113.069 82.0203 117.314Z" fill="url(#paint20_linear)"/>
<path opacity="0.12" d="M69.5486 110.282C67.1603 105.108 67.4257 99.137 67.4257 99.137C67.4257 99.137 66.7623 99.4023 65.5682 100.331C62.9145 102.852 63.4453 108.159 64.7721 112.272C67.5584 112.14 71.9368 117.314 71.9368 117.314C71.9368 117.314 71.1408 113.599 69.5486 110.282Z" fill="white"/>
<path opacity="0.12" d="M91.308 112.14C91.8388 107.894 91.8388 103.515 89.0525 99.9331C89.0525 99.9331 89.3178 102.056 87.0623 107.231C85.6028 110.548 82.4184 113.069 81.8877 117.314C82.0204 117.314 87.7257 112.007 91.308 112.14Z" fill="white"/>
<path d="M38.5012 133.634C39.2973 134.297 40.2261 134.828 41.0222 135.491C44.4719 117.314 48.983 110.415 50.8406 108.159C48.585 108.69 46.7274 109.619 45.5333 110.68C43.4104 114.926 40.6241 122.621 38.5012 133.634Z" fill="#993CFE"/>
<path d="M104.311 106.832C103.117 106.302 101.79 105.904 100.331 105.638C100.198 105.638 100.065 105.506 99.9326 105.506C101.79 107.098 106.301 113.599 110.282 140.003C111.211 139.605 112.007 139.074 112.803 138.676C110.016 120.499 106.832 111.344 104.311 106.832Z" fill="#993CFE"/>
<path d="M80.2307 147.373L82.1328 116.94M82.1328 116.94C82.5766 115.482 83.9588 111.957 85.9369 109.522C87.915 107.088 88.9168 102.168 89.1704 100.012C90.7926 100.69 92.8569 102.071 94.5177 104.197M82.1328 116.94C84.0982 115.355 88.7139 112.147 91.4528 111.995C94.1918 111.843 95.5105 117.638 95.8275 120.554C98.8372 113.03 97.2058 107.637 94.5177 104.197M94.5177 104.197C98.378 104.831 107.696 107.278 114.087 111.995C120.478 116.712 125.246 124.865 126.831 128.353M69.5793 146.612L71.6715 116.94M71.6715 116.94C71.2277 114.975 69.9597 110.359 68.4381 107.62C66.9164 104.881 67.17 100.519 67.4871 98.6807C65.5657 99.5675 62.9965 101.571 61.2639 104.767M71.6715 116.94C70.9741 116.116 68.7805 114.087 65.5851 112.566C62.3897 111.044 61.0836 117.257 60.83 120.554C58.3934 113.651 59.2804 108.427 61.2639 104.767M61.2639 104.767C58.0126 105.528 49.9122 108.039 43.5214 111.995C37.1305 115.951 31.7287 122.773 29.8267 125.69" stroke="white" stroke-width="1.7"/>
<path d="M104.196 57.4067V65.7756C109.218 61.9716 111.107 67.3607 111.424 70.5307C110.663 78.2911 105.655 79.3435 103.245 78.8997C104.006 87.0785 99.4414 92.4042 96.9687 94.4965C94.4961 96.5887 83.8446 103.056 67.8675 98.4908C55.0857 94.8388 53.2852 83.4012 53.9826 78.1389C48.6569 76.6173 46.945 69.1993 50.1785 65.205C52.7653 62.0096 55.0604 63.8736 55.8846 65.205C53.7543 38.8807 58.801 31.5388 61.5907 31.1584C59.7647 28.7238 60.1959 22.9163 60.6397 20.3168C80.5731 17.4257 91.8966 24.8183 95.0667 28.876C101.153 26.2892 104.07 27.7982 104.767 28.876C109.788 34.2017 106.479 50.1155 104.196 57.4067Z" stroke="white" stroke-width="1.77"/>
<path d="M71.4813 19.7461C71.3291 19.2896 71.0374 18.0342 70.9106 17.4636C74.5879 17.7172 83.4261 19.1374 89.3605 22.7893L89.1703 21.4579C90.9455 22.1553 94.6481 23.9686 95.2568 25.6424C95.447 24.8182 96.2078 22.8274 97.7295 21.4579C97.9831 22.4089 98.3381 24.6533 97.7295 26.0228L99.6315 25.262C99.7583 25.8326 99.7837 27.126 98.8707 27.7347" stroke="white" stroke-width="1.77"/>
<defs>
<linearGradient id="paint0_linear" x1="81.9879" y1="3.19763" x2="75.424" y2="152.566" gradientUnits="userSpaceOnUse">
<stop stop-color="#7521FF"/>
<stop offset="1" stop-color="#F471FF"/>
</linearGradient>
<linearGradient id="paint1_linear" x1="82.1793" y1="-2.67182" x2="75.1105" y2="158.187" gradientUnits="userSpaceOnUse">
<stop stop-color="#7521FF"/>
<stop offset="1" stop-color="#F471FF"/>
</linearGradient>
<linearGradient id="paint2_linear" x1="81.8184" y1="8.3896" x2="75.7012" y2="147.594" gradientUnits="userSpaceOnUse">
<stop stop-color="#7521FF"/>
<stop offset="1" stop-color="#F471FF"/>
</linearGradient>
<linearGradient id="paint3_linear" x1="45.7293" y1="106.85" x2="43.3339" y2="223.435" gradientUnits="userSpaceOnUse">
<stop stop-color="#21D1FF"/>
<stop offset="1" stop-color="#993CFE"/>
</linearGradient>
<linearGradient id="paint4_linear" x1="65.5654" y1="69.4538" x2="67.6691" y2="62.3291" gradientUnits="userSpaceOnUse">
<stop stop-color="#5C3333"/>
<stop offset="1"/>
</linearGradient>
<linearGradient id="paint5_linear" x1="88.7947" y1="71.2471" x2="90.8117" y2="63.248" gradientUnits="userSpaceOnUse">
<stop stop-color="#5C3333"/>
<stop offset="1"/>
</linearGradient>
<linearGradient id="paint6_linear" x1="67.8991" y1="50.1334" x2="67.6104" y2="76.6171" gradientUnits="userSpaceOnUse">
<stop stop-color="#33105F"/>
<stop offset="1" stop-color="#501392"/>
</linearGradient>
<linearGradient id="paint7_linear" x1="91.3333" y1="50.1148" x2="90.9923" y2="79.3857" gradientUnits="userSpaceOnUse">
<stop stop-color="#33105F"/>
<stop offset="1" stop-color="#501392"/>
</linearGradient>
<linearGradient id="paint8_linear" x1="83.6811" y1="17.1886" x2="83.0789" y2="69.5178" gradientUnits="userSpaceOnUse">
<stop stop-color="#33105F"/>
<stop offset="1" stop-color="#993CFE"/>
</linearGradient>
<linearGradient id="paint9_linear" x1="94.4482" y1="21.3106" x2="93.9425" y2="52.436" gradientUnits="userSpaceOnUse">
<stop stop-color="#33105F"/>
<stop offset="1" stop-color="#993CFE"/>
</linearGradient>
<linearGradient id="paint10_linear" x1="81.4757" y1="25.8229" x2="79.1798" y2="166.622" gradientUnits="userSpaceOnUse">
<stop stop-color="#33105F"/>
<stop offset="1" stop-color="#993CFE"/>
</linearGradient>
<linearGradient id="paint11_linear" x1="84.5822" y1="19.0873" x2="82.5447" y2="151.789" gradientUnits="userSpaceOnUse">
<stop stop-color="#33105F"/>
<stop offset="1" stop-color="#993CFE"/>
</linearGradient>
<linearGradient id="paint12_linear" x1="62.4676" y1="30.2676" x2="56.6654" y2="150.34" gradientUnits="userSpaceOnUse">
<stop stop-color="#33105F"/>
<stop offset="1" stop-color="#993CFE"/>
</linearGradient>
<linearGradient id="paint13_linear" x1="71.291" y1="19.9364" x2="100.773" y2="38.0058" gradientUnits="userSpaceOnUse">
<stop stop-color="white"/>
<stop offset="1" stop-color="white" stop-opacity="0"/>
</linearGradient>
<linearGradient id="paint14_linear" x1="79.9107" y1="64.6292" x2="78.3289" y2="185.434" gradientUnits="userSpaceOnUse">
<stop stop-color="#33105F"/>
<stop offset="1" stop-color="#993CFE"/>
</linearGradient>
<linearGradient id="paint15_linear" x1="77.5174" y1="74.4902" x2="77.4417" y2="96.6897" gradientUnits="userSpaceOnUse">
<stop stop-color="#33105F"/>
<stop offset="1" stop-color="#993CFE"/>
</linearGradient>
<linearGradient id="paint16_linear" x1="113.091" y1="104.381" x2="109.93" y2="233.02" gradientUnits="userSpaceOnUse">
<stop stop-color="#21D1FF"/>
<stop offset="1" stop-color="#993CFE"/>
</linearGradient>
<linearGradient id="paint17_linear" x1="55.5926" y1="103.458" x2="52.0522" y2="251.141" gradientUnits="userSpaceOnUse">
<stop stop-color="#21D1FF"/>
<stop offset="1" stop-color="#993CFE"/>
</linearGradient>
<linearGradient id="paint18_linear" x1="98.8968" y1="102.624" x2="95.3891" y2="255.888" gradientUnits="userSpaceOnUse">
<stop stop-color="#21D1FF"/>
<stop offset="1" stop-color="#993CFE"/>
</linearGradient>
<linearGradient id="paint19_linear" x1="65.7174" y1="98.4952" x2="63.211" y2="174.62" gradientUnits="userSpaceOnUse">
<stop stop-color="#21D1FF"/>
<stop offset="0.1875" stop-color="#993CFE"/>
</linearGradient>
<linearGradient id="paint20_linear" x1="89.8636" y1="99.4428" x2="87.9297" y2="172.811" gradientUnits="userSpaceOnUse">
<stop stop-color="#21D1FF"/>
<stop offset="0.1875" stop-color="#993CFE"/>
</linearGradient>
</defs>
</svg>
