<svg width="136" height="137" viewBox="0 0 136 137" fill="none" xmlns="http://www.w3.org/2000/svg">
<path d="M67.9327 136.433C105.451 136.433 135.865 106.018 135.865 68.4998C135.865 30.9816 105.451 0.567139 67.9327 0.567139C30.4145 0.567139 0 30.9816 0 68.4998C0 106.018 30.4145 136.433 67.9327 136.433Z" fill="url(#paint0_linear)"/>
<path d="M121.382 83.3279L122.872 87.3551L126.899 88.8453L122.872 90.3354L121.382 94.3626L119.892 90.3354L115.865 88.8453L119.892 87.3551L121.382 83.3279Z" fill="white"/>
<path d="M11.0346 69.5344L11.5934 71.0446L13.1036 71.6034L11.5934 72.1623L11.0346 73.6725L10.4758 72.1623L8.96558 71.6034L10.4758 71.0446L11.0346 69.5344Z" fill="white"/>
<path d="M35.8629 14.3606L36.608 16.3742L38.6216 17.1193L36.608 17.8644L35.8629 19.878L35.1178 17.8644L33.1042 17.1193L35.1178 16.3742L35.8629 14.3606Z" fill="white"/>
<path d="M111.727 40.5681L112.472 42.5817L114.485 43.3268L112.472 44.0719L111.727 46.0855L110.982 44.0719L108.968 43.3268L110.982 42.5817L111.727 40.5681Z" fill="white"/>
<path d="M43.4492 66.7756L43.8217 67.7824L44.8285 68.155L43.8217 68.5275L43.4492 69.5343L43.0766 68.5275L42.0698 68.155L43.0766 67.7824L43.4492 66.7756Z" fill="white"/>
<path d="M26.2076 44.7061L27.5115 48.2298L31.0353 49.5338L27.5115 50.8377L26.2076 54.3615L24.9037 50.8377L21.3799 49.5338L24.9037 48.2298L26.2076 44.7061Z" fill="white"/>
<path d="M100.002 83.3279L100.375 84.3347L101.382 84.7072L100.375 85.0798L100.002 86.0866L99.6298 85.0798L98.623 84.7072L99.6298 84.3347L100.002 83.3279Z" fill="white"/>
<path d="M18.1772 114.673C24.0152 121.042 31.18 126.216 39.1409 129.931C44.7135 122.103 48.9593 115.204 49.0919 114.938L40.733 96.6284C31.3127 99.4147 23.7498 107.11 18.1772 114.673Z" fill="url(#paint1_linear)"/>
<path d="M40.3351 52.7109C37.6815 53.6397 36.3546 57.6201 37.5488 61.6005C38.7429 65.581 41.9273 68.1019 44.7136 67.1731C47.3672 66.2444 48.694 62.2639 47.4999 58.2835C46.173 54.4358 42.9887 51.9148 40.3351 52.7109Z" fill="#D78C74"/>
<path d="M67.4016 70.0922C61.5636 69.9595 56.9198 71.9497 56.7871 76.1955L55.0623 96.2303C55.0623 100.476 60.9002 101.14 66.8709 101.14C72.7088 101.272 77.618 100.476 77.618 96.363L77.3527 77.5223C77.3527 73.4092 73.3722 70.2248 67.4016 70.0922Z" fill="#D78C74"/>
<path d="M87.7021 28.961C86.1099 19.5407 59.5737 15.1622 51.7455 28.0323C49.2246 34.0029 45.2441 45.2808 43.7846 56.2933C43.7846 56.1606 43.7846 56.1606 43.7846 56.1606C43.7846 56.1606 36.4872 85.7485 62.8907 87.606C89.1616 89.4636 92.0805 75.5321 91.0191 58.2835C91.1518 48.5978 89.6923 36.2585 87.7021 28.961Z" fill="#E5A185"/>
<g opacity="0.38">
<path opacity="0.38" d="M53.205 51.6495C48.0304 51.5168 43.652 56.1607 43.652 61.8659C43.5193 67.5712 47.7651 72.2151 52.9396 72.3477C58.1142 72.4804 62.4927 67.8366 62.4927 62.1313C62.6253 56.426 58.5122 51.7822 53.205 51.6495Z" fill="#E5A185"/>
<path opacity="0.38" d="M53.205 51.6495C48.0304 51.5168 43.7846 56.1607 43.652 61.7333C43.5193 67.3059 47.7651 72.0824 52.9396 72.0824C58.1142 72.2151 62.36 67.5712 62.4927 61.9986C62.6253 56.426 58.3795 51.7822 53.205 51.6495Z" fill="#E5A084"/>
<path opacity="0.38" d="M53.205 51.7822C48.0304 51.6495 43.7846 56.1606 43.7846 61.8659C43.6519 67.4385 47.765 72.0824 52.9396 72.215C58.1142 72.3477 62.36 67.8366 62.36 62.1313C62.4926 56.426 58.3795 51.7822 53.205 51.7822Z" fill="#E59F83"/>
<path opacity="0.38" d="M53.205 51.7822C48.0304 51.6495 43.9173 56.1606 43.7846 61.7332C43.6519 67.3058 47.765 71.9497 52.9396 71.9497C58.1142 72.0824 62.2273 67.5712 62.36 61.9986C62.4926 56.5587 58.3795 51.9148 53.205 51.7822Z" fill="#E49E83"/>
<path opacity="0.38" d="M53.205 51.9147C48.1631 51.782 43.9173 56.2932 43.7846 61.8658C43.6519 67.4384 47.765 71.9496 52.8069 72.0822C57.8488 72.2149 62.0946 67.7038 62.2273 62.1312C62.36 56.5586 58.3795 51.9147 53.205 51.9147Z" fill="#E49D82"/>
<path opacity="0.38" d="M53.2046 51.9147C48.1627 51.782 44.0496 56.2932 43.9169 61.7331C43.7843 67.3057 47.8974 71.8169 52.9393 71.8169C57.9811 71.9496 62.0942 67.4384 62.2269 61.9985C62.3596 56.5586 58.2465 52.0474 53.2046 51.9147Z" fill="#E49C81"/>
<path opacity="0.38" d="M53.2046 52.0475C48.1627 51.9149 44.0496 56.426 43.9169 61.8659C43.7843 67.3059 47.8974 71.817 52.9393 71.9497C57.9811 72.0824 62.0942 67.5712 62.2269 62.1313C62.2269 56.5587 58.2465 52.0475 53.2046 52.0475Z" fill="#E49B80"/>
<path opacity="0.38" d="M53.2046 52.0474C48.1627 51.9147 44.0496 56.2932 44.0496 61.7331C43.9169 67.173 47.8974 71.6842 52.9392 71.6842C57.9811 71.8168 62.0942 67.4384 62.0942 61.9985C62.2269 56.6912 58.2465 52.1801 53.2046 52.0474Z" fill="#E49A80"/>
<path opacity="0.38" d="M53.2046 52.1799C48.2954 52.0473 44.1823 56.4257 44.0496 61.8657C43.9169 67.3056 47.8974 71.684 52.9392 71.8167C57.8484 71.9494 61.9615 67.5709 62.0942 62.131C62.0942 56.6911 58.2465 52.1799 53.2046 52.1799Z" fill="#E3997F"/>
<path opacity="0.38" d="M53.205 52.1799C48.2958 52.0473 44.1827 56.4257 44.1827 61.733C44.05 67.0402 48.0304 71.5514 52.9396 71.5514C57.8488 71.684 61.9619 67.3056 61.9619 61.9983C62.0946 56.6911 58.1142 52.3126 53.205 52.1799Z" fill="#E3987E"/>
<path opacity="0.38" d="M53.205 52.3125C48.2958 52.1798 44.3153 56.5583 44.1827 61.8655C44.05 67.1728 48.0304 71.5513 52.9396 71.6839C57.8488 71.8166 61.8292 67.4381 61.9619 62.1309C61.9619 56.691 58.1142 52.3125 53.205 52.3125Z" fill="#E3977D"/>
<path opacity="0.38" d="M53.2051 52.3126C48.2959 52.1799 44.3155 56.4257 44.3155 61.733C44.1828 67.0402 48.1632 71.4187 52.9397 71.4187C57.8489 71.5514 61.8294 67.3056 61.8294 61.9983C61.9621 56.8238 58.1143 52.4453 53.2051 52.3126Z" fill="#E3967C"/>
<path opacity="0.38" d="M53.2051 52.4457C48.4286 52.313 44.4482 56.5588 44.3155 61.866C44.1828 67.1733 48.1632 71.419 52.9397 71.5517C57.7163 71.6844 61.6967 67.4386 61.8294 62.1314C61.9621 56.8241 57.9816 52.4457 53.2051 52.4457Z" fill="#E2957C"/>
<path opacity="0.38" d="M53.2044 52.4453C48.4279 52.4453 44.4474 56.5584 44.4474 61.733C44.3147 66.9075 48.1625 71.286 52.939 71.286C57.7155 71.286 61.696 67.1729 61.696 61.9983C61.8286 56.8238 57.9809 52.578 53.2044 52.4453Z" fill="#E2947B"/>
<path opacity="0.38" d="M53.2044 52.5781C48.4279 52.5781 44.5801 56.6912 44.4474 61.8658C44.3147 67.0404 48.1625 71.2862 52.939 71.4188C57.7155 71.4188 61.5633 67.3057 61.696 62.1312C61.8286 56.8239 57.9809 52.5781 53.2044 52.5781Z" fill="#E2937A"/>
<path opacity="0.38" d="M53.2044 52.5781C48.4279 52.5781 44.5801 56.6912 44.4474 61.7331C44.3147 66.9077 48.1625 71.1535 52.939 71.1535C57.7155 71.1535 61.5633 67.0404 61.696 61.9985C61.696 56.9566 57.9809 52.7108 53.2044 52.5781Z" fill="#E29279"/>
<path opacity="0.38" d="M53.2047 52.7107C48.5609 52.7107 44.5805 56.6911 44.5805 61.8657C44.4478 67.0402 48.2956 71.1534 52.9394 71.286C57.5832 71.286 61.5637 67.3056 61.5637 62.1311C61.6963 56.9565 57.8486 52.7107 53.2047 52.7107Z" fill="#E29179"/>
<path opacity="0.38" d="M53.2047 52.7107C48.5609 52.7107 44.7132 56.6911 44.5805 61.733C44.4478 66.7749 48.2956 71.0207 52.9394 71.0207C57.5832 71.0207 61.431 67.0402 61.5637 61.9984C61.5637 56.9565 57.8486 52.8434 53.2047 52.7107Z" fill="#E19078"/>
<path opacity="0.38" d="M53.205 52.8435C48.5612 52.8435 44.7134 56.8239 44.7134 61.8658C44.5807 66.9077 48.2958 71.0208 52.9396 71.1535C57.5835 71.1535 61.4312 67.1731 61.4312 62.1312C61.5639 56.9566 57.8488 52.8435 53.205 52.8435Z" fill="#E18F77"/>
<path opacity="0.38" d="M53.205 52.8435C48.5612 52.8435 44.8461 56.8239 44.7134 61.8658C44.5807 66.9077 48.2958 71.0208 52.9396 71.0208C57.5835 71.0208 61.2985 67.0404 61.4312 61.9985C61.4312 57.0893 57.8488 52.9762 53.205 52.8435Z" fill="#E18E76"/>
<path opacity="0.38" d="M61.3629 62.0748C61.4312 57.0924 57.8039 53.0029 53.2612 52.9406C48.7184 52.8783 44.9804 56.8668 44.9121 61.8492C44.8437 66.8316 48.471 70.9211 53.0137 70.9834C57.5565 71.0457 61.2945 67.0572 61.3629 62.0748Z" fill="#E18D75"/>
<path opacity="0.38" d="M61.363 62.0744C61.4303 57.1653 57.8023 53.1352 53.2595 53.0729C48.7168 53.0106 44.9795 56.9397 44.9122 61.8488C44.8449 66.7579 48.4729 70.7881 53.0157 70.8504C57.5584 70.9127 61.2957 66.9836 61.363 62.0744Z" fill="#E18C75"/>
<path opacity="0.38" d="M61.2302 62.0728C61.2976 57.1637 57.7289 53.1343 53.2594 53.073C48.7899 53.0117 45.1121 56.9416 45.0448 61.8508C44.9774 66.7599 48.5461 70.7892 53.0156 70.8505C57.4851 70.9118 61.1629 66.9819 61.2302 62.0728Z" fill="#E08B74"/>
<path opacity="0.38" d="M61.2306 62.0726C61.297 57.2368 57.7275 53.2669 53.258 53.2056C48.7885 53.1443 45.1115 57.0148 45.0452 61.8506C44.9788 66.6865 48.5483 70.6564 53.0178 70.7177C57.4873 70.779 61.1643 66.9085 61.2306 62.0726Z" fill="#E08A73"/>
<path opacity="0.38" d="M61.2306 62.0727C61.297 57.2368 57.7275 53.2669 53.258 53.2056C48.7885 53.1443 45.1115 57.0148 45.0452 61.8506C44.9788 66.6865 48.5483 70.6564 53.0178 70.7177C57.4873 70.779 61.1643 66.9085 61.2306 62.0727Z" fill="#E08972"/>
<path opacity="0.38" d="M61.0973 62.0711C61.1626 57.3085 57.6518 53.3988 53.2555 53.3385C48.8593 53.2782 45.2425 57.0901 45.1772 61.8527C45.1118 66.6152 48.6227 70.525 53.0189 70.5853C57.4151 70.6456 61.0319 66.8337 61.0973 62.0711Z" fill="#E08872"/>
<path opacity="0.38" d="M61.0973 62.0711C61.1627 57.3085 57.6518 53.3988 53.2556 53.3385C48.8593 53.2782 45.2425 57.0901 45.1772 61.8527C45.1118 66.6152 48.6227 70.525 53.0189 70.5853C57.4151 70.6456 61.032 66.8337 61.0973 62.0711Z" fill="#DF8771"/>
<path opacity="0.38" d="M60.9648 62.0692C61.0301 57.3066 57.5787 53.3977 53.2557 53.3384C48.9328 53.2791 45.3753 57.0918 45.31 61.8544C45.2446 66.617 48.6961 70.5259 53.019 70.5852C57.342 70.6445 60.8994 66.8318 60.9648 62.0692Z" fill="#DF8670"/>
<path opacity="0.38" d="M60.9652 62.0691C61.0295 57.3798 57.5772 53.5302 53.2543 53.4709C48.9313 53.4116 45.3747 57.1649 45.3104 61.8542C45.246 66.5435 48.6983 70.3931 53.0212 70.4524C57.3442 70.5117 60.9008 66.7584 60.9652 62.0691Z" fill="#DF856F"/>
<path opacity="0.38" d="M60.8329 62.0676C60.8973 57.3783 57.5044 53.5296 53.2547 53.4713C49.005 53.413 45.5078 57.1671 45.4434 61.8564C45.3791 66.5457 48.772 70.3945 53.0216 70.4528C57.2713 70.5111 60.7685 66.757 60.8329 62.0676Z" fill="#DF846F"/>
<path opacity="0.38" d="M60.8321 62.0673C60.8954 57.4512 57.5017 53.6619 53.2521 53.6036C49.0024 53.5453 45.506 57.24 45.4426 61.856C45.3792 66.4721 48.7729 70.2614 53.0226 70.3197C57.2723 70.3781 60.7687 66.6833 60.8321 62.0673Z" fill="#DF836E"/>
<path opacity="0.38" d="M60.6996 62.0656C60.7629 57.4496 57.4286 53.6611 53.2522 53.6037C49.0758 53.5464 45.6388 57.242 45.5754 61.858C45.5121 66.474 48.8463 70.2625 53.0228 70.3199C57.1992 70.3772 60.6362 66.6816 60.6996 62.0656Z" fill="#DE826D"/>
<path opacity="0.38" d="M60.6999 62.0657C60.7623 57.523 57.4272 53.7938 53.2508 53.7365C49.0744 53.6792 45.6382 57.3153 45.5758 61.8581C45.5134 66.4009 48.8485 70.13 53.025 70.1873C57.2014 70.2447 60.6376 66.6085 60.6999 62.0657Z" fill="#DE816C"/>
<path opacity="0.38" d="M60.7 62.0657C60.7623 57.523 57.4272 53.7939 53.2508 53.7365C49.0744 53.6792 45.6382 57.3153 45.5758 61.8581C45.5135 66.4009 48.8485 70.13 53.025 70.1873C57.2014 70.2447 60.6376 66.6085 60.7 62.0657Z" fill="#DE806B"/>
<path opacity="0.38" d="M60.5673 62.0637C60.6287 57.5942 57.3522 53.9253 53.2491 53.8689C49.1459 53.8126 45.7699 57.3902 45.7085 61.8597C45.6472 66.3292 48.9237 69.9981 53.0268 70.0544C57.1299 70.1108 60.506 66.5332 60.5673 62.0637Z" fill="#DE7F6B"/>
<path opacity="0.38" d="M60.5673 62.0637C60.6287 57.5942 57.3522 53.9253 53.2491 53.869C49.1459 53.8126 45.7699 57.3902 45.7085 61.8597C45.6472 66.3292 48.9237 69.9981 53.0268 70.0544C57.1299 70.1108 60.506 66.5332 60.5673 62.0637Z" fill="#DE7E6A"/>
<path opacity="0.38" d="M60.4342 62.0619C60.4946 57.6657 57.2767 54.057 53.2468 54.0016C49.217 53.9463 45.9011 57.4652 45.8408 61.8615C45.7804 66.2577 48.9983 69.8664 53.0282 69.9217C57.058 69.9771 60.3739 66.4581 60.4342 62.0619Z" fill="#DD7D69"/>
<path opacity="0.38" d="M60.4342 62.0619C60.4946 57.6657 57.2767 54.057 53.2468 54.0016C49.217 53.9463 45.9012 57.4652 45.8408 61.8615C45.7804 66.2577 48.9983 69.8664 53.0282 69.9218C57.058 69.9771 60.3739 66.4581 60.4342 62.0619Z" fill="#DD7C68"/>
<path opacity="0.38" d="M60.3021 62.0601C60.3615 57.7371 57.2022 54.1886 53.2456 54.1343C49.289 54.0799 46.0334 57.5403 45.974 61.8633C45.9146 66.1862 49.0739 69.7347 53.0305 69.7891C56.9871 69.8434 60.2427 66.3831 60.3021 62.0601Z" fill="#DD7B68"/>
<path opacity="0.38" d="M60.3021 62.0601C60.3615 57.7372 57.2022 54.1887 53.2456 54.1343C49.289 54.0799 46.0334 57.5403 45.974 61.8633C45.9146 66.1862 49.0739 69.7347 53.0305 69.7891C56.9871 69.8435 60.2427 66.3831 60.3021 62.0601Z" fill="#DD7A67"/>
<path opacity="0.38" d="M60.1687 62.0583C60.2271 57.8086 57.1264 54.3203 53.2431 54.267C49.3598 54.2136 46.1644 57.6154 46.106 61.8651C46.0476 66.1148 49.1483 69.6031 53.0316 69.6564C56.915 69.7098 60.1104 66.308 60.1687 62.0583Z" fill="#DD7A66"/>
<path opacity="0.38" d="M60.1688 62.0583C60.2272 57.8086 57.1264 54.3203 53.2431 54.267C49.3598 54.2136 46.1644 57.6154 46.106 61.8651C46.0476 66.1148 49.1483 69.6031 53.0316 69.6564C56.915 69.7098 60.1104 66.308 60.1688 62.0583Z" fill="#DC7965"/>
<path opacity="0.38" d="M60.1691 62.0584C60.2265 57.882 57.125 54.4531 53.2417 54.3998C49.3584 54.3464 46.1638 57.6888 46.1064 61.8652C46.049 66.0416 49.1505 69.4705 53.0338 69.5239C56.9172 69.5772 60.1117 66.2349 60.1691 62.0584Z" fill="#DC7864"/>
<path opacity="0.38" d="M60.0369 62.0565C60.0943 57.8801 57.0522 54.452 53.2421 54.3996C49.432 54.3473 46.2968 57.6905 46.2394 61.8669C46.182 66.0433 49.2242 69.4714 53.0342 69.5238C56.8443 69.5761 59.9795 66.2329 60.0369 62.0565Z" fill="#DC7764"/>
<path opacity="0.38" d="M60.0365 62.0567C60.0929 57.9535 57.05 54.5848 53.2399 54.5324C49.4299 54.4801 46.2955 57.7639 46.2391 61.867C46.1827 65.9701 49.2256 69.3388 53.0357 69.3912C56.8457 69.4436 59.9801 66.1598 60.0365 62.0567Z" fill="#DC7663"/>
<path opacity="0.38" d="M59.9035 62.0547C59.9599 57.9516 56.9764 54.5837 53.2396 54.5323C49.5028 54.481 46.4278 57.7656 46.3714 61.8687C46.315 65.9718 49.2986 69.3397 53.0353 69.3911C56.7721 69.4425 59.8471 66.1579 59.9035 62.0547Z" fill="#DB7562"/>
<path opacity="0.38" d="M59.9039 62.0551C59.9593 58.0252 56.975 54.7167 53.2382 54.6653C49.5014 54.614 46.4272 57.8392 46.3718 61.869C46.3164 65.8989 49.3007 69.2074 53.0375 69.2588C56.7743 69.3102 59.8485 66.085 59.9039 62.0551Z" fill="#DB7461"/>
<path opacity="0.38" d="M59.7714 62.0529C59.8268 58.0231 56.9019 54.7154 53.2384 54.665C49.5748 54.6146 46.56 57.8406 46.5046 61.8705C46.4492 65.9004 49.3742 69.2081 53.0377 69.2585C56.7012 69.3088 59.716 66.0828 59.7714 62.0529Z" fill="#DB7361"/>
<path opacity="0.38" d="M59.7713 62.0533C59.8257 58.0967 56.9 54.8484 53.2364 54.798C49.5729 54.7476 46.5589 57.9142 46.5045 61.8708C46.4501 65.8275 49.3759 69.0758 53.0394 69.1261C56.7029 69.1765 59.7169 66.0099 59.7713 62.0533Z" fill="#DB7260"/>
<path opacity="0.38" d="M59.6385 62.0511C59.693 58.0945 56.8266 54.847 53.2364 54.7977C49.6461 54.7483 46.6915 57.9157 46.6371 61.8723C46.5827 65.8289 49.449 69.0764 53.0393 69.1258C56.6295 69.1752 59.5841 66.0077 59.6385 62.0511Z" fill="#DB715F"/>
<path opacity="0.38" d="M59.6382 62.0513C59.6916 58.1679 56.8245 54.9798 53.2342 54.9305C49.644 54.8811 46.6902 57.9891 46.6368 61.8724C46.5833 65.7557 49.4505 68.9438 53.0408 68.9932C56.631 69.0426 59.5848 65.9346 59.6382 62.0513Z" fill="#DA705E"/>
<path opacity="0.38" d="M59.6382 62.0513C59.6916 58.168 56.8245 54.9799 53.2342 54.9305C49.644 54.8811 46.6902 57.9891 46.6368 61.8724C46.5834 65.7557 49.4505 68.9439 53.0408 68.9932C56.631 69.0426 59.5848 65.9346 59.6382 62.0513Z" fill="#DA6F5D"/>
<path opacity="0.38" d="M59.5056 62.0492C59.558 58.2392 56.7494 55.1113 53.2325 55.0629C49.7155 55.0145 46.8219 58.0639 46.7695 61.874C46.7171 65.684 49.5256 68.8119 53.0426 68.8603C56.5596 68.9087 59.4532 65.8593 59.5056 62.0492Z" fill="#DA6E5D"/>
<path opacity="0.38" d="M59.5056 62.0492C59.558 58.2392 56.7495 55.1113 53.2325 55.0629C49.7155 55.0145 46.8219 58.0639 46.7695 61.874C46.7171 65.684 49.5256 68.8119 53.0426 68.8603C56.5596 68.9087 59.4532 65.8593 59.5056 62.0492Z" fill="#DA6D5C"/>
<path opacity="0.38" d="M59.3727 62.0477C59.4242 58.3109 56.6742 55.2432 53.2305 55.1958C49.7868 55.1484 46.9534 58.1392 46.902 61.876C46.8505 65.6128 49.6005 68.6805 53.0442 68.7279C56.4879 68.7753 59.3213 65.7845 59.3727 62.0477Z" fill="#DA6C5B"/>
<path opacity="0.38" d="M59.3728 62.0477C59.4242 58.3109 56.6742 55.2432 53.2305 55.1958C49.7868 55.1484 46.9534 58.1392 46.902 61.876C46.8505 65.6128 49.6005 68.6805 53.0442 68.7279C56.4879 68.7753 59.3213 65.7845 59.3728 62.0477Z" fill="#D96B5A"/>
<path opacity="0.38" d="M53.2048 55.2319C49.755 55.2319 46.9688 58.1509 46.9688 61.866C46.9688 65.5811 49.6224 68.6327 53.0721 68.6327C56.5218 68.6327 59.3081 65.7137 59.3081 61.9987C59.3081 58.2836 56.5218 55.3646 53.2048 55.2319Z" fill="#D96A5A"/>
<path opacity="0.38" d="M53.2048 55.3645C49.8877 55.3645 47.1014 58.2835 46.9688 61.8659C46.9688 65.5809 49.6224 68.4999 52.9394 68.6326C56.2564 68.6326 59.0427 65.7136 59.1754 62.1312C59.1754 58.4162 56.5218 55.3645 53.2048 55.3645Z" fill="#D96959"/>
<path opacity="0.38" d="M53.2044 55.3645C49.8874 55.3645 47.1011 58.2835 47.1011 61.8659C47.1011 65.4483 49.7547 68.4999 53.0717 68.4999C56.3887 68.4999 59.175 65.5809 59.175 61.9986C59.175 58.4162 56.5214 55.3645 53.2044 55.3645Z" fill="#D96858"/>
<path opacity="0.38" d="M53.2044 55.4973C49.8874 55.4973 47.2338 58.2836 47.1011 61.866C47.1011 65.4484 49.622 68.3674 52.939 68.5C56.2561 68.5 58.9097 65.7138 59.0424 62.1314C59.0424 58.4163 56.5214 55.4973 53.2044 55.4973Z" fill="#D86757"/>
<path opacity="0.38" d="M53.2045 55.4973C49.8875 55.4973 47.2339 58.2836 47.2339 61.866C47.2339 65.4484 49.7548 68.3674 53.0719 68.3674C56.3889 68.3674 59.0425 65.5811 59.0425 61.9987C59.0425 58.4163 56.3889 55.4973 53.2045 55.4973Z" fill="#D86657"/>
<path opacity="0.38" d="M53.2045 55.6299C50.0202 55.6299 47.3666 58.4162 47.2339 61.8659C47.2339 65.4483 49.7548 68.2346 52.9392 68.3673C56.1235 68.3673 58.7771 65.581 58.9098 62.1313C59.0425 58.5489 56.3889 55.6299 53.2045 55.6299Z" fill="#D86556"/>
<path opacity="0.38" d="M53.2049 55.6299C50.0206 55.6299 47.3669 58.4162 47.3669 61.8659C47.3669 65.3156 49.8879 68.2346 53.0722 68.2346C56.2566 68.2346 58.9102 65.4483 58.9102 61.9986C58.9102 58.5489 56.3893 55.6299 53.2049 55.6299Z" fill="#D86455"/>
<path opacity="0.38" d="M53.2049 55.7625C50.0206 55.7625 47.4996 58.4161 47.3669 61.8658C47.3669 65.3155 49.8879 68.1018 53.0722 68.2345C56.2566 68.2345 58.7775 65.5809 58.9102 62.1311C58.9102 58.5488 56.3893 55.7625 53.2049 55.7625Z" fill="#D86354"/>
<path opacity="0.38" d="M53.2048 55.7625C50.0205 55.7625 47.4995 58.4161 47.4995 61.8658C47.4995 65.3155 50.0205 68.1018 53.0721 68.1018C56.2565 68.1018 58.7774 65.4482 58.7774 61.9985C58.7774 58.5488 56.2565 55.7625 53.2048 55.7625Z" fill="#D76253"/>
<path opacity="0.38" d="M53.2048 55.8953C50.1531 55.8953 47.4995 58.5489 47.4995 61.9986C47.4995 65.3156 49.8878 68.1019 53.0721 68.2346C56.1238 68.2346 58.7774 65.581 58.7774 62.1313C58.7774 58.6816 56.2565 55.8953 53.2048 55.8953Z" fill="#D76153"/>
<path opacity="0.38" d="M53.2052 55.8953C50.1535 55.8953 47.6326 58.5489 47.6326 61.8659C47.6326 65.1829 50.0208 67.9692 53.0725 67.9692C56.1242 67.9692 58.6451 65.3156 58.6451 61.9986C58.6451 58.6816 56.2568 55.8953 53.2052 55.8953Z" fill="#D76052"/>
<path opacity="0.38" d="M53.2052 55.8953C50.1535 55.8953 47.6326 58.5489 47.6326 61.8659C47.6326 65.1829 50.0208 67.8366 53.0725 67.9692C56.1242 67.9692 58.6451 65.3156 58.6451 61.9986C58.6451 58.6816 56.2568 56.0279 53.2052 55.8953Z" fill="#D75F51"/>
<path opacity="0.38" d="M53.2052 56.0276C50.1535 56.0276 47.7652 58.5485 47.6326 61.8656C47.6326 65.1826 50.0208 67.8362 52.9398 67.8362C55.9915 67.8362 58.3797 65.3153 58.5124 61.9982C58.5124 58.8139 56.1242 56.0276 53.2052 56.0276Z" fill="#D75E50"/>
<path opacity="0.38" d="M53.2043 56.0276C50.2853 56.0276 47.7644 58.5485 47.7644 61.8656C47.7644 65.0499 50.1527 67.7035 53.0716 67.8362C55.9906 67.8362 58.5116 65.3153 58.5116 61.9982C58.5116 58.8139 56.1233 56.1603 53.2043 56.0276Z" fill="#D65D50"/>
<path opacity="0.38" d="M53.2043 56.1606C50.2853 56.1606 47.8971 58.6816 47.7644 61.8659C47.7644 65.0503 50.02 67.7039 52.939 67.7039C55.8579 67.7039 58.2462 65.183 58.3789 61.9986C58.5116 58.8143 56.1233 56.1606 53.2043 56.1606Z" fill="#D65C4F"/>
<path opacity="0.38" d="M53.2047 56.1606C50.2857 56.1606 47.8975 58.6816 47.8975 61.8659C47.8975 65.0503 50.153 67.5712 53.072 67.7039C55.991 67.7039 58.3793 65.183 58.3793 61.9986C58.3793 58.8143 56.1237 56.2933 53.2047 56.1606Z" fill="#D65B4E"/>
<path opacity="0.38" d="M53.2047 56.2932C50.2857 56.2932 48.0301 58.8142 47.8975 61.8658C47.8975 65.0502 50.153 67.5711 53.072 67.5711C55.991 67.5711 58.2466 65.0502 58.3793 61.9985C58.3793 58.9468 55.991 56.2932 53.2047 56.2932Z" fill="#D65A4D"/>
<path opacity="0.38" d="M53.2048 56.2932C50.4185 56.2932 48.0303 58.6815 48.0303 61.8658C48.0303 64.9175 50.2859 67.4384 53.0722 67.5711C55.8585 67.5711 58.2467 65.1828 58.2467 61.9985C58.2467 58.9468 55.9911 56.4259 53.2048 56.2932Z" fill="#D5594C"/>
<path opacity="0.38" d="M53.2048 56.4258C50.4185 56.4258 48.0303 58.814 48.0303 61.8657C48.0303 64.9174 50.2859 67.4383 53.0722 67.4383C55.8585 67.4383 58.2467 65.05 58.2467 61.9984C58.2467 58.9467 55.9911 56.4258 53.2048 56.4258Z" fill="#D5584C"/>
<path opacity="0.38" d="M53.2047 56.4258C50.4184 56.4258 48.1628 58.814 48.1628 61.8657C48.1628 64.9174 50.2857 67.3056 53.072 67.4383C55.8583 67.4383 58.1139 65.05 58.1139 61.9984C58.1139 58.9467 55.991 56.5585 53.2047 56.4258Z" fill="#D5574B"/>
<path opacity="0.38" d="M53.2047 56.5588C50.4184 56.5588 48.1628 58.9471 48.1628 61.8661C48.1628 64.9177 50.2857 67.306 53.072 67.306C55.8583 67.306 58.1139 64.9177 58.1139 61.9988C58.1139 59.0798 55.8583 56.5588 53.2047 56.5588Z" fill="#D5564A"/>
<path opacity="0.38" d="M53.2047 56.5588C50.5511 56.5588 48.2955 58.9471 48.1628 61.8661C48.1628 64.7851 50.2857 67.1733 52.9394 67.306C55.593 67.306 57.8486 64.9177 57.9812 61.9988C57.9812 59.0798 55.8583 56.6915 53.2047 56.5588Z" fill="#D55549"/>
<path opacity="0.38" d="M53.2051 56.6912C50.5515 56.6912 48.2959 58.9467 48.2959 61.8657C48.2959 64.7847 50.4188 67.173 53.0724 67.173C55.726 67.173 57.9816 64.9174 57.9816 61.9984C57.9816 59.0794 55.8587 56.6912 53.2051 56.6912Z" fill="#D45449"/>
<path opacity="0.38" d="M53.2051 56.6912C50.5515 56.6912 48.4286 58.9467 48.2959 61.8657C48.2959 64.7847 50.4188 67.173 53.0724 67.173C55.726 67.173 57.8489 64.9174 57.9816 61.9984C57.8489 59.0794 55.8587 56.8238 53.2051 56.6912Z" fill="#D45348"/>
<path opacity="0.38" d="M53.2045 56.824C50.5509 56.824 48.428 59.0796 48.428 61.8659C48.428 64.6522 50.4182 67.0404 53.0718 67.0404C55.7254 67.0404 57.8483 64.7848 57.8483 61.9985C57.8483 59.2122 55.7254 56.824 53.2045 56.824Z" fill="#D45247"/>
</g>
<g opacity="0.38">
<path opacity="0.38" d="M78.8127 52.0477C73.1074 51.915 68.4636 56.5589 68.3309 62.2641C68.1982 67.9694 72.8421 72.6133 78.5473 72.7459C84.2526 72.8786 88.8965 68.2348 89.0291 62.5295C89.1618 56.8242 84.518 52.0477 78.8127 52.0477Z" fill="#E5A185"/>
<path opacity="0.38" d="M78.8125 52.0475C73.1072 51.9148 68.4634 56.426 68.4634 62.1313C68.4634 67.8366 72.8419 72.4804 78.5471 72.4804C84.2524 72.6131 88.8963 68.1019 88.8963 62.3967C88.8963 56.6914 84.5178 52.1802 78.8125 52.0475Z" fill="#E5A084"/>
<path opacity="0.38" d="M78.8129 52.1803C73.2403 52.0477 68.5965 56.5588 68.4638 62.2641C68.3311 67.8367 72.8423 72.4805 78.5475 72.6132C84.1202 72.7459 88.764 68.2347 88.8967 62.5295C88.8967 56.8242 84.3855 52.1803 78.8129 52.1803Z" fill="#E59F83"/>
<path opacity="0.38" d="M78.8126 52.1803C73.24 52.0477 68.5962 56.5588 68.5962 62.1314C68.5962 67.704 72.9747 72.3479 78.5473 72.3479C84.1199 72.4805 88.7637 67.9694 88.7637 62.3968C88.7637 56.8242 84.3852 52.313 78.8126 52.1803Z" fill="#E49E83"/>
<path opacity="0.38" d="M78.8123 52.3129C73.2397 52.1802 68.7286 56.6914 68.5959 62.264C68.4632 67.8366 72.9743 72.3477 78.5469 72.4804C84.1196 72.6131 88.6307 68.102 88.7634 62.5294C88.8961 56.9567 84.3849 52.3129 78.8123 52.3129Z" fill="#E49D82"/>
<path opacity="0.38" d="M78.8127 52.3129C73.2401 52.1802 68.7289 56.6914 68.7289 62.1313C68.5962 67.7039 73.1074 72.2151 78.5473 72.2151C84.1199 72.3477 88.6311 67.8366 88.6311 62.3967C88.7638 56.9567 84.2526 52.4456 78.8127 52.3129Z" fill="#E49C81"/>
<path opacity="0.38" d="M78.8128 52.4458C73.3729 52.3131 68.8617 56.6916 68.729 62.2642C68.5963 67.7041 72.9748 72.2153 78.5474 72.348C83.9873 72.4806 88.4985 68.1022 88.6312 62.5296C88.7638 56.957 84.2527 52.4458 78.8128 52.4458Z" fill="#E49B80"/>
<path opacity="0.38" d="M78.8127 52.4458C73.3727 52.3131 68.8616 56.6916 68.8616 62.1315C68.7289 67.5715 73.1074 72.0826 78.5473 72.0826C83.9872 72.2153 88.4984 67.8368 88.4984 62.3969C88.4984 56.957 84.2526 52.5785 78.8127 52.4458Z" fill="#E49A80"/>
<path opacity="0.38" d="M78.8127 52.5784C73.3727 52.4457 68.9943 56.8242 68.8616 62.2641C68.7289 67.704 73.1074 72.0825 78.5473 72.2152C83.9872 72.3479 88.3657 67.9694 88.4984 62.5295C88.4984 57.0895 84.2526 52.5784 78.8127 52.5784Z" fill="#E3997F"/>
<path opacity="0.38" d="M78.813 52.5784C73.5058 52.4457 68.9946 56.8242 68.9946 62.1314C68.862 67.4387 73.2404 71.9498 78.5477 71.9498C83.8549 72.0825 88.3661 67.704 88.3661 62.3968C88.4987 57.0895 84.1203 52.7111 78.813 52.5784Z" fill="#E3987E"/>
<path opacity="0.38" d="M78.813 52.5784C73.5058 52.4457 69.1273 56.8242 68.9946 62.1314C68.862 67.4387 73.2404 71.8171 78.5477 71.9498C83.8549 72.0825 88.2334 67.704 88.3661 62.3968C88.3661 57.0895 84.1203 52.7111 78.813 52.5784Z" fill="#E3977D"/>
<path opacity="0.38" d="M78.8125 52.7108C73.5053 52.5781 69.1268 56.8239 69.1268 62.1311C68.9941 67.4384 73.2399 71.8169 78.5472 71.8169C83.8544 71.9495 88.2329 67.7037 88.2329 62.3965C88.3656 57.0893 84.1198 52.8435 78.8125 52.7108Z" fill="#E3967C"/>
<path opacity="0.38" d="M78.8125 52.7108C73.5053 52.5781 69.2595 56.8239 69.1268 62.1311C68.9941 67.4384 73.2399 71.6842 78.5472 71.8169C83.8544 71.9495 88.1002 67.7037 88.2329 62.3965C88.2329 57.2219 84.1198 52.8435 78.8125 52.7108Z" fill="#E2957C"/>
<path opacity="0.38" d="M78.8124 52.8438C73.6379 52.7112 69.2594 56.957 69.2594 62.1315C69.1267 67.3061 73.3725 71.6846 78.547 71.6846C83.7216 71.8172 88.1001 67.5714 88.1001 62.3969C88.2328 57.2223 83.987 52.8438 78.8124 52.8438Z" fill="#E2947B"/>
<path opacity="0.38" d="M78.8124 52.8438C73.6379 52.7112 69.3921 56.957 69.2594 62.1315C69.1267 67.3061 73.3725 71.5519 78.547 71.6846C83.7216 71.8172 87.9674 67.5714 88.1001 62.3969C88.1001 57.2223 83.987 52.9765 78.8124 52.8438Z" fill="#E2937A"/>
<path opacity="0.38" d="M78.8126 52.9764C73.638 52.8437 69.3922 57.0895 69.3922 62.1314C69.2595 67.306 73.5053 71.5518 78.5472 71.5518C83.7217 71.6844 87.9675 67.4386 87.9675 62.3968C88.1002 57.2222 83.9871 52.9764 78.8126 52.9764Z" fill="#E29279"/>
<path opacity="0.38" d="M78.8126 52.9763C73.6381 52.8436 69.525 56.9567 69.3923 62.1313C69.2596 67.3058 73.3727 71.4189 78.5473 71.5516C83.7218 71.6843 87.8349 67.5712 87.9676 62.3966C87.9676 57.3547 83.8545 53.1089 78.8126 52.9763Z" fill="#E29179"/>
<path opacity="0.38" d="M78.813 53.1091C73.7711 52.9764 69.5253 57.0895 69.5253 62.1314C69.3927 67.1733 73.5058 71.4191 78.5476 71.4191C83.5895 71.5518 87.8353 67.4386 87.8353 62.3968C87.968 57.3549 83.8549 53.1091 78.813 53.1091Z" fill="#E19078"/>
<path opacity="0.38" d="M78.813 53.1091C73.7711 52.9764 69.658 57.0895 69.5253 62.1314C69.3927 67.1733 73.5058 71.2864 78.5476 71.4191C83.5895 71.5518 87.7026 67.4386 87.8353 62.3968C87.8353 57.3549 83.8549 53.2418 78.813 53.1091Z" fill="#E18F77"/>
<path opacity="0.38" d="M78.8124 53.2419C73.7705 53.1092 69.6574 57.2223 69.6574 62.1315C69.5247 67.1734 73.6378 71.2865 78.547 71.2865C83.5889 71.4192 87.702 67.3061 87.702 62.3969C87.8347 57.355 83.8543 53.2419 78.8124 53.2419Z" fill="#E18E76"/>
<path opacity="0.38" d="M78.8125 53.2417C73.7706 53.1091 69.7902 57.0895 69.6575 62.1314C69.5248 67.1733 73.5053 71.1537 78.5471 71.2864C83.589 71.4191 87.5695 67.4386 87.7021 62.3967C87.7021 57.4875 83.7217 53.3744 78.8125 53.2417Z" fill="#E18D75"/>
<path opacity="0.38" d="M78.8126 53.3746C73.9034 53.2419 69.7903 57.2223 69.7903 62.2642C69.6577 67.1734 73.6381 71.2865 78.68 71.2865C83.5892 71.4192 87.7023 67.4388 87.7023 62.3969C87.7023 57.4877 83.7218 53.3746 78.8126 53.3746Z" fill="#E18C75"/>
<path opacity="0.38" d="M78.8126 53.3746C73.9034 53.2419 69.923 57.2223 69.7903 62.1315C69.6577 67.0407 73.6381 71.0211 78.5473 71.1538C83.4565 71.2865 87.4369 67.3061 87.5696 62.3969C87.5696 57.4877 83.7218 53.5072 78.8126 53.3746Z" fill="#E08B74"/>
<path opacity="0.38" d="M78.8128 53.5071C73.9036 53.3744 69.9231 57.3549 69.9231 62.2641C69.7905 67.1733 73.7709 71.1537 78.6801 71.1537C83.5893 71.2864 87.5697 67.306 87.5697 62.3968C87.5697 57.4876 83.722 53.5071 78.8128 53.5071Z" fill="#E08A73"/>
<path opacity="0.38" d="M78.8128 53.5071C74.0363 53.3744 70.0558 57.3549 69.9231 62.1314C69.7905 66.9079 73.7709 70.8883 78.5474 71.021C83.3239 71.1537 87.3044 67.1733 87.437 62.3968C87.437 57.6202 83.5893 53.6398 78.8128 53.5071Z" fill="#E08972"/>
<path opacity="0.38" d="M78.8129 53.6399C74.0363 53.6399 70.0559 57.355 70.0559 62.2642C70.0559 67.0407 73.771 71.0211 78.6802 71.0211C83.4567 71.0211 87.4371 67.306 87.4371 62.3968C87.4371 57.6203 83.5894 53.6399 78.8129 53.6399Z" fill="#E08872"/>
<path opacity="0.38" d="M78.8129 53.6399C74.0363 53.6399 70.1886 57.355 70.0559 62.1315C70.0559 66.908 73.771 70.7557 78.5475 70.8884C83.324 70.8884 87.1718 67.1734 87.3044 62.3968C87.3044 57.6203 83.5894 53.7726 78.8129 53.6399Z" fill="#DF8771"/>
<path opacity="0.38" d="M78.8125 53.7725C74.036 53.7725 70.1882 57.4875 70.1882 62.2641C70.1882 67.0406 73.9033 70.8883 78.6798 70.8883C83.4563 70.8883 87.3041 67.1732 87.3041 62.3967C87.3041 57.7529 83.4563 53.7725 78.8125 53.7725Z" fill="#DF8670"/>
<path opacity="0.38" d="M78.8125 53.7725C74.1687 53.7725 70.3209 57.4875 70.1882 62.1314C70.1882 66.7752 73.9033 70.623 78.5471 70.7556C83.191 70.7556 87.0387 67.0406 87.1714 62.3967C87.1714 57.7529 83.4563 53.9051 78.8125 53.7725Z" fill="#DF856F"/>
<path opacity="0.38" d="M78.8124 53.905C74.1686 53.905 70.3208 57.6201 70.3208 62.2639C70.3208 66.9078 74.0359 70.7555 78.6797 70.7555C83.3235 70.7555 87.1713 67.0404 87.1713 62.3966C87.1713 57.7528 83.4562 53.905 78.8124 53.905Z" fill="#DF846F"/>
<path opacity="0.38" d="M78.8124 53.905C74.1686 53.905 70.4535 57.4874 70.3208 62.1313C70.3208 66.7751 73.9032 70.4902 78.547 70.6228C83.1909 70.6228 86.9059 67.0404 87.0386 62.3966C87.0386 57.7528 83.4562 54.0377 78.8124 53.905Z" fill="#DF836E"/>
<path opacity="0.38" d="M78.8128 54.0378C74.1689 54.0378 70.4539 57.6202 70.4539 62.2641C70.4539 66.9079 74.0362 70.623 78.6801 70.623C83.3239 70.623 87.039 67.0406 87.039 62.3967C87.039 57.8856 83.3239 54.0378 78.8128 54.0378Z" fill="#DE826D"/>
<path opacity="0.38" d="M78.8128 54.0378C74.3016 54.0378 70.5865 57.6202 70.4539 62.1314C70.4539 66.6425 74.0362 70.3576 78.5474 70.4903C83.0586 70.4903 86.7736 66.9079 86.9063 62.3967C86.9063 57.8856 83.3239 54.1705 78.8128 54.0378Z" fill="#DE816C"/>
<path opacity="0.38" d="M78.8127 54.1702C74.3015 54.1702 70.5864 57.7526 70.5864 62.2637C70.5864 66.7749 74.1688 70.4899 78.68 70.4899C83.1911 70.4899 86.9062 66.9075 86.9062 62.3964C86.9062 57.8852 83.3238 54.1702 78.8127 54.1702Z" fill="#DE806B"/>
<path opacity="0.38" d="M78.8127 54.1702C74.3015 54.1702 70.5864 57.7526 70.5864 62.131C70.5864 66.6422 74.1688 70.3572 78.5473 70.3572C83.0584 70.3572 86.7735 66.7749 86.7735 62.3964C86.9062 57.8852 83.3238 54.3028 78.8127 54.1702Z" fill="#DE7F6B"/>
<path opacity="0.38" d="M78.8128 54.3032C74.4343 54.3032 70.7192 57.7529 70.7192 62.2641C70.7192 66.6426 74.1689 70.3576 78.6801 70.3576C83.0586 70.3576 86.7737 66.9079 86.7737 62.3968C86.7737 58.0183 83.1913 54.3032 78.8128 54.3032Z" fill="#DE7E6A"/>
<path opacity="0.38" d="M78.8128 54.3032C74.4343 54.3032 70.7192 57.7529 70.7192 62.1314C70.7192 66.5099 74.1689 70.2249 78.5474 70.2249C82.9259 70.2249 86.641 66.7752 86.641 62.3968C86.7736 58.0183 83.1913 54.4359 78.8128 54.3032Z" fill="#DD7D69"/>
<path opacity="0.38" d="M78.8119 54.436C74.4335 54.436 70.8511 57.8857 70.8511 62.2642C70.8511 66.6427 74.3008 70.2251 78.6792 70.2251C83.0577 70.2251 86.6401 66.7754 86.6401 62.3969C86.6401 58.0184 83.1904 54.436 78.8119 54.436Z" fill="#DD7C68"/>
<path opacity="0.38" d="M78.8119 54.436C74.4335 54.436 70.8511 57.8857 70.8511 62.1315C70.8511 66.51 74.3008 70.0924 78.5466 70.0924C82.925 70.0924 86.5074 66.6427 86.5074 62.3969C86.6401 58.0184 83.0577 54.5687 78.8119 54.436Z" fill="#DD7B68"/>
<path opacity="0.38" d="M78.8119 54.5684C74.5661 54.5684 70.9838 57.8854 70.8511 62.2639C70.8511 66.5097 74.1681 70.092 78.5466 70.2247C82.7924 70.2247 86.3748 66.9077 86.5074 62.5292C86.5074 58.1507 83.0577 54.5684 78.8119 54.5684Z" fill="#DD7A67"/>
<path opacity="0.38" d="M78.8123 54.5684C74.5665 54.5684 70.9841 57.8854 70.9841 62.1312C70.9841 66.377 74.3012 69.9594 78.5469 69.9594C82.7927 69.9594 86.3751 66.6423 86.3751 62.3965C86.5078 58.1507 83.0581 54.5684 78.8123 54.5684Z" fill="#DD7A66"/>
<path opacity="0.38" d="M78.8123 54.7014C74.5665 54.7014 71.1168 58.0184 70.9841 62.2642C70.9841 66.51 74.3012 69.9597 78.5469 70.0924C82.7927 70.0924 86.2424 66.7754 86.3751 62.5296C86.3751 58.1511 83.0581 54.7014 78.8123 54.7014Z" fill="#DC7965"/>
<path opacity="0.38" d="M78.8124 54.7014C74.5667 54.7014 71.1169 58.0184 71.1169 62.1316C71.1169 66.3774 74.434 69.8271 78.5471 69.8271C82.7929 69.8271 86.2426 66.51 86.2426 62.3969C86.3753 58.1511 82.9256 54.7014 78.8124 54.7014Z" fill="#DC7864"/>
<path opacity="0.38" d="M78.8124 54.834C74.6993 54.834 71.2496 58.151 71.1169 62.2641C71.1169 66.3772 74.434 69.8269 78.5471 69.9596C82.6602 69.9596 86.1099 66.6426 86.2426 62.5295C86.2426 58.2837 82.9256 54.834 78.8124 54.834Z" fill="#DC7764"/>
<path opacity="0.38" d="M78.8128 54.834C74.6997 54.834 71.25 58.0183 71.25 62.1314C71.25 66.2446 74.4343 69.6943 78.5475 69.6943C82.6606 69.6943 86.1103 66.5099 86.1103 62.3968C86.243 58.2837 82.9259 54.834 78.8128 54.834Z" fill="#DC7663"/>
<path opacity="0.38" d="M78.8128 54.834C74.6997 54.834 71.3827 58.0183 71.25 62.1314C71.25 66.2446 74.4343 69.5616 78.5475 69.6943C82.6606 69.6943 85.9776 66.5099 86.1103 62.3968C86.1103 58.2837 82.9259 54.9667 78.8128 54.834Z" fill="#DB7562"/>
<path opacity="0.38" d="M78.8127 54.9666C74.6996 54.9666 71.3826 58.1509 71.3826 62.264C71.3826 66.3771 74.5669 69.6941 78.68 69.6941C82.7931 69.6941 86.1102 66.5098 86.1102 62.3967C86.1102 58.2836 82.7931 54.9666 78.8127 54.9666Z" fill="#DB7461"/>
<path opacity="0.38" d="M78.8127 54.9666C74.8323 54.9666 71.5152 58.1509 71.3826 62.1313C71.3826 66.1118 74.5669 69.4288 78.5473 69.5615C82.5278 69.5615 85.8448 66.3771 85.9775 62.3967C85.9775 58.4163 82.7931 55.0992 78.8127 54.9666Z" fill="#DB7361"/>
<path opacity="0.38" d="M78.8124 55.0996C74.8319 55.0996 71.5149 58.284 71.5149 62.2644C71.5149 66.2448 74.6992 69.5618 78.6797 69.5618C82.6601 69.5618 85.9771 66.3775 85.9771 62.3971C85.9771 58.4166 82.7928 55.0996 78.8124 55.0996Z" fill="#DB7260"/>
<path opacity="0.38" d="M78.8124 55.0996C74.8319 55.0996 71.6476 58.1513 71.5149 62.1317C71.5149 66.1121 74.5666 69.2965 78.547 69.4292C82.5274 69.4292 85.7118 66.3775 85.8444 62.3971C85.8444 58.4166 82.6601 55.2323 78.8124 55.0996Z" fill="#DB715F"/>
<path opacity="0.38" d="M78.8122 55.2319C74.9645 55.2319 71.6475 58.2836 71.6475 62.264C71.6475 66.1118 74.6991 69.4288 78.6795 69.4288C82.5273 69.4288 85.8443 66.3771 85.8443 62.3967C85.8443 58.549 82.66 55.2319 78.8122 55.2319Z" fill="#DA705E"/>
<path opacity="0.38" d="M78.8122 55.2319C74.9645 55.2319 71.7801 58.2836 71.6475 62.1313C71.6475 65.9791 74.6991 69.1634 78.5469 69.2961C82.3946 69.2961 85.579 66.2445 85.7116 62.3967C85.7116 58.549 82.66 55.3646 78.8122 55.2319Z" fill="#DA6F5D"/>
<path opacity="0.38" d="M78.8124 55.3647C74.9646 55.3647 71.7803 58.4164 71.7803 62.2642C71.7803 66.1119 74.8319 69.2963 78.6797 69.2963C82.5274 69.2963 85.7118 66.2446 85.7118 62.3968C85.7118 58.5491 82.6601 55.3647 78.8124 55.3647Z" fill="#DA6E5D"/>
<path opacity="0.38" d="M78.8124 55.3647C74.9646 55.3647 71.913 58.4164 71.7803 62.1315C71.7803 65.9792 74.8319 69.0309 78.547 69.1636C82.3948 69.1636 85.4464 66.1119 85.5791 62.3968C85.5791 58.5491 82.5274 55.4974 78.8124 55.3647Z" fill="#DA6D5C"/>
<path opacity="0.38" d="M78.8128 55.4973C75.0977 55.4973 71.9133 58.4163 71.9133 62.264C71.9133 65.9791 74.8323 69.1635 78.6801 69.1635C82.3951 69.1635 85.5795 66.2445 85.5795 62.3967C85.5795 58.6817 82.5278 55.4973 78.8128 55.4973Z" fill="#DA6C5B"/>
<path opacity="0.38" d="M78.8128 55.4973C75.0977 55.4973 72.046 58.4163 71.9133 62.1314C71.9133 65.8464 74.8323 68.8981 78.5474 69.0308C82.2625 69.0308 85.3141 66.1118 85.4468 62.3967C85.4468 58.6817 82.5278 55.63 78.8128 55.4973Z" fill="#D96B5A"/>
<path opacity="0.38" d="M78.8126 55.6299C75.0976 55.6299 72.0459 58.5489 72.0459 62.2639C72.0459 65.979 74.9649 69.0307 78.68 69.0307C82.395 69.0307 85.4467 66.1117 85.4467 62.3966C85.4467 58.6815 82.395 55.6299 78.8126 55.6299Z" fill="#D96A5A"/>
<path opacity="0.38" d="M78.8126 55.6299C75.0976 55.6299 72.1786 58.5489 72.0459 62.1313C72.0459 65.8463 74.9649 68.7653 78.5473 68.898C82.2623 68.898 85.1813 65.979 85.314 62.3966C85.314 58.6815 82.395 55.7626 78.8126 55.6299Z" fill="#D96959"/>
<path opacity="0.38" d="M78.812 55.7629C75.2296 55.7629 72.178 58.5492 72.178 62.2643C72.178 65.8467 74.9643 68.8984 78.6793 68.8984C82.2617 68.8984 85.3134 66.1121 85.3134 62.397C85.3134 58.8146 82.3944 55.7629 78.812 55.7629Z" fill="#D96858"/>
<path opacity="0.38" d="M78.812 55.7629C75.2296 55.7629 72.3107 58.5492 72.178 62.1316C72.178 65.714 74.9643 68.633 78.5467 68.7657C82.1291 68.7657 85.048 65.9794 85.1807 62.397C85.1807 58.8146 82.3944 55.8956 78.812 55.7629Z" fill="#D86757"/>
<path opacity="0.38" d="M78.8124 55.8953C75.23 55.8953 72.311 58.6816 72.311 62.264C72.311 65.8463 75.0973 68.7653 78.6797 68.7653C82.2621 68.7653 85.1811 65.979 85.1811 62.3966C85.1811 58.8142 82.2621 55.8953 78.8124 55.8953Z" fill="#D86657"/>
<path opacity="0.38" d="M78.8124 55.8953C75.23 55.8953 72.4437 58.6816 72.311 62.1313C72.311 65.7137 75.0973 68.5 78.547 68.6326C82.1294 68.6326 84.9157 65.8463 85.0484 62.3966C85.0484 58.8142 82.2621 56.0279 78.8124 55.8953Z" fill="#D86556"/>
<path opacity="0.38" d="M78.8123 56.0281C75.3626 56.0281 72.4436 58.8144 72.4436 62.2641C72.4436 65.7138 75.2299 68.6328 78.6796 68.6328C82.1293 68.6328 85.0483 65.8465 85.0483 62.3968C85.0483 58.9471 82.262 56.0281 78.8123 56.0281Z" fill="#D86455"/>
<path opacity="0.38" d="M78.8123 56.0281C75.3626 56.0281 72.5763 58.6817 72.4436 62.1314C72.4436 65.5811 75.0972 68.3674 78.5469 68.5001C81.9966 68.5001 84.7829 65.8465 84.9156 62.3968C84.9156 58.9471 82.262 56.1608 78.8123 56.0281Z" fill="#D86354"/>
<path opacity="0.38" d="M78.8127 56.1606C75.363 56.1606 72.5767 58.8143 72.5767 62.264C72.5767 65.7137 75.2303 68.5 78.68 68.5C82.1297 68.5 84.916 65.8464 84.916 62.3966C84.916 58.9469 82.1297 56.1606 78.8127 56.1606Z" fill="#D76253"/>
<path opacity="0.38" d="M78.8127 56.1606C75.4956 56.1606 72.7093 58.8143 72.5767 62.1313C72.5767 65.4483 75.2303 68.2346 78.5473 68.3673C81.8643 68.3673 84.6506 65.7137 84.7833 62.3966C84.7833 58.9469 82.1297 56.2933 78.8127 56.1606Z" fill="#D76153"/>
<path opacity="0.38" d="M78.8128 56.2935C75.4958 56.2935 72.7095 58.9471 72.7095 62.2641C72.7095 65.5811 75.3631 68.3674 78.6801 68.3674C81.9971 68.3674 84.7835 65.7138 84.7835 62.3968C84.7835 59.0798 82.1298 56.2935 78.8128 56.2935Z" fill="#D76052"/>
<path opacity="0.38" d="M78.8128 56.2935C75.4958 56.2935 72.8422 58.9471 72.7095 62.1314C72.7095 65.4485 75.3631 68.1021 78.5474 68.2348C81.8645 68.2348 84.5181 65.5811 84.6508 62.3968C84.6508 59.0798 81.9972 56.2935 78.8128 56.2935Z" fill="#D75F51"/>
<path opacity="0.38" d="M78.8124 56.4263C75.4954 56.4263 72.8418 58.9472 72.8418 62.2642C72.8418 65.5813 75.3627 68.2349 78.6798 68.2349C81.9968 68.2349 84.6504 65.7139 84.6504 62.3969C84.6504 59.0799 81.9968 56.4263 78.8124 56.4263Z" fill="#D75E50"/>
<path opacity="0.38" d="M78.8124 56.4263C75.6281 56.4263 72.9745 58.9472 72.8418 62.2642C72.8418 65.4486 75.3627 68.1022 78.6798 68.2349C81.8641 68.2349 84.5177 65.7139 84.6504 62.3969C84.5177 59.0799 81.9968 56.4263 78.8124 56.4263Z" fill="#D65D50"/>
<path opacity="0.38" d="M78.8123 56.5588C75.628 56.5588 72.9744 59.0798 72.9744 62.2641C72.9744 65.4485 75.4953 68.1021 78.6796 68.1021C81.864 68.1021 84.5176 65.5811 84.5176 62.3968C84.5176 59.2125 81.9967 56.5588 78.8123 56.5588Z" fill="#D65C4F"/>
<path opacity="0.38" d="M78.8123 56.5588C75.628 56.5588 73.107 59.0798 72.9744 62.2641C72.9744 65.4485 75.4953 67.9694 78.6796 68.1021C81.864 68.1021 84.3849 65.5811 84.5176 62.3968C84.3849 59.2125 81.864 56.5588 78.8123 56.5588Z" fill="#D65B4E"/>
<path opacity="0.38" d="M78.8125 56.6917C75.6281 56.6917 73.1072 59.2126 73.1072 62.2643C73.1072 65.4486 75.6281 67.9695 78.6798 67.9695C81.8641 67.9695 84.3851 65.4486 84.3851 62.3969C84.3851 59.2126 81.8641 56.6917 78.8125 56.6917Z" fill="#D65A4D"/>
<path opacity="0.38" d="M78.8125 56.6917C75.7608 56.6917 73.2399 59.0799 73.1072 62.2643C73.1072 65.3159 75.4954 67.8369 78.6798 67.9695C81.7314 67.9695 84.2524 65.5813 84.3851 62.3969C84.2524 59.3453 81.8641 56.6917 78.8125 56.6917Z" fill="#D5594C"/>
<path opacity="0.38" d="M78.6798 56.824C75.6281 56.824 73.1072 59.2122 73.1072 62.2639C73.1072 65.3156 75.4954 67.8365 78.5471 67.8365C81.5988 67.8365 84.1197 65.4482 84.1197 62.3966C84.2524 59.3449 81.8641 56.824 78.6798 56.824Z" fill="#D5584C"/>
<path opacity="0.38" d="M78.6798 56.824C75.6281 56.824 73.2399 59.2122 73.1072 62.2639C73.1072 65.3156 75.4954 67.7038 78.5471 67.8365C81.5988 67.8365 83.987 65.4482 84.1197 62.3966C84.1197 59.3449 81.7314 56.824 78.6798 56.824Z" fill="#D5574B"/>
<path opacity="0.38" d="M78.6802 56.957C75.6285 56.957 73.2402 59.3453 73.2402 62.2643C73.2402 65.3159 75.6285 67.7042 78.5475 67.7042C81.5991 67.7042 83.9874 65.3159 83.9874 62.397C84.1201 59.3453 81.7318 56.957 78.6802 56.957Z" fill="#D5564A"/>
<path opacity="0.38" d="M78.6802 56.957C75.7612 56.957 73.2402 59.2126 73.2402 62.2643C73.2402 65.1833 75.4958 67.7042 78.5475 67.7042C81.4665 67.7042 83.9874 65.4486 83.9874 62.397C83.9874 59.478 81.7318 56.957 78.6802 56.957Z" fill="#D55549"/>
<path opacity="0.38" d="M78.68 56.957C75.7611 56.957 73.3728 59.2126 73.3728 62.1316C73.3728 65.0506 75.6284 67.4388 78.5474 67.4388C81.4663 67.4388 83.8546 65.1833 83.8546 62.2643C83.9873 59.478 81.599 57.0897 78.68 56.957Z" fill="#D45449"/>
<path opacity="0.38" d="M78.68 57.0898C75.7611 57.0898 73.3728 59.3454 73.3728 62.2644C73.3728 65.1834 75.6284 67.5716 78.5474 67.5716C81.4663 67.5716 83.8546 65.3161 83.8546 62.3971C83.9873 59.4781 81.599 57.0898 78.68 57.0898Z" fill="#D45348"/>
<path opacity="0.38" d="M78.6792 57.0898C75.8929 57.0898 73.5046 59.3454 73.5046 62.1317C73.5046 64.918 75.7602 67.3063 78.5465 67.3063C81.3328 67.3063 83.7211 65.0507 83.7211 62.2644C83.8538 59.4781 81.5982 57.2225 78.6792 57.0898Z" fill="#D45247"/>
</g>
<path d="M96.7243 53.5072C94.0707 52.5784 90.7536 54.9667 89.4268 58.9471C88.1 62.9275 89.1615 66.908 91.9478 67.8367C94.6014 68.7655 97.9184 66.3772 99.2452 62.3968C100.572 58.5491 99.3779 54.4359 96.7243 53.5072Z" fill="#E5A185"/>
<path d="M96.9897 62.9276C94.336 64.6525 91.5497 63.9891 89.5595 62.3969C89.5595 65.7139 88.8961 72.0826 84.1196 78.4513C80.2719 83.6258 71.913 85.3507 65.8096 85.0853C51.082 84.5546 47.2343 80.0435 44.1826 73.9401C46.3055 80.5742 51.3474 86.8102 62.8906 87.6063C84.385 89.0658 90.2229 80.1761 91.019 67.4388C91.2844 67.5714 91.5497 67.7041 91.8151 67.8368C94.4687 68.7656 97.7858 66.3773 99.1126 62.3969C99.5106 61.3354 99.6433 60.4067 99.6433 59.3452C99.2452 60.8047 98.4492 61.9988 96.9897 62.9276Z" fill="#D78C74"/>
<path opacity="0.52" d="M49.4899 46.8731C49.4899 46.8731 48.2958 50.9862 48.1631 54.1706L59.441 56.1608C59.441 56.1608 63.8195 49.5267 62.4926 39.3103L49.4899 46.8731Z" fill="#D78C74"/>
<path d="M92.2129 60.6719L94.7338 61.07C94.7338 57.2222 97.6528 55.8954 97.6528 55.8954C92.8763 54.1706 92.2129 60.6719 92.2129 60.6719Z" fill="#D78C74"/>
<path opacity="0.52" d="M73.9033 39.3103C73.9033 39.3103 68.5961 48.3326 72.4438 55.6301L85.8446 56.2935C85.8446 56.2935 87.1714 51.2516 86.508 47.4038C85.5792 43.5561 73.9033 39.3103 73.9033 39.3103Z" fill="#D78C74"/>
<path d="M79.7409 50.8534C74.301 50.4553 72.3108 55.6299 72.3108 55.6299C72.3108 55.6299 73.2396 59.0796 78.9448 59.0796C85.5789 59.2123 85.7116 56.0279 85.7116 56.0279C85.7116 56.0279 85.3135 51.2514 79.7409 50.8534Z" fill="white"/>
<path d="M48.163 54.1703C48.163 54.1703 47.2342 57.3547 53.0722 57.62C58.9102 57.8854 59.4409 56.1605 59.4409 56.1605C59.4409 56.1605 54.001 45.4134 48.163 54.1703Z" fill="white"/>
<path d="M55.9911 52.3131C54.797 51.915 53.3375 53.1092 52.6741 55.0994C52.4087 56.0281 52.2761 56.8242 52.4087 57.6203C52.6741 57.6203 52.9395 57.6203 53.2048 57.753C54.6643 57.8857 55.7258 57.753 56.5219 57.6203C56.6545 57.355 56.9199 56.9569 56.9199 56.5589C57.5833 54.5687 57.1853 52.7111 55.9911 52.3131Z" fill="url(#paint2_linear)"/>
<path opacity="0.6" d="M51.8782 55.63L52.0109 56.4261C52.0109 56.4261 55.4606 56.1607 55.1952 54.5686C54.7972 52.9764 51.8782 55.63 51.8782 55.63Z" fill="white"/>
<path d="M79.4762 52.5785C78.2821 52.1804 76.8226 53.3745 76.1592 55.3648C75.7612 56.6916 75.7612 57.8857 76.2919 58.6818C77.088 58.9472 78.0168 59.0798 79.0782 59.0798C79.7416 58.5491 80.2723 57.753 80.5377 56.8243C81.0684 54.9667 80.6704 52.9765 79.4762 52.5785Z" fill="url(#paint3_linear)"/>
<path opacity="0.6" d="M75.3627 56.4259L75.23 57.3547C75.23 57.3547 78.8124 57.222 78.547 55.6298C78.149 54.0377 75.3627 56.4259 75.3627 56.4259Z" fill="white"/>
<path d="M53.603 49.792C49.0919 49.6593 48.1631 54.0378 48.1631 54.0378C48.1631 54.0378 49.0919 52.1803 53.0723 52.1803C57.0527 52.0476 59.441 56.028 59.441 56.028C59.441 56.028 59.5737 49.9247 53.603 49.792Z" fill="#381911"/>
<path d="M49.49 46.8731C53.4704 44.4849 59.9718 46.077 62.2274 43.6888C63.1561 42.76 62.4927 39.3103 62.4927 39.3103C50.2861 41.0352 49.49 46.8731 49.49 46.8731Z" fill="url(#paint4_linear)"/>
<path d="M73.9033 39.3103C73.9033 39.3103 72.1784 41.9639 72.8418 43.0254C74.6993 46.077 83.0582 45.1483 86.3753 47.6692C86.2426 47.5365 87.1714 41.8312 73.9033 39.3103Z" fill="url(#paint5_linear)"/>
<path d="M79.6082 50.588C73.5049 50.4553 72.3108 55.6298 72.3108 55.6298C72.3108 55.6298 74.1683 52.9762 79.6082 53.2416C85.0482 53.6396 85.7116 56.1606 85.7116 56.1606C85.7116 56.1606 85.7116 50.7206 79.6082 50.588Z" fill="#381911"/>
<path d="M59.3083 6.53809C59.441 8.39562 61.0332 10.2532 61.0332 10.2532C61.0332 10.2532 88.4982 28.9612 83.4563 18.0813C78.4144 7.33417 59.3083 6.53809 59.3083 6.53809Z" fill="url(#paint6_linear)"/>
<path d="M87.8352 14.3663C86.243 14.6317 85.9777 15.2951 85.9777 15.2951C87.0391 13.3049 86.3757 10.5186 86.3757 10.5186C83.324 12.2434 83.5894 14.6317 83.5894 14.6317C82.1299 11.58 77.4861 10.5186 77.4861 10.5186C77.6188 13.0395 80.4051 15.6931 80.5377 15.8258L82.926 19.4082L87.8352 18.6121L87.3045 16.3565C88.2332 15.4278 87.8352 14.3663 87.8352 14.3663Z" fill="url(#paint7_linear)"/>
<path d="M66.6058 69.9593C56.2566 70.092 55.0625 67.8364 55.0625 67.8364C55.0625 67.8364 52.9396 76.1953 65.5443 76.328C77.4856 76.4607 76.2915 68.4998 76.1588 67.9691C76.1588 68.2345 76.1588 69.8266 66.6058 69.9593Z" fill="#6C332E"/>
<path d="M73.9033 69.2964C72.4438 69.5617 70.3209 69.8271 66.7385 69.9598C61.962 70.0925 59.043 69.5617 57.4509 69.031C57.3182 70.4905 56.9201 71.95 56.6548 73.2768C58.1143 74.869 60.7679 76.1958 65.6771 76.1958C70.8517 76.1958 73.638 74.7363 74.9648 73.0114C74.8321 72.4807 74.5667 72.0827 74.434 71.5519C74.036 70.8885 73.9033 70.0925 73.9033 69.2964Z" fill="white"/>
<path opacity="0.35" d="M73.9029 69.2964C72.4434 69.5617 70.3205 69.8271 66.7381 69.9598C61.9616 70.0925 59.0426 69.5617 57.4504 69.031C57.4504 69.5617 57.3177 69.9598 57.1851 70.4905C62.625 69.031 69.1263 70.7559 74.699 73.4095C74.8316 73.2768 74.8316 73.1441 74.9643 73.1441C74.8316 72.6134 74.5663 72.2154 74.4336 71.6846C74.0356 70.8885 73.9029 70.0925 73.9029 69.2964Z" fill="#C3BBA5"/>
<path d="M62.8903 58.8142C62.8903 58.8142 59.0426 56.0279 57.5831 60.9371C56.2563 65.8463 66.0747 68.7653 68.7283 63.7234C71.3819 58.5489 64.4825 48.9958 64.4825 48.9958C64.4825 48.9958 65.8093 54.8338 62.8903 58.8142Z" fill="#E5A185"/>
<path opacity="0.2" d="M62.8904 58.8143C62.8904 58.8143 59.1753 56.1607 57.7158 60.5392C59.706 61.0699 61.8289 61.3352 63.8191 61.4679C65.0133 58.5489 65.4113 55.3646 65.544 51.7822C65.2786 51.6495 65.0133 51.6495 64.7479 51.5168C64.8806 53.7724 64.6152 56.5587 62.8904 58.8143Z" fill="white"/>
<path d="M69.1271 15.8255C41.9275 17.683 45.7753 47.8016 45.7753 47.8016C47.3674 38.7793 53.0727 27.6341 57.3185 27.5014C57.3185 27.5014 61.0336 30.5531 66.6062 30.6858C71.6481 30.8184 78.5475 27.1034 78.5475 27.1034C83.5894 26.9707 89.162 42.3617 89.8254 54.8337C89.9581 57.62 92.479 54.4357 92.479 54.4357C92.479 54.4357 95.9287 13.9679 69.1271 15.8255Z" fill="url(#paint8_linear)"/>
<path d="M83.456 18.214C75.3624 5.87466 49.0916 9.45705 49.0916 9.45705C46.5706 23.3886 56.2564 26.5729 56.2564 26.5729C56.2564 26.5729 78.9448 22.4598 82.3945 24.9807C85.8442 27.369 92.611 46.8731 92.611 46.8731C92.611 46.8731 98.4489 26.5729 94.2031 19.0101C91.0188 13.4375 83.456 18.214 83.456 18.214Z" fill="url(#paint9_linear)"/>
<path d="M49.8878 20.0713C41.927 22.4595 44.1825 54.4357 44.1825 54.4357C45.7747 45.4134 53.2049 27.7668 57.4506 27.5014C57.4506 27.5014 53.4702 25.1132 49.8878 20.0713Z" fill="url(#paint10_linear)"/>
<path opacity="0.21" d="M91.0191 16.4893C90.0903 16.622 89.0289 16.8873 87.9674 17.1527C85.4465 17.6834 82.7929 18.0815 80.1393 17.8161C77.0876 17.418 74.434 16.0912 71.7803 14.6317C70.4535 13.9683 69.1267 13.3049 67.6672 12.6415C64.6156 11.3147 61.1659 10.1206 57.8488 10.2533C56.2567 10.2533 54.6645 10.784 53.0723 11.4474C51.6128 11.9781 50.5514 12.9069 49.6226 13.703C49.2246 14.101 48.9592 14.3664 48.6938 14.7644C48.6938 15.8259 48.8265 16.8873 49.0919 17.8161C49.2246 17.6834 49.3573 17.6834 49.3573 17.5507C49.888 17.1527 50.5514 16.7546 51.3475 16.3566C52.1436 16.0912 53.0723 15.6932 54.0011 15.6932C57.9815 15.4278 61.5639 17.02 65.1463 18.4795C66.6058 19.1429 68.0653 19.8063 69.6575 20.4697C71.2496 21.1331 72.8418 21.7965 74.5667 22.3272C77.4856 23.256 80.9353 23.5214 83.8543 22.5926C84.2524 22.4599 84.6504 22.3272 85.0485 22.3272C86.5079 21.7965 87.8348 21.2658 89.0289 20.6024C90.223 20.0717 91.1518 19.5409 91.9479 19.1429C92.4786 18.8775 93.0093 18.6122 93.54 18.4795C93.0093 17.2854 92.0805 16.7546 91.0191 16.4893Z" fill="url(#paint11_linear)"/>
<path d="M44.1828 54.436C44.1828 54.436 43.9175 67.0407 52.2764 68.1022C52.2764 68.1022 50.1535 78.982 65.6772 79.1147C80.6701 79.2474 78.2819 68.2349 78.2819 68.2349C78.2819 68.2349 88.631 68.2349 89.9578 54.5687H92.6114C92.6114 54.5687 90.0905 62.5296 91.4173 67.3061C91.4173 67.3061 95.265 88.4024 67.1367 88.9331C39.0083 89.1985 40.8658 67.7041 44.1828 54.436Z" fill="url(#paint12_linear)"/>
<path d="M63.8199 63.7233C63.8199 63.7233 60.2375 63.1926 54.7976 64.7848C49.623 66.377 47.6328 65.4482 47.6328 65.4482C47.6328 65.4482 48.9596 69.5613 65.014 69.9594C78.6802 70.2247 83.0586 67.4384 83.0586 67.4384C83.0586 67.4384 76.5573 63.458 63.8199 63.7233Z" fill="url(#paint13_linear)"/>
<path d="M57.4509 62.3967C57.9817 66.5098 66.2079 68.3674 68.7288 63.7235C68.8615 63.4582 68.9942 63.1928 69.1269 62.7948C65.2791 63.5909 61.166 63.4582 57.4509 62.3967Z" fill="#D78C74"/>
<path opacity="0.16" d="M62.7583 80.574C63.8197 80.8393 65.6773 81.1047 68.1982 80.7067C68.8616 80.574 69.525 81.1047 69.6577 81.9008C69.6577 83.0949 69.127 84.5544 65.2792 84.5544C61.5641 84.5544 61.0334 82.8295 61.1661 81.6354C61.2988 80.8393 61.9622 80.4413 62.7583 80.574Z" fill="black"/>
<path d="M86.7737 94.2402L89.8253 121.307C91.0195 123.563 92.6116 127.012 94.3365 130.993C102.165 127.676 109.329 122.899 115.3 117.061C103.226 94.5056 87.3044 95.3017 86.7737 94.2402Z" fill="url(#paint14_linear)"/>
<path d="M87.8351 110.295L87.5697 94.5056C74.6997 90.7905 57.1858 90.7905 44.8464 95.9651L45.1118 110.295H87.8351Z" fill="#D78C74"/>
<path d="M93.0094 131.656L92.346 95.6994C91.2846 95.3014 90.0905 94.9034 88.7636 94.638C87.7022 94.3726 86.5081 93.9746 85.3139 93.7092C84.2525 101.007 74.9648 102.732 64.8811 102.864C55.7261 102.997 51.6129 101.007 49.7554 93.9746C46.7037 94.5053 39.0082 96.8936 34.7625 99.6799L35.2932 128.074C44.9789 133.381 56.1241 136.433 67.9327 136.433C76.8223 136.433 85.3139 134.708 93.0094 131.656Z" fill="#DFE5EA"/>
<path d="M33.0372 101.14C29.0567 105.12 27.4645 112.285 26.6685 122.369C35.6908 129.268 46.4379 134.045 58.2465 135.637C59.1753 119.848 60.1041 108.305 60.2368 106.182C59.8387 104.324 54.0007 98.7516 52.6739 93.4443C47.234 93.4443 36.3542 97.9555 33.0372 101.14Z" fill="url(#paint15_linear)"/>
<path d="M81.3334 92.6479C80.4047 99.0166 77.7511 97.6898 70.4536 106.049C70.1882 108.968 69.2595 120.246 68.4634 136.433C81.8642 136.3 94.4689 132.32 104.951 125.553C104.951 122.501 104.818 119.582 104.818 117.061C104.818 114.673 104.951 98.0879 88.7636 94.7708C87.7021 94.3728 82.5276 93.046 81.3334 92.6479Z" fill="url(#paint16_linear)"/>
<path opacity="0.08" d="M49.7552 93.7092C49.7552 93.7092 47.2343 106.181 50.0206 111.621C50.0206 111.621 50.5513 103.793 54.001 105.12C56.2566 106.049 58.6448 109.233 59.9717 111.356C60.1043 108.57 60.237 106.845 60.237 106.181C59.839 104.324 54.2664 99.0165 52.8069 93.9746C51.082 93.7092 49.7552 93.7092 49.7552 93.7092Z" fill="#002A3D"/>
<path d="M53.2046 98.7512C53.2046 99.0166 51.3471 114.142 49.7549 133.779C50.6837 134.044 51.4797 134.31 52.4085 134.442C53.868 116.663 55.4602 102.732 55.8582 99.68C55.7255 99.4146 55.5928 99.2819 55.3275 99.0166L53.2046 98.7512Z" fill="#993CFE"/>
<path d="M75.7611 100.874C75.363 104.722 74.3016 118.653 73.3728 136.167C74.3016 136.035 75.2303 136.035 76.1591 135.902C77.0879 115.469 78.5474 100.211 78.5474 100.078L76.9552 99.9453C76.5572 100.211 76.1591 100.476 75.7611 100.874Z" fill="#993CFE"/>
<path opacity="0.08" d="M79.3432 105.253C82.7929 103.926 83.589 111.754 83.589 111.754C86.2426 106.314 83.3236 93.842 83.3236 93.842C83.3236 93.842 82.3949 93.842 81.2007 93.9747C80.1393 99.0166 77.353 98.3532 70.4536 106.181C70.3209 106.977 70.0555 109.764 69.9229 112.948C72.1784 110.427 77.4857 106.049 79.3432 105.253Z" fill="#002A3D"/>
<path d="M29.1895 121.44L30.5163 118.654L52.4086 114.806L52.9394 117.46L29.1895 121.44Z" fill="#993CFE"/>
<path d="M60.2375 106.181C60.2375 106.181 52.6747 97.0265 50.9498 103.13C49.7557 107.376 49.225 109.764 49.225 109.764C49.225 109.764 45.6426 99.1494 49.225 94.1075C52.9401 88.9329 55.7264 88.0042 55.7264 88.0042C55.7264 88.0042 55.461 94.1075 57.8493 99.1494C59.5741 102.599 60.2375 106.181 60.2375 106.181Z" fill="url(#paint17_linear)"/>
<path d="M58.7773 114.01C58.7773 114.938 57.9812 115.602 56.9198 115.602C55.8583 115.602 55.0623 114.938 55.0623 114.01C55.0623 113.081 55.8583 112.417 56.9198 112.417C57.8486 112.417 58.7773 113.081 58.7773 114.01Z" fill="#B0B5C1"/>
<path d="M57.1855 132.187C57.1855 133.116 56.3894 133.779 55.328 133.779C54.2665 133.779 53.4705 133.116 53.4705 132.187C53.4705 131.258 54.2665 130.595 55.328 130.595C56.3894 130.595 57.1855 131.391 57.1855 132.187Z" fill="#B0B5C1"/>
<path d="M97.7858 121.44L75.7607 116.929L76.2915 114.275L98.3165 118.786L97.7858 121.44Z" fill="#993CFE"/>
<path d="M70.4531 106.314C70.4531 106.314 80.4042 97.0267 82.3944 103.263C83.7212 107.508 84.3846 109.897 84.3846 109.897C84.3846 109.897 87.569 99.2822 83.7212 94.2403C79.8735 89.0658 77.4852 88.9331 77.4852 88.9331C77.4852 88.9331 77.7506 91.056 75.495 96.2306C74.0355 99.6803 70.8512 102.069 70.4531 106.314Z" fill="url(#paint18_linear)"/>
<path opacity="0.12" d="M57.9814 99.2822C55.5932 94.1076 55.8586 88.137 55.8586 88.137C55.8586 88.137 55.1951 88.4023 54.001 89.3311C51.3474 91.852 51.8781 97.1593 53.2049 101.272C55.9912 101.14 60.3697 106.314 60.3697 106.314C60.3697 106.314 59.5736 102.599 57.9814 99.2822Z" fill="white"/>
<path opacity="0.12" d="M79.7409 101.14C80.2716 96.894 80.2716 92.5155 77.4853 88.9331C77.4853 88.9331 77.7507 91.056 75.4951 96.2306C74.0356 99.5476 70.8513 102.069 70.3206 106.314C70.4532 106.314 76.1585 101.007 79.7409 101.14Z" fill="white"/>
<path d="M26.9341 122.634C27.7302 123.297 28.6589 123.828 29.455 124.491C32.9047 106.314 37.4159 99.4148 39.2734 97.1592C37.0178 97.6899 35.1603 98.6187 33.9662 99.6801C31.8433 103.926 29.057 111.621 26.9341 122.634Z" fill="#993CFE"/>
<path d="M92.744 95.8324C91.5498 95.3017 90.223 94.9037 88.7635 94.6383C88.6308 94.6383 88.4982 94.5056 88.3655 94.5056C90.223 96.0978 94.7342 102.599 98.7146 129.003C99.6434 128.605 100.439 128.074 101.236 127.676C98.4492 109.499 95.2649 100.344 92.744 95.8324Z" fill="#993CFE"/>
<path d="M68.6636 136.373L70.5657 105.94M70.5657 105.94C71.0095 104.482 72.3916 100.957 74.3697 98.5223C76.3479 96.0877 77.3496 91.1677 77.6032 89.0121C79.2255 89.6901 81.2897 91.0708 82.9506 93.1966M70.5657 105.94C72.5311 104.355 77.1467 101.147 79.8857 100.995C82.6246 100.843 83.9434 106.638 84.2604 109.554C87.2701 102.03 85.6387 96.6373 82.9506 93.1966M82.9506 93.1966C86.8109 93.8306 96.1291 96.2779 102.52 100.995C108.911 105.712 113.679 113.865 115.264 117.353M58.0122 135.612L60.1044 105.94M60.1044 105.94C59.6606 103.975 58.3926 99.3592 56.8709 96.6203C55.3493 93.8813 55.6029 89.5193 55.9199 87.6807C53.9985 88.5675 51.4294 90.5706 49.6968 93.7672M60.1044 105.94C59.407 105.116 57.2133 103.087 54.0179 101.566C50.8226 100.044 49.5165 106.257 49.2628 109.554C46.8262 102.651 47.7133 97.4268 49.6968 93.7672M49.6968 93.7672C46.4455 94.528 38.3451 97.0387 31.9542 100.995C25.5634 104.951 20.1616 111.773 18.2595 114.69" stroke="white" stroke-width="1.7"/>
<path d="M92.6293 46.4067V54.7756C97.6507 50.9716 99.5401 56.3607 99.8571 59.5307C99.0963 67.2911 94.0876 68.3435 91.6783 67.8997C92.4392 76.0785 87.8743 81.4042 85.4016 83.4965C82.9289 85.5887 72.2775 92.0557 56.3003 87.4908C43.5186 83.8388 41.718 72.4012 42.4155 67.1389C37.0897 65.6173 35.3779 58.1993 38.6114 54.205C41.1981 51.0096 43.4932 52.8736 44.3174 54.205C42.1871 27.8807 47.2339 20.5388 50.0236 20.1584C48.1976 17.7238 48.6287 11.9163 49.0725 9.31681C69.006 6.4257 80.3295 13.8183 83.4995 17.876C89.5861 15.2892 92.5025 16.7982 93.2 17.876C98.2213 23.2017 94.9118 39.1155 92.6293 46.4067Z" stroke="white" stroke-width="1.77"/>
<path d="M59.9139 8.74608C59.7617 8.28959 59.4701 7.03424 59.3433 6.46362C63.0205 6.71723 71.8587 8.13742 77.7931 11.7893L77.6029 10.4579C79.3781 11.1553 83.0808 12.9686 83.6894 14.6424C83.8796 13.8182 84.6404 11.8274 86.1621 10.4579C86.4157 11.4089 86.7707 13.6533 86.1621 15.0228L88.0641 14.262C88.1909 14.8326 88.2163 16.126 87.3033 16.7347" stroke="white" stroke-width="1.77"/>
<defs>
<linearGradient id="paint0_linear" x1="70.2513" y1="-2.6104" x2="64.1341" y2="136.594" gradientUnits="userSpaceOnUse">
<stop stop-color="#7521FF"/>
<stop offset="1" stop-color="#F471FF"/>
</linearGradient>
<linearGradient id="paint1_linear" x1="34.1622" y1="95.8495" x2="31.7668" y2="212.435" gradientUnits="userSpaceOnUse">
<stop stop-color="#21D1FF"/>
<stop offset="1" stop-color="#993CFE"/>
</linearGradient>
<linearGradient id="paint2_linear" x1="53.9982" y1="58.4538" x2="56.1019" y2="51.3291" gradientUnits="userSpaceOnUse">
<stop stop-color="#5C3333"/>
<stop offset="1"/>
</linearGradient>
<linearGradient id="paint3_linear" x1="77.2276" y1="60.2471" x2="79.2446" y2="52.248" gradientUnits="userSpaceOnUse">
<stop stop-color="#5C3333"/>
<stop offset="1"/>
</linearGradient>
<linearGradient id="paint4_linear" x1="56.332" y1="39.1334" x2="56.0433" y2="65.6171" gradientUnits="userSpaceOnUse">
<stop stop-color="#33105F"/>
<stop offset="1" stop-color="#501392"/>
</linearGradient>
<linearGradient id="paint5_linear" x1="79.7662" y1="39.1148" x2="79.4252" y2="68.3857" gradientUnits="userSpaceOnUse">
<stop stop-color="#33105F"/>
<stop offset="1" stop-color="#501392"/>
</linearGradient>
<linearGradient id="paint6_linear" x1="72.114" y1="6.18859" x2="71.5117" y2="58.5178" gradientUnits="userSpaceOnUse">
<stop stop-color="#33105F"/>
<stop offset="1" stop-color="#993CFE"/>
</linearGradient>
<linearGradient id="paint7_linear" x1="82.8811" y1="10.3106" x2="82.3753" y2="41.436" gradientUnits="userSpaceOnUse">
<stop stop-color="#33105F"/>
<stop offset="1" stop-color="#993CFE"/>
</linearGradient>
<linearGradient id="paint8_linear" x1="69.9085" y1="14.8229" x2="67.6126" y2="155.622" gradientUnits="userSpaceOnUse">
<stop stop-color="#33105F"/>
<stop offset="1" stop-color="#993CFE"/>
</linearGradient>
<linearGradient id="paint9_linear" x1="73.0151" y1="8.08726" x2="70.9775" y2="140.789" gradientUnits="userSpaceOnUse">
<stop stop-color="#33105F"/>
<stop offset="1" stop-color="#993CFE"/>
</linearGradient>
<linearGradient id="paint10_linear" x1="50.9005" y1="19.2676" x2="45.0982" y2="139.34" gradientUnits="userSpaceOnUse">
<stop stop-color="#33105F"/>
<stop offset="1" stop-color="#993CFE"/>
</linearGradient>
<linearGradient id="paint11_linear" x1="59.7238" y1="8.93644" x2="89.2055" y2="27.0058" gradientUnits="userSpaceOnUse">
<stop stop-color="white"/>
<stop offset="1" stop-color="white" stop-opacity="0"/>
</linearGradient>
<linearGradient id="paint12_linear" x1="68.3436" y1="53.6292" x2="66.7617" y2="174.434" gradientUnits="userSpaceOnUse">
<stop stop-color="#33105F"/>
<stop offset="1" stop-color="#993CFE"/>
</linearGradient>
<linearGradient id="paint13_linear" x1="65.9503" y1="63.4902" x2="65.8745" y2="85.6897" gradientUnits="userSpaceOnUse">
<stop stop-color="#33105F"/>
<stop offset="1" stop-color="#993CFE"/>
</linearGradient>
<linearGradient id="paint14_linear" x1="101.524" y1="93.3807" x2="98.3627" y2="222.02" gradientUnits="userSpaceOnUse">
<stop stop-color="#21D1FF"/>
<stop offset="1" stop-color="#993CFE"/>
</linearGradient>
<linearGradient id="paint15_linear" x1="44.0255" y1="92.4576" x2="40.4851" y2="240.141" gradientUnits="userSpaceOnUse">
<stop stop-color="#21D1FF"/>
<stop offset="1" stop-color="#993CFE"/>
</linearGradient>
<linearGradient id="paint16_linear" x1="87.3297" y1="91.6239" x2="83.8219" y2="244.888" gradientUnits="userSpaceOnUse">
<stop stop-color="#21D1FF"/>
<stop offset="1" stop-color="#993CFE"/>
</linearGradient>
<linearGradient id="paint17_linear" x1="54.1503" y1="87.4952" x2="51.6438" y2="163.62" gradientUnits="userSpaceOnUse">
<stop stop-color="#21D1FF"/>
<stop offset="0.1875" stop-color="#993CFE"/>
</linearGradient>
<linearGradient id="paint18_linear" x1="78.2965" y1="88.4428" x2="76.3626" y2="161.811" gradientUnits="userSpaceOnUse">
<stop stop-color="#21D1FF"/>
<stop offset="0.1875" stop-color="#993CFE"/>
</linearGradient>
</defs>
</svg>
